SplineFontDB: 3.2
FontName: AtkinsonHyperPro-BoldItalic
FullName: Atkinson Hyperlegible Pro Bold Italic
FamilyName: Atkinson Hyperlegible Pro
Weight: Bold
Copyright: Copyright 2020 Braille Institute of America, Inc.
UComments: "Update by Jacob Perez+AAoA-https://jacobxperez.github.io/atkinson-hyperlegible-pro/"
Version: 1.3.2
ItalicAngle: -12
UnderlinePosition: -106
UnderlineWidth: 57
Ascent: 800
Descent: 200
InvalidEm: 0
sfntRevision: 0x00010000
LayerCount: 2
Layer: 0 0 "Back" 1
Layer: 1 0 "Fore" 0
XUID: [1021 466 782043844 14962]
StyleMap: 0x0021
FSType: 0
OS2Version: 4
OS2_WeightWidthSlopeOnly: 0
OS2_UseTypoMetrics: 1
CreationTime: 1618935638
ModificationTime: 1697756005
PfmFamily: 81
TTFWeight: 700
TTFWidth: 5
LineGap: 0
VLineGap: 0
Panose: 0 0 0 0 0 0 0 0 0 0
OS2TypoAscent: 950
OS2TypoAOffset: 0
OS2TypoDescent: -290
OS2TypoDOffset: 0
OS2TypoLinegap: 0
OS2WinAscent: 950
OS2WinAOffset: 0
OS2WinDescent: 290
OS2WinDOffset: 0
HheadAscent: 950
HheadAOffset: 0
HheadDescent: -290
HheadDOffset: 0
OS2SubXSize: 650
OS2SubYSize: 699
OS2SubXOff: 0
OS2SubYOff: 140
OS2SupXSize: 650
OS2SupYSize: 699
OS2SupXOff: 0
OS2SupYOff: 479
OS2StrikeYSize: 49
OS2StrikeYPos: 258
OS2CapHeight: 668
OS2XHeight: 496
OS2Vendor: 'NONE'
OS2CodePages: 20000003.00000000
OS2UnicodeRanges: 800000ef.0000204b.00000000.00000000
Lookup: 4 0 1 "'liga' Standard Ligatures lookup 0" { "'liga' Standard Ligatures lookup 0-1"  } ['liga' ('DFLT' <'dflt' > 'grek' <'dflt' > 'latn' <'MOL ' 'dflt' > ) ]
Lookup: 1 0 0 "'zero' Slashed Zero lookup 0" { "'zero' Slashed Zero lookup 0-1"  } ['zero' ('DFLT' <'dflt' > 'grek' <'dflt' > 'latn' <'MOL ' 'dflt' > ) ]
Lookup: 1 0 0 "'aalt' Access All Alternates lookup 0" { "'aalt' Access All Alternates lookup 0 subtable"  } ['aalt' ('DFLT' <'dflt' > 'grek' <'dflt' > 'latn' <'dflt' > ) ]
Lookup: 3 0 0 "'aalt' Access All Alternates lookup 1" { "'aalt' Access All Alternates lookup 1 subtable"  } ['aalt' ('DFLT' <'dflt' > 'grek' <'dflt' > 'latn' <'dflt' > ) ]

StartChar: .notdef
Encoding: 256 -1 0
Width: 676
GlyphClass: 1
Flags: W
HStem: 0 21<158 528> 680 20<157 528>
VStem: 129 21<49 650> 536 20<47 652>
DStem2: 157 680 150 650 0.513698 -0.857971<22.1432 360.147 396.696 737.787> 150 49 158 21 0.513896 0.857853<0 339.381 374.897 715.649>
LayerCount: 2
Fore
SplineSet
158 21 m 1
 528 21 l 1
 343 329 l 1
 158 21 l 1
150 49 m 1
 330 350 l 1
 150 650 l 1
 150 49 l 1
536 47 m 1
 536 652 l 1
 355 350 l 1
 536 47 l 1
342 371 m 1
 528 680 l 1
 157 680 l 1
 342 371 l 1
129 0 m 1
 129 700 l 1
 556 700 l 1
 556 0 l 1
 129 0 l 1
EndSplineSet
EndChar

StartChar: zero
Encoding: 48 48 5
Width: 659
GlyphClass: 1
Flags: W
HStem: -12 113<251.483 376.724> 567 113<292.914 422.5>
VStem: 47 155<159.399 425.679> 470 155<241.096 509.017>
DStem2: 291 544 230 450 0.433731 -0.901042<58.2403 351.991>
LayerCount: 2
Fore
SplineSet
202 273 m 0
 202 203.797308857 217.846291458 101 312 101 c 0
 338.666666667 101 363 110 385 128 c 1
 230 450 l 1
 202.90526713 368.715801391 202 284.564279051 202 273 c 0
470 396 m 0
 470 478.528978039 449.198624146 567 360 567 c 0
 335.333333333 567 312.333333333 559.333333333 291 544 c 1
 444 227 l 1
 465.017274226 287.424663399 470 365.250986506 470 396 c 0
625 398 m 0
 625 218.581488371 549.499735455 -12 300 -12 c 0
 209.549540182 -12 47 22.5604791989 47 271 c 0
 47 344.97403434 64.001952993 680 372 680 c 0
 473.276830207 680 625 639.669663384 625 398 c 0
EndSplineSet
Substitution2: "'zero' Slashed Zero lookup 0-1" zero.alt1
Substitution2: "'aalt' Access All Alternates lookup 0 subtable" zero.alt1
Substitution2: "'tnum' Tabular Numbers lookup 14 subtable" zero.tf
EndChar

StartChar: one
Encoding: 49 49 6
Width: 455
GlyphClass: 1
Flags: W
HStem: 0 21G<132 291.222> 449 122<98 226.063> 648 20G<286.346 428>
VStem: 132 155<0 155>
DStem2: 132 0 287 0 0.207912 0.978148<32.2263 459.148>
LayerCount: 2
Fore
SplineSet
98 571 m 1
 212.405769559 571 262.692624279 592.308198847 310 668 c 1
 428 668 l 1
 287 0 l 1
 132 0 l 1
 228 449 l 1
 72 449 l 1
 98 571 l 1
EndSplineSet
Substitution2: "'tnum' Tabular Numbers lookup 14 subtable" one.tf
Substitution2: "'sups' Superscript lookup 9 subtable" uni00B9
AlternateSubs2: "'aalt' Access All Alternates lookup 1 subtable" uni00B9 one.tf
EndChar

StartChar: two
Encoding: 50 50 7
Width: 587
GlyphClass: 1
Flags: W
HStem: 0 125<204 478> 568 112<263.433 394.478>
VStem: 420 158<422.71 543.314>
LayerCount: 2
Fore
SplineSet
578 502 m 0
 578 358.00421666 418.506934375 230.860565016 204 125 c 1
 504 125 l 1
 478 0 l 1
 -35 0 l 1
 -9 125 l 1
 372.892933391 320.457013153 420 430.227617519 420 490 c 0
 420 553.465153284 364.145931935 568 334 568 c 0
 314.36574715 568 250.752763712 562.035971341 208 489 c 1
 81 539 l 1
 145.942011016 654.452464028 280.630753872 680 350 680 c 0
 447.557706853 680 578 635.244788309 578 502 c 0
EndSplineSet
Substitution2: "'tnum' Tabular Numbers lookup 14 subtable" two.tf
Substitution2: "'sups' Superscript lookup 9 subtable" uni00B2
AlternateSubs2: "'aalt' Access All Alternates lookup 1 subtable" uni00B2 two.tf
EndChar

StartChar: three
Encoding: 51 51 8
Width: 619
GlyphClass: 1
Flags: W
HStem: -12 113<196.013 342.531> 291 106<227 329.732> 567 113<247.968 392.42>
VStem: 419 160<439.882 541.127>
LayerCount: 2
Fore
SplineSet
579 513 m 0
 579 484.964157706 579 393.129032258 465 349 c 1
 607.909102903 268.831478859 551.675545971 -12 267 -12 c 0
 67.341228404 -12 20.7100290343 102.265577695 6 140 c 1
 155 190 l 1
 160.333333333 157.333333333 174 134.333333333 196 121 c 0
 218 107.666666667 242 101 268 101 c 0
 319.988233998 101 381 127.95448347 381 190 c 0
 381 226.048940816 369.710177343 291 205 291 c 1
 227 397 l 1
 313.872359305 397 419 412.5804579 419 488 c 0
 419 501.584023023 414.409997491 567 326 567 c 0
 277.200530737 567 222.269208766 551.050216307 204 485 c 1
 77 535 l 1
 97.2309404485 573.162910392 153.86746988 680 344 680 c 0
 452.892724328 680 579 632.900802929 579 513 c 0
EndSplineSet
Substitution2: "'tnum' Tabular Numbers lookup 14 subtable" three.tf
Substitution2: "'sups' Superscript lookup 9 subtable" uni00B3
AlternateSubs2: "'aalt' Access All Alternates lookup 1 subtable" uni00B3 three.tf
EndChar

StartChar: four
Encoding: 52 52 9
Width: 646
GlyphClass: 1
Flags: W
HStem: 0 21G<294 454.255> 141 134<193 324 508 572> 648 20G<401.096 592>
DStem2: 7 252 193 275 0.705401 0.708809<147.507 426.802> 294 0 450 0 0.207912 0.978148<32.4342 144.156 313.484 479.542>
LayerCount: 2
Fore
SplineSet
193 275 m 1
 352 275 l 1
 394 469 l 1
 193 275 l 1
294 0 m 1
 324 141 l 1
 -16 141 l 1
 7 252 l 1
 421 668 l 1
 592 668 l 1
 508 275 l 1
 600 275 l 1
 572 141 l 1
 480 141 l 1
 450 0 l 1
 294 0 l 1
EndSplineSet
Substitution2: "'tnum' Tabular Numbers lookup 14 subtable" four.tf
Substitution2: "'sups' Superscript lookup 9 subtable" uni2074
AlternateSubs2: "'aalt' Access All Alternates lookup 1 subtable" four.tf uni2074
EndChar

StartChar: five
Encoding: 53 53 10
Width: 616
GlyphClass: 1
Flags: W
HStem: -12 112<200.283 340.33> 337 111<231.921 345.764> 544 124<259 560>
VStem: 388 156<149.12 294.727>
LayerCount: 2
Fore
SplineSet
544 242 m 0
 544 72.4263446171 412.122310361 -12 268 -12 c 0
 249.655311796 -12 59.1014049574 -8.36216056201 17 142 c 1
 156 189 l 1
 170.015432367 111.91512198 243.376617692 100 269 100 c 0
 339.665136724 100 388 148.732825583 388 223 c 0
 388 314.438985598 318.481178861 337 277 337 c 0
 261.856370233 337 198.641345383 333.452522594 168 276 c 1
 41 327 l 1
 156 668 l 1
 586 668 l 1
 560 544 l 1
 259 544 l 1
 217 419 l 1
 236.637344383 429.996912854 277.308292264 448 333 448 c 0
 395.091804025 448 544 418.122410306 544 242 c 0
EndSplineSet
Substitution2: "'tnum' Tabular Numbers lookup 14 subtable" five.tf
Substitution2: "'aalt' Access All Alternates lookup 0 subtable" five.tf
EndChar

StartChar: six
Encoding: 54 54 11
Width: 629
GlyphClass: 1
Flags: W
HStem: -12 113<229.812 355.078> 339 113<252.444 373.783> 570 110<290.384 450.099>
VStem: 43 149<138.667 290.244> 407 155<153.343 303.957>
LayerCount: 2
Fore
SplineSet
192 209 m 0
 192 150.054246256 227.579136475 101 293 101 c 0
 357.600015927 101 405.657100525 154.483428341 407 227 c 0
 407 268.741013354 394.197556812 339 308 339 c 0
 281.369009504 339 192 329.987356574 192 209 c 0
562 243 m 0
 562 98.6186614815 447.471914246 -12 289 -12 c 0
 194.471313077 -12 43 24.4407037228 43 258 c 0
 43 469.594770791 149.982724633 680 370 680 c 0
 427.73228637 680 518.969050901 665.613232451 567 583 c 1
 429 535 l 1
 407.76998845 567.810017851 369.866885979 570 352 570 c 0
 276.926748418 570 232.241092176 498.359972883 220 409 c 1
 271.828808279 448.86831406 314.157059346 452 349 452 c 0
 457.108946247 452 562 381.708997428 562 243 c 0
EndSplineSet
Substitution2: "'tnum' Tabular Numbers lookup 14 subtable" six.tf
Substitution2: "'aalt' Access All Alternates lookup 0 subtable" six.tf
EndChar

StartChar: seven
Encoding: 55 55 12
Width: 561
GlyphClass: 1
Flags: W
HStem: 0 21G<13 207.738> 543 125<80 400>
VStem: 13 181<0 181>
LayerCount: 2
Fore
SplineSet
13 0 m 1
 400 543 l 1
 53 543 l 1
 80 668 l 1
 593 668 l 1
 567 543 l 1
 194 0 l 1
 13 0 l 1
EndSplineSet
Substitution2: "'tnum' Tabular Numbers lookup 14 subtable" seven.tf
Substitution2: "'aalt' Access All Alternates lookup 0 subtable" seven.tf
EndChar

StartChar: eight
Encoding: 56 56 13
Width: 623
GlyphClass: 1
Flags: W
HStem: -12 126<203.651 357.772> 294 123<261.559 357.047> 555 125<271.761 368.196>
VStem: 12 155<146.691 258.06> 121 125<431.383 531.15> 382 126<441.206 540.038> 402 154<155.183 266.004>
LayerCount: 2
Fore
SplineSet
167 198 m 0xf2
 167 148.889731529 212.117570911 114 280 114 c 0
 354.18543298 114 402 157.315586813 402 215 c 0
 402 274.678396107 341.325284933 294 291 294 c 0
 267.140876472 294 167 288.603452129 167 198 c 0xf2
246 479 m 0xec
 246 444.577592165 271.482441665 417 307 417 c 0
 344.950115485 417 382 450.992231009 382 494 c 0
 382 528.963980932 355.965790575 555 321 555 c 0
 284.726917108 555 246 524.839263031 246 479 c 0xec
556 211 m 0xe2
 556 86.0245406124 447.113130297 -12 274 -12 c 0
 99.2054463788 -12 12 79.1297020527 12 186 c 0xf2
 12 231.30201543 19.0648567931 310.034455171 147 378 c 1
 140.818181818 389.333333333 121 425.666666667 121 477 c 0
 121 571.068420295 194.957159274 680 334 680 c 0
 442.038888743 680 508 592.698446663 508 512 c 0xec
 508 470.270446496 488.306783446 406.306783446 455 373 c 1
 484.333333333 357.666666667 508.5 337.666666667 527.5 313 c 0
 546.5 288.333333333 556 254.333333333 556 211 c 0xe2
EndSplineSet
Substitution2: "'tnum' Tabular Numbers lookup 14 subtable" eight.tf
Substitution2: "'aalt' Access All Alternates lookup 0 subtable" eight.tf
EndChar

StartChar: nine
Encoding: 57 57 14
Width: 576
GlyphClass: 1
Flags: W
HStem: 0 21G<106 280.919> 546 135<257.51 386.413>
VStem: 62 140<363.576 491.325> 106 174<0 174> 417 139<387.005 515.325>
LayerCount: 2
Fore
SplineSet
202 422 m 0xe8
 202 351.158600895 265.815517547 336 297 336 c 0
 376.005223309 336 417 401.084204782 417 452 c 0
 417 466.563909345 413.05569307 546 327 546 c 0
 250.891526079 546 202 487.248777985 202 422 c 0xe8
332 681 m 0
 463.052929762 681 556 588.065253414 556 472 c 0
 556 396.058823529 528.412643085 356.571038141 458.5 256.5 c 0
 404.643000944 179.410569978 281.838020086 2.52727761874 280 0 c 2
 106 0 l 1xd8
 271 222 l 1
 254 222 l 1
 124.262978553 226.324567382 62 327.629336438 62 420 c 0
 62 560.820463901 184.126390323 681 332 681 c 0
EndSplineSet
Substitution2: "'tnum' Tabular Numbers lookup 14 subtable" nine.tf
Substitution2: "'aalt' Access All Alternates lookup 0 subtable" nine.tf
EndChar

StartChar: A
Encoding: 65 65 15
Width: 698
GlyphClass: 2
Flags: W
HStem: 0 21G<-65 132.092 455.311 623> 119 128<255 427> 648 20G<317.204 515.323>
DStem2: -65 0 121 0 0.508034 0.861337<94.4943 230.524 375.321 578.832> 512 668 395 501 0.16392 -0.986474<145.562 401.372> 623 0 442 119 0.16392 -0.986474<-480.395 -275.787 -147.06 -27.0468>
AnchorPoint: "Anchor-2" 623 0 basechar 0
AnchorPoint: "Anchor-1" 427 668 basechar 0
AnchorPoint: "Anchor-0" 296 0 basechar 0
LayerCount: 2
Fore
SplineSet
255 247 m 1
 427 247 l 1
 395 501 l 1
 255 247 l 1
-65 0 m 1
 329 668 l 1
 512 668 l 1
 623 0 l 1
 458 0 l 1
 442 119 l 1
 187 119 l 1
 121 0 l 1
 -65 0 l 1
EndSplineSet
Substitution2: "Single Substitution lookup 12 subtable" ordfeminine
Substitution2: "'aalt' Access All Alternates lookup 0 subtable" ordfeminine
EndChar

StartChar: B
Encoding: 66 66 16
Width: 643
GlyphClass: 1
Flags: W
HStem: 0 131<166 392.243> 282 122<224 415.957> 539 129<253 450.198>
VStem: 433 167<169.302 263.434> 464 169<435.695 526.515>
DStem2: -23 0 138.155 0 0.207912 0.978148<167.433 321.786 446.526 584.605>
AnchorPoint: "Anchor-1" 336 668 basechar 0
LayerCount: 2
Fore
SplineSet
433 222 m 0xf0
 433 264.302577823 391.989085788 282 339 282 c 2
 198 282 l 1
 166 131 l 1
 313 131 l 2
 388.705613806 131 433 174.463916744 433 222 c 0xf0
464 484 m 0xe8
 464 503.918626269 454.926059216 539 391 539 c 2
 253 539 l 1
 224 404 l 1
 363 404 l 2
 416.62166456 404 464 430.34601337 464 484 c 0xe8
523 355 m 1
 579.794619807 329.036745231 600 282.323378346 600 229 c 0xf0
 600 158.747024867 571.880327818 67.6267759393 441 24 c 0
 393 8 340.333333333 0 283 0 c 2
 -23 0 l 1
 119 668 l 1
 413 668 l 2
 623.727664535 668 633 569.692334177 633 524 c 0
 633 486.713911921 621.760320922 399.721654757 523 355 c 1
EndSplineSet
EndChar

StartChar: C
Encoding: 67 67 17
Width: 673
GlyphClass: 2
Flags: W
HStem: -12 132<264.077 420.558> 550 130<320.72 483.414>
VStem: 32 168<186.366 400.409>
AnchorPoint: "Anchor-1" 428 668 basechar 0
AnchorPoint: "Anchor-0" 311 0 basechar 0
LayerCount: 2
Fore
SplineSet
616 141 m 1
 565.068316927 62.3880543867 476.147371965 -12 322 -12 c 0
 258.047171037 -12 32 6.29815553797 32 265 c 0
 32 498.899250302 178.828442581 680 417 680 c 0
 485.644417008 680 625.966615498 662.470331638 671 525 c 1
 525 476 l 1
 517.061182368 494.523907809 493.285714286 550 401 550 c 0
 270.692449846 550 200 409.309858459 200 283 c 0
 200 229 212.833333333 188.5 238.5 161.5 c 0
 264.166666667 134.5 297.333333333 120.666666667 338 120 c 0
 359.374517375 120 423.619047619 120 480 194 c 1
 616 141 l 1
EndSplineSet
EndChar

StartChar: D
Encoding: 68 68 18
Width: 690
GlyphClass: 2
Flags: W
HStem: 0 133<167 346.985> 537 131<253 433.222>
DStem2: -23 0 138.73 0 0.207912 0.978148<169.597 582.649>
AnchorPoint: "Anchor-1" 391 668 basechar 0
AnchorPoint: "Anchor-0" 292 0 basechar 0
LayerCount: 2
Fore
SplineSet
167 133 m 1
 230 133 l 2
 313.141588252 133 400.050523099 156.968898901 450.5 240.5 c 0
 497.451732447 318.239753724 508.039756202 449.059500048 459.5 497 c 0
 432.5 523.666666667 383 537 311 537 c 2
 253 537 l 1
 167 133 l 1
-23 0 m 1
 119 668 l 1
 313 668 l 2
 378.657152957 668 715.871722285 664.739989925 651 312 c 0
 631.649985632 204.365545077 563.925734485 61.5595737605 347 15.5 c 0
 298.333333333 5.16666666667 249.333333333 0 200 0 c 2
 -23 0 l 1
EndSplineSet
EndChar

StartChar: E
Encoding: 69 69 19
Width: 582
GlyphClass: 2
Flags: W
HStem: 0 139<168 495> 274 139<226 414> 529 139<251 607>
DStem2: -23 0 138.455 0 0.207912 0.978148<175.674 313.753 455.745 574.408>
AnchorPoint: "Anchor-2" 463 0 basechar 0
AnchorPoint: "Anchor-1" 381 668 basechar 0
AnchorPoint: "Anchor-0" 238 0 basechar 0
LayerCount: 2
Fore
SplineSet
-23 0 m 1
 119 668 l 1
 637 668 l 1
 607 529 l 1
 251 529 l 1
 226 413 l 1
 443 413 l 1
 414 274 l 1
 197 274 l 1
 168 139 l 1
 524 139 l 1
 495 0 l 1
 -23 0 l 1
EndSplineSet
EndChar

StartChar: F
Encoding: 70 70 20
Width: 545
GlyphClass: 1
Flags: W
HStem: 0 21G<-23 142.307> 274 139<226 517> 529 139<251 571>
VStem: -23 161<0 161>
DStem2: -23 0 138 0 0.207912 0.978148<33.4738 313.753 455.745 574.408>
AnchorPoint: "Anchor-1" 350 668 basechar 0
LayerCount: 2
Fore
SplineSet
-23 0 m 1
 119 668 l 1
 600 668 l 1
 571 529 l 1
 251 529 l 1
 226 413 l 1
 546 413 l 1
 517 274 l 1
 197 274 l 1
 138 0 l 1
 -23 0 l 1
EndSplineSet
EndChar

StartChar: G
Encoding: 71 71 21
Width: 733
GlyphClass: 2
Flags: W
HStem: -12 129<261.416 407.6> 0 21G<508.378 621.286> 250 128<386 509> 550 130<320.502 481.737>
VStem: 31 168<183.512 399.096>
AnchorPoint: "Anchor-1" 440 668 basechar 0
AnchorPoint: "Anchor-0" 304 0 basechar 0
LayerCount: 2
Fore
SplineSet
199 278 m 0xb8
 199 226.963615345 214.07479229 117 344 117 c 0xb8
 392.296654231 117 486.454987144 140.593062326 505 231 c 2
 509 250 l 1
 359 250 l 1
 386 378 l 1
 698 378 l 1
 617 0 l 1
 510 0 l 1x78
 504 74 l 1
 448.666666667 16.6666666667 374.666666667 -12 282 -12 c 0
 165.157621637 -12 31 65.6841331412 31 261 c 0
 31 492.58027949 177.642659175 680 422 680 c 0
 517.056304463 680 628.34065373 652.086551961 677 535 c 1
 529 478 l 1
 528.050116092 480.469698161 500.415410656 550 400 550 c 0
 264.389564255 550 199 404.254656593 199 278 c 0xb8
EndSplineSet
EndChar

StartChar: H
Encoding: 72 72 22
Width: 695
GlyphClass: 1
Flags: W
HStem: 0 21G<-23 142.307 414 579.251> 274 139<226 472> 648 20G<114.749 279 551.765 717>
VStem: -23 161<0 161> 119 160<508 668> 414 161<0 161> 556 161<507 668>
DStem2: -23 0 138 0 0.207912 0.978148<33.4738 313.753 455.745 682.926> 414 0 575 0 0.207912 0.978148<33.4738 280.071 422.271 682.926>
AnchorPoint: "Anchor-1" 413 668 basechar 0
LayerCount: 2
Fore
SplineSet
-23 0 m 1xf4
 119 668 l 1
 279 668 l 1
 226 413 l 1
 502 413 l 1
 556 668 l 1
 717 668 l 1xea
 575 0 l 1
 414 0 l 1
 472 274 l 1
 197 274 l 1
 138 0 l 1
 -23 0 l 1xf4
EndSplineSet
EndChar

StartChar: I
Encoding: 73 73 23
Width: 459
GlyphClass: 2
Flags: W
HStem: 0 124<13 105 267 331> 544 124<129 195 355 447>
DStem2: 78.643 0 240.643 0 0.207912 0.978148<160.452 556.304>
AnchorPoint: "Anchor-2" 242 0 basechar 0
AnchorPoint: "Anchor-1" 301 668 basechar 0
AnchorPoint: "Anchor-0" 151 0 basechar 0
LayerCount: 2
Fore
SplineSet
-13 0 m 1
 13 124 l 1
 105 124 l 1
 195 544 l 1
 103 544 l 1
 129 668 l 1
 474 668 l 1
 447 544 l 1
 355 544 l 1
 267 124 l 1
 358 124 l 1
 331 0 l 1
 -13 0 l 1
EndSplineSet
EndChar

StartChar: J
Encoding: 74 74 24
Width: 566
GlyphClass: 1
Flags: W
HStem: -12 125<149.37 283.512> 648 20G<421.777 588>
VStem: 426 162<506 668>
DStem2: 282.035 -12 443.035 -12 0.207912 0.978148<155.164 695.072>
AnchorPoint: "Anchor-1" 507 668 basechar 0
LayerCount: 2
Fore
SplineSet
128 203 m 2
 128 178.317460317 128 113 212 113 c 0
 282.629525832 113 317.195525038 148.340404876 339 256 c 2
 426 668 l 1
 588 668 l 1
 500 256 l 2
 462.248234006 79.2530955748 384.407326046 -12 195 -12 c 0
 143.418856443 -12 52.8339426787 0.483608746533 2 80.5 c 0
 -16 108.833333333 -26 140.666666667 -28 176 c 1
 129 228 l 1
 128.333333333 223.333333333 128 219 128 215 c 2
 128 203 l 2
EndSplineSet
EndChar

StartChar: K
Encoding: 75 75 25
Width: 657
GlyphClass: 2
Flags: W
HStem: 0 21G<-23 142.264 400.819 577> 648 20G<114.749 279 478.521 715>
VStem: -23 161<0 161> 119 160<508 668> 501 214<454 668>
DStem2: -23 0 138 0 0.207912 0.978148<33.4738 234.901 469.085 682.926> 229 426 384 377 0.750574 0.660786<83.9605 364.066> 384 377 270 277 0.455693 -0.890137<37.0646 347.885>
AnchorPoint: "Anchor-1" 400 668 basechar 0
AnchorPoint: "Anchor-0" 265 0 basechar 0
LayerCount: 2
Fore
SplineSet
-23 0 m 1xe8
 119 668 l 1
 279 668 l 1xd8
 229 426 l 1
 501 668 l 1
 715 668 l 1
 384 377 l 1
 577 0 l 1
 411 0 l 1
 270 277 l 1
 180 197 l 1
 138 0 l 1
 -23 0 l 1xe8
EndSplineSet
EndChar

StartChar: L
Encoding: 76 76 26
Width: 543
GlyphClass: 2
Flags: W
HStem: 0 139<168 458> 648 20G<114.749 279>
VStem: 119 160<508 668>
DStem2: -23 0 138.455 0 0.207912 0.978148<175.674 682.926>
AnchorPoint: "Anchor-1" 216 668 basechar 0
AnchorPoint: "Anchor-0" 219 0 basechar 0
LayerCount: 2
Fore
SplineSet
-23 0 m 1
 119 668 l 1
 279 668 l 1
 168 139 l 1
 488 139 l 1
 458 0 l 1
 -23 0 l 1
EndSplineSet
EndChar

StartChar: M
Encoding: 77 77 27
Width: 858
GlyphClass: 1
Flags: W
HStem: 0 21G<-23 138.24 292.236 436.353 581 741.281> 648 20G<114.749 357.6 624.853 880>
VStem: -23 157<0 157> 581 156<0 156>
DStem2: -23 0 134 0 0.207912 0.978148<32.6421 577.489> 356 668 247 533 0.0878393 -0.996135<124.904 476.502> 394 193 426 0 0.459707 0.888071<0 417.592> 581 0 737 0 0.207912 0.978148<32.4342 521.518>
AnchorPoint: "Anchor-1" 487 668 basechar 0
LayerCount: 2
Fore
SplineSet
-23 0 m 1
 119 668 l 1
 356 668 l 1
 394 193 l 1
 635 668 l 1
 880 668 l 1
 737 0 l 1
 581 0 l 1
 690 510 l 1
 426 0 l 1
 294 0 l 1
 247 533 l 1
 134 0 l 1
 -23 0 l 1
EndSplineSet
EndChar

StartChar: N
Encoding: 78 78 28
Width: 715
GlyphClass: 2
Flags: W
HStem: 0 21G<-23 137.247 389.402 599.251> 648 20G<114.749 324.598 577.711 737>
VStem: -23 156<0 156> 582 155<513 668>
DStem2: -23 0 133 0 0.207912 0.978148<32.4342 528.251> 318 668 236 485 0.313289 -0.949658<148.098 510.71> 439.102 0 595 0 0.207912 0.978148<187.088 683.113>
AnchorPoint: "Anchor-1" 456 668 basechar 0
AnchorPoint: "Anchor-0" 285 0 basechar 0
LayerCount: 2
Fore
SplineSet
-23 0 m 1
 119 668 l 1
 318 668 l 1
 478 183 l 1
 582 668 l 1
 737 668 l 1
 595 0 l 1
 396 0 l 1
 236 485 l 1
 133 0 l 1
 -23 0 l 1
EndSplineSet
EndChar

StartChar: O
Encoding: 79 79 29
Width: 763
GlyphClass: 2
Flags: W
HStem: -12 130<270.546 437.285> 550 130<330.824 489.857>
VStem: 32 169<192.285 399.807> 564 168<266.836 476.448>
AnchorPoint: "Anchor-2" 636 10 basechar 0
AnchorPoint: "Anchor-1" 456 668 basechar 0
AnchorPoint: "Anchor-0" 329 0 basechar 0
LayerCount: 2
Fore
SplineSet
201 286 m 0
 201 206.653117414 240.970528892 118 349 118 c 0
 489.757042707 118 564 256.080109646 564 379 c 0
 564 518.315602069 467.167154565 550 414 550 c 0
 280.745818353 550 201 415.576242677 201 286 c 0
732 393 m 0
 732 161.539417838 564.578648693 -12 335 -12 c 0
 128.010617213 -12 32 117.317820138 32 269 c 0
 32 495.351752352 192.883600765 680 426 680 c 0
 508.37767784 680 626.730101747 658.750602261 693 550 c 0
 719 507.333333333 732 455 732 393 c 0
EndSplineSet
Substitution2: "Single Substitution lookup 12 subtable" ordmasculine
Substitution2: "'aalt' Access All Alternates lookup 0 subtable" ordmasculine
EndChar

StartChar: P
Encoding: 80 80 30
Width: 628
GlyphClass: 1
Flags: W
HStem: 0 21G<-23 142.224> 232 131<216 418.462> 535 133<252 446.856>
VStem: -23 161<0 161> 470 168<405.935 511.859>
DStem2: -23 0 138 0 0.207912 0.978148<33.4738 270.592 404.758 580.485>
AnchorPoint: "Anchor-1" 348 668 basechar 0
LayerCount: 2
Fore
SplineSet
319 363 m 2
 390.014248656 363 470 382.072107141 470 468 c 0
 470 512.666666667 431.666666667 535 355 535 c 2
 252 535 l 1
 216 363 l 1
 319 363 l 2
638 490 m 0
 638 373.958765615 581.328616153 232 304 232 c 2
 187 232 l 1
 138 0 l 1
 -23 0 l 1
 119 668 l 1
 379 668 l 2
 497.367533304 668 638 646.354197685 638 490 c 0
EndSplineSet
EndChar

StartChar: Q
Encoding: 81 81 31
Width: 774
GlyphClass: 1
Flags: W
HStem: 14 131<275.741 432.23> 576 130<334.616 496.946>
VStem: 37 169<218.761 424.297> 569 168<292.346 501.951>
DStem2: 421 363 330 285 0.645035 -0.764153<0.905746 158.137 307.518 444.054>
LayerCount: 2
Fore
SplineSet
206 311 m 0
 206 232.89764213 246.655640204 145 354 145 c 0
 382 145 408.333333333 150.666666667 433 162 c 1
 330 285 l 1
 421 363 l 1
 524 243 l 1
 535.387156299 261.978593832 569 324.792985805 569 405 c 0
 569 541.454639603 477.358285307 576 419 576 c 0
 285.215350865 576 206 440.982989377 206 311 c 0
737 420 m 0
 737 368.206157117 726.13849795 232.998113985 622 127 c 1
 709 25 l 1
 617 -55 l 1
 523 56 l 1
 483.994278635 36.4971393175 421.391899727 14 340 14 c 0
 133.349049146 14 37 145.282188607 37 295 c 0
 37 515.120790223 190.833989832 706 431 706 c 0
 507.894235411 706 630.484538139 686.79460408 698 576 c 0
 724 533.333333333 737 481.333333333 737 420 c 0
EndSplineSet
EndChar

StartChar: R
Encoding: 82 82 32
Width: 644
GlyphClass: 2
Flags: W
HStem: 0 21G<-23 142.286 380.841 557> 535 133<252 445.458>
VStem: -23 161<0 161> 463 167<413.756 515.926>
DStem2: -23 0 138 0 0.207912 0.978148<33.4738 291.194 426.131 580.485> 420 269 263 252 0.453827 -0.89109<0 226.542>
AnchorPoint: "Anchor-1" 380 668 basechar 0
AnchorPoint: "Anchor-0" 269 0 basechar 0
LayerCount: 2
Fore
SplineSet
463 473 m 0
 463 493.567901235 463 535 346 535 c 2
 252 535 l 1
 220 384 l 1
 323 384 l 2
 431.411604946 384 463 416.675219055 463 473 c 0
630 489 m 0
 630 421.784187823 617.63748878 298.352102294 420 269 c 1
 557 0 l 1
 391 0 l 1
 263 252 l 1
 192 252 l 1
 138 0 l 1
 -23 0 l 1
 119 668 l 1
 369 668 l 2
 450.333333333 668 514.166666667 654.5 560.5 627.5 c 0
 606.833333333 600.5 630 554.333333333 630 489 c 0
EndSplineSet
EndChar

StartChar: S
Encoding: 83 83 33
Width: 642
GlyphClass: 2
Flags: W
HStem: -12 126<225.574 396.461> 551 129<243.858 410.977>
VStem: 61 163<451.479 529.608> 424 164<141.456 218.592>
AnchorPoint: "Anchor-1" 370 668 basechar 0
AnchorPoint: "Anchor-0" 288 0 basechar 0
LayerCount: 2
Fore
SplineSet
588 206 m 0
 588 43.6968830552 425.609967827 -12 306 -12 c 0
 243.883972149 -12 70.6919355657 2.33345452611 10 157 c 1
 165 209 l 1
 185.612403998 123.973833507 282.757010077 114 313 114 c 0
 355.991650147 114 424 129.378001055 424 179 c 0
 424 299.185365466 61 247.224337626 61 475 c 0
 61 627.966614986 214.221933384 680 341 680 c 0
 408.504165953 680 539.930852571 662.419070042 606 535 c 1
 451 483 l 1
 426.520417713 548.906567695 339.909543377 551 329 551 c 0
 307.142635791 551 224 547.361353792 224 492 c 0
 224 364.576310982 588 433.220316002 588 206 c 0
EndSplineSet
EndChar

StartChar: T
Encoding: 84 84 34
Width: 617
GlyphClass: 2
Flags: W
HStem: 0 21G<158 323.197> 529 139<87 270 430 644>
VStem: 158 161<0 161>
DStem2: 158 0 319 0 0.207912 0.978148<33.4738 540.726>
AnchorPoint: "Anchor-1" 395 668 basechar 0
AnchorPoint: "Anchor-0" 253 0 basechar 0
LayerCount: 2
Fore
SplineSet
158 0 m 1
 270 529 l 1
 57 529 l 1
 87 668 l 1
 673 668 l 1
 644 529 l 1
 430 529 l 1
 319 0 l 1
 158 0 l 1
EndSplineSet
EndChar

StartChar: U
Encoding: 85 85 35
Width: 679
GlyphClass: 2
Flags: W
HStem: -12 129<214.582 379.032> 648 20G<115.691 281 535.733 701>
VStem: 26 162<142.407 333.414> 120 161<507 668> 540 161<507 668>
DStem2: -25.6172 -12 136.146 -12 0.207912 0.978148<256.355 695.416> 395.146 -12 556.383 -12 0.207912 0.978148<177.711 695.257>
AnchorPoint: "Anchor-2" 376 0 basechar 0
AnchorPoint: "Anchor-1" 414 668 basechar 0
AnchorPoint: "Anchor-0" 287 0 basechar 0
LayerCount: 2
Fore
SplineSet
188 204 m 0xe8
 188 118.828890508 259.766238973 117 294 117 c 0
 373.364148099 117 429.605014815 144.764572594 457 279 c 2
 540 668 l 1
 701 668 l 1
 621 292 l 2
 568.493346075 45.218726551 466.493811346 -12 266 -12 c 0
 123.680893357 -12 26 41.1315291296 26 187 c 0xe8
 26 200.704334849 26.3000131643 232.733394767 39 292 c 2
 120 668 l 1
 281 668 l 1xd8
 198 279 l 2
 188.772776344 230.557075808 188 218.470368791 188 204 c 0xe8
EndSplineSet
EndChar

StartChar: V
Encoding: 86 86 36
Width: 662
GlyphClass: 1
Flags: W
HStem: 0 21G<163.485 367.018> 648 20G<82 241.996 535.532 724>
VStem: 82 158<510 668>
DStem2: 240 668 82 668 0.124766 -0.992186<0 493.277> 289 177 356 0 0.482523 0.875883<0 554.067>
LayerCount: 2
Fore
SplineSet
166 0 m 1
 82 668 l 1
 240 668 l 1
 289 177 l 1
 546 668 l 1
 724 668 l 1
 356 0 l 1
 166 0 l 1
EndSplineSet
EndChar

StartChar: W
Encoding: 87 87 37
Width: 889
GlyphClass: 1
Flags: W
HStem: 0 21G<100.431 274.596 468 657.072> 648 20G<82 235 410.525 588 774.577 951>
VStem: 82 153<421.895 668> 468 120<205 470>
DStem2: 230 222 266 0 0.394863 0.91874<0 321.825>
AnchorPoint: "Anchor-1" 494 668 basechar 0
LayerCount: 2
Fore
SplineSet
101 0 m 1
 82 668 l 1
 235 668 l 1
 230 222 l 1
 419 668 l 1
 588 668 l 1
 588 205 l 1
 783 668 l 1
 951 668 l 1
 648 0 l 1
 468 0 l 1
 468 470 l 1
 266 0 l 1
 101 0 l 1
EndSplineSet
EndChar

StartChar: X
Encoding: 88 88 38
Width: 706
GlyphClass: 1
Flags: W
HStem: 0 21G<-60 169.286 438 621> 648 20G<115 296.052 539.571 768>
VStem: -60 211<0 211> 558 210<458 668>
DStem2: -60 0 151 0 0.679101 0.734045<143.29 427.827 650.302 910.026> 286 668 115 668 0.448284 -0.893891<0 213.768 434.954 669.741>
LayerCount: 2
Fore
SplineSet
-60 0 m 1
 270 356 l 1
 115 668 l 1
 286 668 l 1
 382 477 l 1
 558 668 l 1
 768 668 l 1
 456 331 l 1
 621 0 l 1
 448 0 l 1
 343 210 l 1
 151 0 l 1
 -60 0 l 1
EndSplineSet
EndChar

StartChar: Y
Encoding: 89 89 39
Width: 700
GlyphClass: 2
Flags: W
HStem: 0 21G<191 358.149> 648 20G<82 259.209 542.188 762>
VStem: 191 163<0 163> 558 204<464 668>
DStem2: 339 391 404 241 0.642476 0.766306<0 352.969>
AnchorPoint: "Anchor-1" 403 668 basechar 0
AnchorPoint: "Anchor-0" 297 0 basechar 0
LayerCount: 2
Fore
SplineSet
191 0 m 1
 242 241 l 1
 82 668 l 1
 253 668 l 1
 339 391 l 1
 558 668 l 1
 762 668 l 1
 404 241 l 1
 354 0 l 1
 191 0 l 1
EndSplineSet
EndChar

StartChar: Z
Encoding: 90 90 40
Width: 632
GlyphClass: 2
Flags: W
HStem: 0 139<221 530> 529 139<130 411>
DStem2: -12 121 221 139 0.719753 0.69423<180.199 587.701>
AnchorPoint: "Anchor-1" 407 668 basechar 0
AnchorPoint: "Anchor-0" 263 0 basechar 0
LayerCount: 2
Fore
SplineSet
-38 0 m 1
 -12 121 l 1
 411 529 l 1
 100 529 l 1
 130 668 l 1
 668 668 l 1
 642 547 l 1
 221 139 l 1
 560 139 l 1
 530 0 l 1
 -38 0 l 1
EndSplineSet
EndChar

StartChar: a
Encoding: 97 97 41
Width: 545
GlyphClass: 2
Flags: W
HStem: -12 103<94.2762 233.345> 0 21G<295.305 441> 407 103<201.309 334.835>
VStem: -18 161<102.152 181.275> 344 150<316.564 394.756>
AnchorPoint: "Anchor-2" 446 0 basechar 0
AnchorPoint: "Anchor-1" 298 496 basechar 0
AnchorPoint: "Anchor-0" 219 0 basechar 0
LayerCount: 2
Fore
SplineSet
143 138 m 0xb8
 143 104.377754515 178.082850486 91 208 91 c 0
 290.330041475 91 313.742953239 167.309633735 325 213 c 2
 328 225 l 1
 272 220.333333333 227.166666667 211.5 193.5 198.5 c 0
 159.833333333 185.5 143 165.333333333 143 138 c 0xb8
292 59 m 1
 255.500778473 14.986232864 214.611500982 -12 130 -12 c 0xb8
 58.5523708199 -12 -18 32.2751089467 -18 118 c 0
 -18 230.175341021 81.1281055434 289.733912021 338 315 c 1
 342.711870119 332.669512946 344 343.776762038 344 354 c 0
 344 369.686105896 342.372839733 407 272 407 c 0
 252.448929636 407 195.282951681 402.177753603 170 348 c 1
 53 394 l 1
 103.134485812 471.840385867 180.064859285 510 293 510 c 0
 391.329454033 510 494 470.025933807 494 353 c 0
 494 290.939109811 441 132.301980336 441 0 c 1
 297 0 l 1x78
 292 59 l 1
EndSplineSet
Substitution2: "Single Substitution lookup 12 subtable" ordfeminine
Substitution2: "'aalt' Access All Alternates lookup 0 subtable" ordfeminine
EndChar

StartChar: b
Encoding: 98 98 42
Width: 592
GlyphClass: 1
Flags: W
HStem: -12 117<206.929 330.235> 0 21G<-21 125.303> 392 118<287.106 415.345> 648 20G<116.749 276>
VStem: 121 155<513 668> 395 159<178.73 360.526>
DStem2: -23.5385 -12 131.775 -12 0.207912 0.978148<490.3 695.192>
AnchorPoint: "Anchor-0" 293 -12 basechar 0
AnchorPoint: "Anchor-1" 380 496 basechar 0
LayerCount: 2
Fore
SplineSet
175 208 m 0xbc
 175 109.630167608 251.58312656 105 266 105 c 0
 323.553384176 105 395 156.527533712 395 275 c 0
 395 315.969806065 384.908371165 392 310 392 c 0
 204.108728175 392 175 269.572057018 175 208 c 0xbc
554 303 m 0
 554 148.02771675 461.020655067 -12 293 -12 c 0xbc
 250.872154965 -12 190.660328675 1.19504428282 149 66 c 1
 115 0 l 1
 -21 0 l 1x7c
 121 668 l 1
 276 668 l 1
 227 436 l 1
 244.303656897 459.48353436 291.053013028 510 373 510 c 0
 457.689414632 510 554 454.41656284 554 303 c 0
EndSplineSet
EndChar

StartChar: c
Encoding: 99 99 43
Width: 531
GlyphClass: 2
Flags: W
HStem: -12 117<181.144 313.56> 392 118<231.859 361.117>
VStem: 2 154<129.52 298.537>
AnchorPoint: "Anchor-1" 318 496 basechar 0
AnchorPoint: "Anchor-0" 212 0 basechar 0
LayerCount: 2
Fore
SplineSet
464 107 m 1
 424.277520515 51.5540390516 350.862274861 -12 223 -12 c 0
 153 -12 98.6666666667 7.16666666667 60 45.5 c 0
 21.3333333333 83.8333333333 2 133.333333333 2 194 c 0
 2 373.771228351 132.21137986 510 316 510 c 0
 359.333333333 510 398.166666667 500.833333333 432.5 482.5 c 0
 466.833333333 464.166666667 493 430.666666667 511 382 c 1
 378 336 l 1
 374.753433208 350.84144819 365.75 392 299 392 c 0
 187.583043539 392 156 262.399144631 156 198 c 0
 156 164.666666667 164 140.833333333 180 126.5 c 0
 196 112.166666667 214.666666667 105 236 105 c 0
 295.190151284 105 321.244756412 129.091214606 341 154 c 1
 464 107 l 1
EndSplineSet
EndChar

StartChar: d
Encoding: 100 100 44
Width: 592
GlyphClass: 2
Flags: W
HStem: -12 117<135.862 271.819> 0 21G<337.413 488.333> 392 118<226.496 347.638> 648 20G<453.709 613>
VStem: 3 159<137.789 319.151>
DStem2: 312.963 -12 468.094 -12 0.207912 0.978148<442.673 695.295>
AnchorPoint: "Anchor-1" 266 496 basechar 0
AnchorPoint: "Anchor-0" 187 -12 basechar 0
LayerCount: 2
Fore
SplineSet
162 216 m 0xb8
 162 189.451456073 168.484920101 105 251 105 c 0
 343.354091341 105 382 216.482450977 382 289 c 0
 382 389.628357494 300.666907045 392 293 392 c 0
 185.732869074 392 162 276.022964256 162 216 c 0xb8
334 63 m 1
 305.35691388 26.0411792001 258.507988839 -12 187 -12 c 0
 84.7246907661 -12 3 56.9113355527 3 191 c 0
 3 358.89130815 102.708555278 510 266 510 c 0
 330.288604355 510 383.56006038 475.939845277 405 421 c 1
 458 668 l 1
 613 668 l 1
 607 641.5 l 2
 605.79062467 636.158592291 519.106985468 245.932032356 497 105 c 0xb8
 491.666666667 71 488.666666667 36 488 0 c 1
 339 0 l 1x78
 334 63 l 1
EndSplineSet
EndChar

StartChar: e
Encoding: 101 101 45
Width: 567
GlyphClass: 2
Flags: W
HStem: -12 118<180.668 338.822> 209 90<168 395.778> 399 111<227.433 368.969>
VStem: 3 149<132.917 206.37> 396 134<299.125 372.731>
AnchorPoint: "Anchor-2" 328 2 basechar 0
AnchorPoint: "Anchor-1" 321 496 basechar 0
AnchorPoint: "Anchor-0" 230 0 basechar 0
LayerCount: 2
Fore
SplineSet
396 313 m 2
 396 394.578927255 318.746901372 399 302 399 c 0
 283.41299853 399 193.582648758 390.366602706 168 299 c 1
 395 299 l 2
 395.666666667 301.666666667 396 304 396 306 c 2
 396 313 l 2
472 98 m 1
 439.270501808 57.6589906001 365.380490474 -12 229 -12 c 0
 169.264951545 -12 3 5.14204489995 3 196 c 0
 3 370.948205525 129.268685341 510 307 510 c 0
 378.333333333 510 433.333333333 490.833333333 472 452.5 c 0
 510.666666667 414.166666667 530 362.666666667 530 298 c 0
 530 266.80743665 526.234293776 237.937175106 519 209 c 1
 154 209 l 1
 152.45042466 199.702547959 152 193.621193245 152 188 c 0
 152 112.072275713 229.276999549 106 254 106 c 0
 264.559123266 106 323.581228264 107.581228264 358 142 c 1
 472 98 l 1
EndSplineSet
EndChar

StartChar: f
Encoding: 102 102 46
Width: 379
GlyphClass: 1
Flags: W
HStem: 0 21G<18 177.211> 380 116<43 99 278 360> 608 119<309.137 409>
VStem: 18 155<0 155>
DStem2: 18 0 173 0 0.207912 0.978148<32.2263 388.537 539.218 650.635>
AnchorPoint: "Anchor-1" 152 668 basechar 0
LayerCount: 2
Fore
SplineSet
18 0 m 1
 99 380 l 1
 19 380 l 1
 43 496 l 1
 124 496 l 1
 135 547 l 2
 166.44945765 688.522559425 198.026674228 727 366 727 c 2
 434 727 l 1
 409 608 l 1
 368 608 l 2
 306.921874569 608 301.247809085 600.115140884 285 527 c 2
 278 496 l 1
 385 496 l 1
 360 380 l 1
 253 380 l 1
 173 0 l 1
 18 0 l 1
EndSplineSet
EndChar

StartChar: g
Encoding: 103 103 47
Width: 594
GlyphClass: 2
Flags: W
HStem: -207 119<129.033 270.587> 17 114<145.823 271.367> 395 116<226.207 351.212> 476 20G<432.851 577>
VStem: 6 158<160.797 324.666>
AnchorPoint: "Anchor-1" 317 496 basechar 0
AnchorPoint: "Anchor-0" 191 -251 basechar 0
LayerCount: 2
Fore
SplineSet
164 234 m 0xe8
 164 158.267014535 207.807064987 131 247 131 c 0
 354.154756174 131 384 239.007125664 384 301 c 0
 384 322.970656559 377.764984349 395 296 395 c 0
 198.974503715 395 164 304.280265294 164 234 c 0xe8
262 511 m 0
 309.360456844 511 378.302240183 493.626862773 409 429 c 1
 443 496 l 1
 577 496 l 1xd8
 491.075630252 87 491.075630252 87 476 18 c 0
 460.966343724 -48.8162501173 420.300013599 -140.656891159 311 -184 c 0
 272.333333333 -199.333333333 233.333333333 -207 194 -207 c 0
 99.9243008787 -207 3.62658832578 -164.015314004 -22 -85 c 1
 112 -41 l 1
 122.637632974 -74.4325607768 163.45701829 -88 196 -88 c 0
 208.081981454 -88 300.42784236 -85.0035724377 319 6 c 2
 337 91 l 1
 313.315522423 62.7314299882 263.219275005 17 187 17 c 0
 104.64563818 17 6 77.6890223645 6 214 c 0
 6 364.30720137 109.240548723 511 262 511 c 0
EndSplineSet
EndChar

StartChar: h
Encoding: 104 104 48
Width: 580
GlyphClass: 1
Flags: W
HStem: 0 21G<-21 139.252 302 462.27> 392 118<292.856 427.882> 648 20G<116.749 272>
VStem: -21 156<0 156> 121 151<517 668> 302 156<0 156> 367 161<227.164 382.454>
DStem2: -21 0 135 0 0.207912 0.978148<32.4342 402.497 473.082 682.926> 302 0 458 0 0.207912 0.978148<32.4342 333.548>
AnchorPoint: "Anchor-1" 192 668 basechar 0
LayerCount: 2
Fore
SplineSet
367 328 m 0xe2
 367 361.298319307 357.690822342 392 311 392 c 0
 247.666666667 392 207 346 189 254 c 2
 135 0 l 1
 -21 0 l 1xf2
 121 668 l 1
 272 668 l 1
 222 432 l 1
 237.988739945 454.079688495 289.042026206 510 396 510 c 0
 459.764553497 510 528 482.730512898 528 366 c 0xea
 528 340.42532573 524.588743913 312.625970785 518 281 c 2
 458 0 l 1
 302 0 l 1xe4
 358 263 l 2
 364 289 367 310.666666667 367 328 c 0xe2
EndSplineSet
EndChar

StartChar: i
Encoding: 105 105 49
Width: 338
GlyphClass: 1
Flags: W
HStem: 0 21G<48 208.234> 380 116<51 129> 578 179<208.913 324.151>
VStem: 48 156<0 156> 177 179<609.56 726.206>
DStem2: 48 0 204 0 0.207912 0.978148<32.4342 388.537>
AnchorPoint: "Anchor-2" 204 0 basechar 0
LayerCount: 2
Fore
SplineSet
48 0 m 1xf0
 129 380 l 1
 26 380 l 1
 51 496 l 1
 309 496 l 1
 204 0 l 1
 48 0 l 1xf0
356 668 m 0xe8
 356 619.422774819 318.362728092 578 266 578 c 0
 215.703033972 578 177 618.654687529 177 668 c 0
 177 717.812374433 216.185366607 757 266 757 c 0
 317.878235599 757 356 717.060158458 356 668 c 0xe8
EndSplineSet
Substitution2: "Single Substitution lookup 4 subtable" dotlessi
Substitution2: "Single Substitution lookup 3 subtable" dotlessi
EndChar

StartChar: j
Encoding: 106 106 50
Width: 263
GlyphClass: 1
Flags: W
HStem: -162 120<-148 -24.6767> 476 20G<88.7549 249> 578 180<147.561 264.44>
VStem: 93 156<340 496> 116 180<609.048 726.352>
DStem2: -46.7239 -162 108.677 -162 0.207912 0.978148<126.426 672.671>
LayerCount: 2
Fore
SplineSet
-74 -162 m 0xf0
 -100.739205539 -162 -132.569691825 -161.801317747 -174 -160 c 1
 -148 -42 l 1
 -87 -42 l 2
 -28.2179520306 -42 -18.211998833 -27.99942307 -4 39 c 2
 93 496 l 1
 249 496 l 1
 148 23 l 2
 114.016157214 -136.462646918 69.4231954111 -162 -74 -162 c 0xf0
296 668 m 0xe8
 296 618.163127462 255.838543737 578 206 578 c 0
 156.163127462 578 116 618.161456263 116 668 c 0
 116 720.362944335 157.422997475 758 206 758 c 0
 254.577225181 758 296 720.362728092 296 668 c 0xe8
EndSplineSet
EndChar

StartChar: k
Encoding: 107 107 51
Width: 562
GlyphClass: 2
Flags: W
HStem: 0 21G<-21 139.194 313.674 487> 476 20G<366.107 586> 648 20G<116.749 276>
VStem: 121 155<513 668> 388 198<298 496>
DStem2: -21 0 135 0 0.207912 0.978148<32.4342 159.13 366.426 682.926> 203 327 342 283 0.752467 0.65863<75.6132 250.515> 342 283 229 184 0.455997 -0.889981<36.5804 243.657>
AnchorPoint: "Anchor-1" 397 796 basechar 0
AnchorPoint: "Anchor-0" 218 0 basechar 0
LayerCount: 2
Fore
SplineSet
-21 0 m 1
 121 668 l 1
 276 668 l 1
 203 327 l 1
 388 496 l 1
 586 496 l 1
 342 283 l 1
 487 0 l 1
 324 0 l 1
 229 184 l 1
 161 124 l 1
 135 0 l 1
 -21 0 l 1
EndSplineSet
EndChar

StartChar: l
Encoding: 108 108 52
Width: 317
GlyphClass: 2
Flags: W
HStem: 0 124<174.249 244> 648 20G<116.758 277>
VStem: 4 168<80.6667 216.375> 121 156<512 668>
DStem2: -20.7579 0 135.638 0 0.207912 0.978148<196.022 682.876>
AnchorPoint: "Anchor-1" 198 668 basechar 0
AnchorPoint: "Anchor-0" 108 0 basechar 0
LayerCount: 2
Fore
SplineSet
172 159 m 0xe0
 172 128.104996948 198.845181059 124 227 124 c 2
 270 124 l 1
 244 0 l 1
 147 0 l 2
 103 0 68.1666666667 7.33333333333 42.5 22 c 0
 16.8333333333 36.6666666667 4 62.3333333333 4 99 c 0xe0
 4 110.068589783 5.90459905958 122.975294828 9 140 c 2
 121 668 l 1
 277 668 l 1xd0
 179 204 l 2
 173.574215183 180.488265792 172 168.104724563 172 159 c 0xe0
EndSplineSet
EndChar

StartChar: m
Encoding: 109 109 53
Width: 895
GlyphClass: 1
Flags: W
HStem: 0 21G<-20 140.264 298 458.215 617 777.276> 392 118<295.338 415.957 601.016 740.603> 476 20G<80.7661 222.562>
VStem: -20 156<0 156> 298 156<0 156> 617 156<0 156> 684 161<234.93 384.936>
DStem2: -20 0 136 0 0.207912 0.978148<32.4342 400.94> 298 0 454 0 0.207912 0.978148<32.4342 337.49> 617 0 773 0 0.207912 0.978148<32.4342 343.823>
AnchorPoint: "Anchor-1" 514 496 basechar 0
LayerCount: 2
Fore
SplineSet
363 332 m 0xda
 363 360.937004112 357.71259312 392 309 392 c 0xda
 280.935791699 392 218.316565144 384.826909599 191 258 c 2
 136 0 l 1
 -20 0 l 1
 85 496 l 1
 221 496 l 1xba
 226 432 l 1
 252.868953148 464.71002992 304.434471072 510 384 510 c 0
 447.913708973 510 501.004978169 492.985065492 523 427 c 1
 539.310209339 446.934700303 591.660263078 510 701 510 c 0
 780.205891167 510 845 477.230119016 845 370 c 0xda
 845 350.917355646 842.90566928 324.784944833 835 290 c 2
 773 0 l 1
 617 0 l 1xdc
 673 263 l 2
 681.068046436 300.113013605 684 322.396269767 684 338 c 0
 684 372.539439817 670.523565774 392 628 392 c 0
 567.333333333 392 527.666666667 348.333333333 509 261 c 2
 454 0 l 1
 298 0 l 1
 354 263 l 2
 360 292.333333333 363 315.333333333 363 332 c 0xda
EndSplineSet
EndChar

StartChar: n
Encoding: 110 110 54
Width: 579
GlyphClass: 2
Flags: W
HStem: 0 21G<-20 140.252 303 463.27> 392 118<295.138 428.882> 476 20G<80.7661 222.562>
VStem: -20 156<0 156> 303 156<0 156> 368 161<227.164 382.454>
DStem2: -20 0 136 0 0.207912 0.978148<32.4342 400.17> 303 0 459 0 0.207912 0.978148<32.4342 333.548>
AnchorPoint: "Anchor-1" 344 496 basechar 0
AnchorPoint: "Anchor-0" 218 0 basechar 0
LayerCount: 2
Fore
SplineSet
368 328 m 0xd4
 368 361.298319307 358.690822342 392 312 392 c 0xd4
 250 392 209.333333333 346 190 254 c 2
 136 0 l 1
 -20 0 l 1
 85 496 l 1
 221 496 l 1xb4
 226 432 l 1
 246.287778827 460.016456475 296.557929909 510 397 510 c 0
 460.764553497 510 529 482.730512898 529 366 c 0xd4
 529 340.42532573 525.588743913 312.625970785 519 281 c 2
 459 0 l 1
 303 0 l 1xd8
 359 263 l 2
 365 289 368 310.666666667 368 328 c 0xd4
EndSplineSet
EndChar

StartChar: o
Encoding: 111 111 55
Width: 576
GlyphClass: 2
Flags: W
HStem: -13 118<186.968 314.574> 392 118<227.969 355.962>
VStem: 5 154<132.477 312.229> 381 155<184.386 364.806>
AnchorPoint: "Anchor-2" 467 10 basechar 0
AnchorPoint: "Anchor-1" 317 496 basechar 0
AnchorPoint: "Anchor-0" 235 0 basechar 0
LayerCount: 2
Fore
SplineSet
159 206 m 0
 159 159.983985728 173.880014017 105 245 105 c 0
 350.331023628 105 381 216.80052582 381 292 c 0
 381 316.438202247 381 392 292 392 c 0
 184.98811451 392 159 272.347871817 159 206 c 0
536 295 m 0
 536 129.74198795 432.296260769 -13 239 -13 c 0
 99.869558333 -13 5 68.7145165064 5 204 c 0
 5 378.76744864 121.72389817 510 302 510 c 0
 343.514715557 510 536 499.000278389 536 295 c 0
EndSplineSet
Substitution2: "Single Substitution lookup 12 subtable" ordmasculine
Substitution2: "'aalt' Access All Alternates lookup 0 subtable" ordmasculine
EndChar

StartChar: p
Encoding: 112 112 56
Width: 590
GlyphClass: 1
Flags: W
HStem: -161 21G<-55 105.242> -13 118<207.58 326.944> 392 118<289.196 429.014> 476 20G<80.7382 220.765>
VStem: -55 156<-161 -5> 394 158<178.757 360.097>
DStem2: -55 -161 101 -161 0.207912 0.978148<32.4342 268.574>
AnchorPoint: "Anchor-1" 373 496 basechar 0
LayerCount: 2
Fore
SplineSet
308 392 m 0xec
 211.835803838 392 174 285.576730009 174 210 c 0
 174 175.333333333 182.5 149.166666667 199.5 131.5 c 0
 216.5 113.833333333 237 105 261 105 c 0
 365.631990078 105 394 212.689842525 394 282 c 0
 394 318.688313454 384.437201425 392 308 392 c 0xec
287 -13 m 0
 254.660236015 -13 190.686099577 -2.89592840895 150 70 c 1
 101 -161 l 1
 -55 -161 l 1
 85 496 l 1
 219 496 l 1xdc
 225 428 l 1
 238.18134079 450.306884413 282.217079955 510 376 510 c 0
 482.028054771 510 552 426.760262648 552 305 c 0
 552 142.525958936 453.450178646 -13 287 -13 c 0
EndSplineSet
EndChar

StartChar: q
Encoding: 113 113 57
Width: 601
GlyphClass: 1
Flags: W
HStem: -173 139<435.159 579.609> -12 118<126.948 269.039> 393 117<225.168 347.899> 476 20G<429.565 575>
VStem: 308 165<-103.125 54.9548>
LayerCount: 2
Fore
SplineSet
250 106 m 0xe8
 254.547756972 106 371.288321532 107.670323453 380 279 c 0
 382.666666667 317 375.166666667 345.5 357.5 364.5 c 0
 339.833333333 383.5 317.666666667 393 291 393 c 0
 145.971539002 393 141.843757445 181.110961184 185.5 133 c 0
 201.833333333 115 223.333333333 106 250 106 c 0xe8
326 56 m 1
 303.102921118 28.1964042146 257.175364005 -12 183 -12 c 0
 70.8960186081 -12 4 72.5635910229 4 196 c 0
 4 356.72865838 103.161157207 510 263 510 c 0xe8
 299.164611425 510 366.944980811 499.498950587 404 427 c 1
 440 496 l 1
 575 496 l 1xd8
 552.541081351 389.564255097 477.304423828 37.9656582038 475.5 27.5 c 0
 473.833333333 17.8333333333 473 9.33333333333 473 2 c 0
 473 -31.6849716681 500.867634984 -34 520 -34 c 0
 541.333333333 -34 570.666666667 -29.6666666667 608 -21 c 1
 580 -151 l 1
 564.963934594 -157.265027252 521.324171686 -173 462 -173 c 0
 408.31837887 -173 308 -158.25062958 308 -48 c 0
 308 -31.3333333333 309.666666667 -16.5 313 -3.5 c 0
 316.333333333 9.5 320.666666667 29.3333333333 326 56 c 1
EndSplineSet
EndChar

StartChar: r
Encoding: 114 114 58
Width: 391
GlyphClass: 2
Flags: W
HStem: 0 21G<-20 140.242> 361 149<288.744 371.859> 476 20G<80.7661 209.609>
VStem: -20 156<0 156>
DStem2: -20 0 136 0 0.207912 0.978148<32.4342 366.591>
AnchorPoint: "Anchor-1" 249 496 basechar 0
AnchorPoint: "Anchor-0" 57 0 basechar 0
LayerCount: 2
Fore
SplineSet
215 409 m 1xb0
 267.528381259 501.934828381 328.330797882 509.251243044 377 510 c 2
 403 510 l 1
 371 358 l 1
 354.333333333 360 339 361 325 361 c 0xd0
 276.529854164 361 210.267244308 351.505319009 185 231 c 2
 136 0 l 1
 -20 0 l 1
 85 496 l 1
 208 496 l 1
 215 409 l 1xb0
EndSplineSet
EndChar

StartChar: s
Encoding: 115 115 59
Width: 515
GlyphClass: 2
Flags: W
HStem: -13 109<149.843 293.729> 399 111<179.572 322.905>
VStem: 30 144<331.198 390.045> 306 148<110.763 166.501>
AnchorPoint: "Anchor-1" 274 496 basechar 0
AnchorPoint: "Anchor-0" 215 0 basechar 0
LayerCount: 2
Fore
SplineSet
454 156 m 0
 454 56.2435865469 372.807777197 -13 229 -13 c 0
 117.790862785 -13 31.822506757 23.9904851347 -10 116 c 1
 120 160 l 1
 134.263827624 99.3787325969 207.791593734 96 224 96 c 0
 262.164857167 96 306 111.053028325 306 139 c 0
 306 213.974663297 30 174.552510616 30 357 c 0
 30 447.361047079 124.976979269 510 243 510 c 0
 291 510 335.166666667 502 375.5 486 c 0
 415.833333333 470 447.666666667 441.333333333 471 400 c 1
 339 355 l 1
 334.368397152 367.042167405 322.076923077 399 241 399 c 0
 174.050858703 399 174 362.765375725 174 362 c 0
 174 281.046416447 454 325.15993276 454 156 c 0
EndSplineSet
EndChar

StartChar: t
Encoding: 116 116 60
Width: 391
GlyphClass: 2
Flags: W
HStem: 0 124<219.564 289> 380 116<53 106 286 370>
VStem: 50 167<79.6667 218.477>
DStem2: 25.1165 0 180.426 0 0.207912 0.978148<196.819 388.513 539.402 633.872>
AnchorPoint: "Anchor-1" 230 620 basechar 0
AnchorPoint: "Anchor-0" 143 0 basechar 0
LayerCount: 2
Fore
SplineSet
217 160 m 0
 217 126.680071406 248.133932684 124 272 124 c 2
 315 124 l 1
 289 0 l 1
 193 0 l 2
 149.666666667 0 115 7.16666666667 89 21.5 c 0
 63 35.8333333333 50 61.3333333333 50 98 c 0
 50 110 52.3333333333 127.333333333 57 150 c 2
 106 380 l 1
 28 380 l 1
 53 496 l 1
 131 496 l 1
 157 620 l 1
 312 620 l 1
 286 496 l 1
 394 496 l 1
 370 380 l 1
 261 380 l 1
 224 205 l 2
 218.574215183 181.488265792 217 169.104724563 217 160 c 0
EndSplineSet
EndChar

StartChar: u
Encoding: 117 117 61
Width: 578
GlyphClass: 2
Flags: W
HStem: -12 118<117.42 255.466> 0 21G<319.438 460.234> 476 20G<81.7246 241 401.725 561>
VStem: 17 162<117.065 275.922> 86 155<341 496> 406 155<341 496>
DStem2: -22.3131 -12 133.499 -12 0.207912 0.978148<225.521 519.419> 297.711 -12 453.449 -12 0.207912 0.978148<151.967 519.414>
AnchorPoint: "Anchor-2" 456 0 basechar 0
AnchorPoint: "Anchor-1" 322 496 basechar 0
AnchorPoint: "Anchor-0" 236 0 basechar 0
LayerCount: 2
Fore
SplineSet
316 64 m 1x74
 300.087982252 38.2376855504 256.552608497 -12 159 -12 c 0
 75.8406295872 -12 17 26.116132657 17 134 c 0xb4
 17 160.951222824 20.7887411592 187.390891086 27 220 c 2
 86 496 l 1
 241 496 l 1xac
 186 235 l 2
 181.099111063 210.495555314 179 191.358130042 179 175 c 0
 179 139.461780486 189.910178393 106 231 106 c 0xb4
 261.862187572 106 326.572908369 120.211269221 350 234 c 2
 406 496 l 1
 561 496 l 1
 456 0 l 1
 321 0 l 1
 316 64 l 1x74
EndSplineSet
EndChar

StartChar: v
Encoding: 118 118 62
Width: 533
GlyphClass: 1
Flags: W
HStem: 0 21G<104.097 296.411> 476 20G<35 187.947 387.44 568>
VStem: 35 151<345 496>
DStem2: 219 157 285 0 0.495573 0.868566<0 383.152>
LayerCount: 2
Fore
SplineSet
107 0 m 1
 35 496 l 1
 186 496 l 1
 219 157 l 1
 398 496 l 1
 568 496 l 1
 285 0 l 1
 107 0 l 1
EndSplineSet
EndChar

StartChar: w
Encoding: 119 119 63
Width: 727
GlyphClass: 1
Flags: W
HStem: 0 21G<53.2339 222.315 359 542.234> 476 20G<35 181.249 305.025 463 595.157 762>
VStem: 35 146<313.263 496> 359 96<159 356> 362 101<201.125 356>
DStem2: 185 175 214 0 0.383879 0.923384<0 235.079> 455 159 533 0 0.419174 0.907906<0 368.421>
LayerCount: 2
Fore
SplineSet
54 0 m 1xe8
 35 496 l 1
 181 496 l 1
 185 175 l 1
 313 496 l 1
 463 496 l 1xe8
 455 159 l 1
 604 496 l 1
 762 496 l 1
 533 0 l 1
 359 0 l 1xf0
 362 356 l 1
 214 0 l 1
 54 0 l 1xe8
EndSplineSet
EndChar

StartChar: x
Encoding: 120 120 64
Width: 536
GlyphClass: 1
Flags: W
HStem: 0 21G<-71 131.298 302.929 464> 476 20G<66 226 368.5 571>
VStem: -71 184<0 184>
DStem2: -71 0 113 0 0.678403 0.73469<124.826 315.931 511.649 675.115> 216 496 66 496 0.447214 -0.894427<0 134.164 329.149 487.016>
LayerCount: 2
Fore
SplineSet
-71 0 m 1
 179 270 l 1
 66 496 l 1
 216 496 l 1
 276 376 l 1
 387 496 l 1
 571 496 l 1
 340 246 l 1
 464 0 l 1
 313 0 l 1
 242 141 l 1
 113 0 l 1
 -71 0 l 1
EndSplineSet
EndChar

StartChar: y
Encoding: 121 121 65
Width: 527
GlyphClass: 2
Flags: W
HStem: -161 110<-21 101.704> 476 20G<35 191.899 375.494 562>
AnchorPoint: "Anchor-1" 302 496 basechar 0
AnchorPoint: "Anchor-0" 211 0 basechar 0
LayerCount: 2
Fore
SplineSet
-44 -161 m 1
 -21 -51 l 1
 10 -51 l 2
 90.0400806596 -51 101.377444287 -41.425395394 121 0 c 1
 35 496 l 1
 190 496 l 1
 220 180 l 1
 386 496 l 1
 562 496 l 1
 266 0 l 2
 177.979358411 -149.368361484 156.070709537 -161 5 -161 c 2
 -44 -161 l 1
EndSplineSet
EndChar

StartChar: z
Encoding: 122 122 66
Width: 528
GlyphClass: 2
Flags: W
HStem: 0 121<203 437> 375 121<91 296>
DStem2: -14 121 203 121 0.773512 0.633781<167.852 400.769>
AnchorPoint: "Anchor-1" 317 496 basechar 0
AnchorPoint: "Anchor-0" 211 0 basechar 0
LayerCount: 2
Fore
SplineSet
-40 0 m 1
 -14 121 l 1
 296 375 l 1
 65 375 l 1
 91 496 l 1
 539 496 l 1
 513 375 l 1
 203 121 l 1
 462 121 l 1
 437 0 l 1
 -40 0 l 1
EndSplineSet
EndChar

StartChar: circumflex
Encoding: 258 710 67
Width: 480
GlyphClass: 1
Flags: W
HStem: 574 152
LayerCount: 2
Fore
SplineSet
89 574 m 1
 278 711 l 2
 291.333333333 721 306 726 322 726 c 0
 344 726 362.333333333 717.666666667 377 701 c 2
 495 574 l 1
 379 574 l 1
 320 635 l 1
 236 574 l 1
 89 574 l 1
EndSplineSet
EndChar

StartChar: caron
Encoding: 259 711 68
Width: 476
GlyphClass: 1
Flags: W
HStem: 568 152
LayerCount: 2
Fore
SplineSet
288 568 m 0
 266.666666667 568 248.666666667 576.333333333 234 593 c 2
 120 720 l 1
 235 720 l 1
 291 659 l 1
 375 720 l 1
 522 720 l 1
 332 583 l 2
 319.333333333 573 304.666666667 568 288 568 c 0
EndSplineSet
EndChar

StartChar: breve
Encoding: 260 728 69
Width: 385
GlyphClass: 1
Flags: W
HStem: 577 74<237.456 331.54>
VStem: 136 299
LayerCount: 2
Fore
SplineSet
435 688 m 1
 428.907605026 667.982130799 394.793668802 577 278 577 c 0
 196.126998096 577 142.468750583 624.606244288 136 688 c 1
 229 688 l 1
 234.337876893 666.64849243 256.293475619 651 282 651 c 0
 286.32545347 651 327.483175688 651.955135168 341 688 c 1
 435 688 l 1
EndSplineSet
EndChar

StartChar: dotaccent
Encoding: 261 729 70
Width: 204
GlyphClass: 1
Flags: W
HStem: 578 141<119.848 219.643>
VStem: 99 141<598.357 698.153>
LayerCount: 2
Fore
SplineSet
240 648 m 0
 240 608.950736421 209.048669951 578 170 578 c 0
 131.405028413 578 99 608.484045263 99 648 c 0
 99 687.073399182 130.927716604 719 170 719 c 0
 209.516888295 719 240 686.594010882 240 648 c 0
EndSplineSet
EndChar

StartChar: ring
Encoding: 262 730 71
Width: 301
GlyphClass: 1
Flags: W
HStem: 535 86<183.993 260.59> 715 85<183.158 261.432>
VStem: 90 85<628.828 706.397> 269 86<628.966 707.859>
LayerCount: 2
Fore
SplineSet
175 668 m 0
 175 642.388899038 196.389916739 621 222 621 c 0
 250.102019455 621 269 643.634573622 269 668 c 0
 269 694.898218397 248.897956521 715 222 715 c 0
 197.635032169 715 175 696.102453394 175 668 c 0
355 668 m 0
 355 598.068546448 298.936868739 535 222 535 c 0
 148.05674811 535 90 596.471740858 90 668 c 0
 90 744.064451508 152.850487985 800 222 800 c 0
 294.069094182 800 355 742.616398771 355 668 c 0
EndSplineSet
EndChar

StartChar: ogonek
Encoding: 263 731 72
Width: 296
GlyphClass: 1
Flags: W
HStem: -173 76<56.3557 154.769> -20 20G<13.2646 183>
VStem: -52 128<-131.297 -44.8491>
LayerCount: 2
Fore
SplineSet
76 -75 m 0
 76 -80.354005168 76 -97 119 -97 c 0
 132.719685283 -97 149.349595846 -93.9001154725 170 -88 c 1
 154 -164 l 1
 141.812012316 -166.812612543 103.424843052 -173 73 -173 c 0
 39.7113445614 -173 -52 -166.594121842 -52 -96 c 0
 -52 -55.8684305272 -12.4708069112 -13.5449491872 39 0 c 1
 183 0 l 1
 84.1558357557 -45.8058322108 76 -57.6974455089 76 -75 c 0
EndSplineSet
EndChar

StartChar: quoteleft
Encoding: 264 8216 73
Width: 281
GlyphClass: 1
Flags: W
HStem: 340 328<193 202.532>
VStem: 67 194<375.913 496.438> 193 99<569 668>
DStem2: 81 488 203 526 0.528302 0.849057<96.717 212>
LayerCount: 2
Fore
SplineSet
261 438 m 0xc0
 261 375.842528809 211.195778273 340 162 340 c 0
 104.077449033 340 67 387.12528761 67 438 c 0xc0
 67 456 71.6666666667 472.666666667 81 488 c 2
 193 668 l 1
 292 668 l 1xa0
 203 526 l 1
 210.126864071 522.984788278 261 499.313899212 261 438 c 0xc0
EndSplineSet
EndChar

StartChar: quoteright
Encoding: 265 8217 74
Width: 282
GlyphClass: 1
Flags: W
HStem: 351 329<155.5 165>
VStem: 66 99<351 450> 97 196<522.562 642.478>
DStem2: 66 351 165 351 0.53169 0.846939<52.6373 167.586>
LayerCount: 2
Fore
SplineSet
195 680 m 0xa0
 252.637261172 680 293 632.779038835 293 584 c 0xa0
 293 583.449182426 292.904575518 554.421475813 278 531 c 2
 165 351 l 1
 66 351 l 1xc0
 155 493 l 1
 127.418679941 506.239033628 97 537.50050887 97 582 c 0
 97 644.734688614 147.729209712 680 195 680 c 0xa0
EndSplineSet
EndChar

StartChar: quotesinglbase
Encoding: 266 8218 75
Width: 282
GlyphClass: 1
Flags: W
HStem: -145 329<50.9159 59>
VStem: -40 99<-145 -46> -9 196<26.5625 147.16>
DStem2: -40 -145 59 -145 0.53169 0.846939<52.6373 167.586>
LayerCount: 2
Fore
SplineSet
89 184 m 0xa0
 146.637261172 184 187 136.779038835 187 88 c 0xa0
 187 87.4491824258 186.904575518 58.4214758133 172 35 c 2
 59 -145 l 1
 -40 -145 l 1xc0
 49 -3 l 1
 21.4186799412 10.2390336282 -9 41.5005088704 -9 86 c 0
 -9 146.000371737 40.1033432632 184 89 184 c 0xa0
EndSplineSet
EndChar

StartChar: quotedblleft
Encoding: 267 8220 76
Width: 505
GlyphClass: 1
Flags: W
HStem: 340 328<193 202.532 417 426.639>
VStem: 67 194<375.913 498.282> 193 99<569 668> 291 194<375.34 496.438> 417 99<569 668>
DStem2: 92 506 203 526 0.529057 0.848586<75.697 190.906> 305 488 427 526 0.528302 0.849057<96.717 212>
LayerCount: 2
Fore
SplineSet
485 436 m 0x90
 485 375.481737605 435.441979529 340 386 340 c 0
 324.91433986 340 291 390.489697126 291 429 c 0x90
 291 448.571427756 293.276173568 469.576844178 305 488 c 2
 417 668 l 1
 516 668 l 1x88
 427 526 l 1
 434.49823669 522.539275374 485 496.967624709 485 436 c 0x90
261 438 m 0xc0
 261 375.842528809 211.195778273 340 162 340 c 0
 108.176201104 340 67 381.17977513 67 435 c 0xc0
 67 456.984479841 72.0736247012 473.263812009 92 506 c 2
 193 668 l 1
 292 668 l 1xa0
 203 526 l 1
 210.126864071 522.984788278 261 499.313899212 261 438 c 0xc0
EndSplineSet
EndChar

StartChar: quotedblright
Encoding: 268 8221 77
Width: 505
GlyphClass: 1
Flags: W
HStem: 350 328<155.361 165 380.315 389>
VStem: 66 99<350 449> 97 194<521.562 642.66> 290 99<350 449> 321 194<519.446 642.224>
DStem2: 66 350 165 350 0.528302 0.849057<52.3019 167.585> 290 350 389 350 0.529057 0.848586<52.3766 167.585>
LayerCount: 2
Fore
SplineSet
196 678 m 0xa0
 257.08566014 678 291 627.510302874 291 589 c 0xa0
 291 569.756816499 288.395268747 547.906850889 277 530 c 2
 165 350 l 1
 66 350 l 1xc0
 155 492 l 1
 147.50176331 495.460724626 97 521.032375291 97 582 c 0
 97 642.518262395 146.558020471 678 196 678 c 0xa0
420 678 m 0
 473.823798896 678 515 636.82022487 515 583 c 0x88
 515 561.015520159 509.926375299 544.736187991 490 512 c 2
 389 350 l 1
 290 350 l 1x90
 379 492 l 1
 343.359598808 507.078631273 321 543.251716927 321 580 c 0x88
 321 645.116396705 372.746325174 678 420 678 c 0
EndSplineSet
EndChar

StartChar: dagger
Encoding: 270 8224 79
Width: 594
GlyphClass: 1
Flags: W
HStem: 1 21G<155 304.222> 380 116<77 236 405 564> 648 20G<292.698 442>
VStem: 155 145<1 146> 297 145<523 668>
DStem2: 155 1 300 1 0.207912 0.978148<30.1472 387.559 536.161 681.948>
LayerCount: 2
Fore
SplineSet
155 1 m 1xf0
 236 380 l 1
 52 380 l 1
 77 496 l 1
 260 496 l 1
 297 668 l 1
 442 668 l 1xe8
 405 496 l 1
 588 496 l 1
 564 380 l 1
 380 380 l 1
 300 1 l 1
 155 1 l 1xf0
EndSplineSet
EndChar

StartChar: daggerdbl
Encoding: 271 8225 80
Width: 595
GlyphClass: 1
Flags: W
HStem: 1 21G<155 305.07> 173 115<33 192 361 520> 380 116<77 236 405 564> 648 20G<292.698 442>
VStem: 155 146<1 147> 297 145<523 668>
DStem2: 155 1 301 1 0.207912 0.978148<30.3551 175.934 323.558 387.559 536.161 681.948>
LayerCount: 2
Fore
SplineSet
155 1 m 1xf8
 192 173 l 1
 8 173 l 1
 33 288 l 1
 216 288 l 1
 236 380 l 1
 52 380 l 1
 77 496 l 1
 260 496 l 1
 297 668 l 1
 442 668 l 1xf4
 405 496 l 1
 589 496 l 1
 564 380 l 1
 381 380 l 1
 361 288 l 1
 544 288 l 1
 520 173 l 1
 336 173 l 1
 301 1 l 1
 155 1 l 1xf8
EndSplineSet
EndChar

StartChar: bullet
Encoding: 272 8226 81
Width: 446
GlyphClass: 1
Flags: W
HStem: 88 332<126.402 287.601>
VStem: 41 332<172.99 336.703>
LayerCount: 2
Fore
SplineSet
373 254 m 0
 373 165.960909681 302.00916374 88 207 88 c 0
 111.99711584 88 41 165.954445585 41 254 c 0
 41 345.848707828 115.143062089 420 207 420 c 0
 298.848707828 420 373 345.856937911 373 254 c 0
EndSplineSet
EndChar

StartChar: ellipsis
Encoding: 273 8230 82
Width: 807
GlyphClass: 1
Flags: W
HStem: -12 196<29.1049 148.706 291.477 411.952 555.105 675.785>
VStem: -9 195<25.7924 147.26> 255 194<24.2613 146.952> 517 195<25.5933 146.721>
LayerCount: 2
Fore
SplineSet
449 86 m 0
 449 33.3170454137 407.376381702 -12 351 -12 c 0
 296.207140337 -12 255 33.0829325048 255 86 c 0
 255 141.415362653 297.380854334 184 351 184 c 0
 406.183830022 184 449 141.182838615 449 86 c 0
186 86 m 0
 186 32.5766204719 143.335524696 -12 89 -12 c 0
 35.1036977235 -12 -9 32.1059275816 -9 86 c 0
 -9 142.37483354 36.3154563163 184 89 184 c 0
 142.14483005 184 186 141.910478683 186 86 c 0
712 86 m 0
 712 33.8670423077 671.862576174 -12 615 -12 c 0
 561.103697723 -12 517 32.1059275816 517 86 c 0
 517 142.37483354 562.315456316 184 615 184 c 0
 670.694825514 184 712 140.637087912 712 86 c 0
EndSplineSet
EndChar

StartChar: perthousand
Encoding: 274 8240 83
Width: 1472
GlyphClass: 1
Flags: W
HStem: -12 119<730.653 838.154 1159.65 1267.15> 0 21G<226 366.012> 263 119<741.751 848.88 1170.75 1277.88> 286 119<195.117 303.213> 561 119<206.86 313.348> 648 20G<679.018 820>
VStem: 56 119<424.881 527.994> 226 126<0 126> 334 119<437.193 541.011> 592 119<126.83 230.808> 693 127<541 668> 869 119<138.811 242.84> 1021 119<126.83 230.808> 1298 119<138.811 242.84>
DStem2: 226 0 352 0 0.573791 0.819001<72.2977 815.054>
LayerCount: 2
Fore
SplineSet
1140 177 m 0xa21c
 1140 137.554157416 1168.47099632 107 1211 107 c 0
 1254.95805483 107 1298 143.025053208 1298 192 c 0
 1298 230.860850608 1270.10340088 263 1227 263 c 0
 1182.56281977 263 1140 225.570385569 1140 177 c 0xa21c
711 177 m 0xa25c
 711 137.554157416 739.470996319 107 782 107 c 0
 825.958054831 107 869 143.025053208 869 192 c 0
 869 230.860850608 841.103400879 263 798 263 c 0
 753.562819771 263 711 225.570385569 711 177 c 0xa25c
1417 205 m 0
 1417 85.3232706675 1314.28397459 -12 1198 -12 c 0
 1095.28574668 -12 1021 65.2364652324 1021 165 c 0
 1021 284.676729333 1123.71602541 382 1240 382 c 0
 1342.71425332 382 1417 304.763534768 1417 205 c 0
988 205 m 0
 988 85.3232706675 885.283974589 -12 769 -12 c 0
 666.285746683 -12 592 65.2364652324 592 165 c 0
 592 284.676729333 694.716025411 382 811 382 c 0
 913.714253317 382 988 304.763534768 988 205 c 0
175 474 m 0
 175 432.492007116 206.903169186 405 246 405 c 0
 291.636595943 405 334 442.004637525 334 492 c 0
 334 530.800070747 303.589757426 561 263 561 c 0x1a9c
 216.202593389 561 175 521.59128865 175 474 c 0
226 0 m 1x473c
 693 668 l 1
 820 668 l 1
 352 0 l 1
 226 0 l 1x473c
453 503 m 0x1a9c
 453 383.323270667 350.283974589 286 234 286 c 0
 130.898154503 286 56 364.684685896 56 461 c 0
 56 583.870639304 161.323953103 680 275 680 c 0
 376.539236894 680 453 604.76901513 453 503 c 0x1a9c
EndSplineSet
EndChar

StartChar: guilsinglleft
Encoding: 275 8249 84
Width: 401
GlyphClass: 1
Flags: W
VStem: 217 171<289 460>
DStem2: 24 250 191 244 0.673864 0.738856<108.102 285.215>
LayerCount: 2
Fore
SplineSet
127 40 m 1
 24 250 l 1
 217 460 l 1
 388 460 l 1
 191 244 l 1
 291 40 l 1
 127 40 l 1
EndSplineSet
EndChar

StartChar: guilsinglright
Encoding: 276 8250 85
Width: 402
GlyphClass: 1
Flags: W
VStem: -20 171<40 211>
DStem2: -20 40 151 40 0.673864 0.738856<115.231 292.344>
LayerCount: 2
Fore
SplineSet
-20 40 m 1
 177 256 l 1
 77 460 l 1
 241 460 l 1
 344 250 l 1
 151 40 l 1
 -20 40 l 1
EndSplineSet
EndChar

StartChar: fraction
Encoding: 277 8260 86
Width: 482
GlyphClass: 1
Flags: W
HStem: 0 21G<-55 85.982> 648 20G<398.988 539>
VStem: -55 127<0 127> 413 126<542 668>
DStem2: -55 0 72 0 0.573791 0.819001<72.8715 815.627>
LayerCount: 2
Fore
SplineSet
-55 0 m 1
 413 668 l 1
 539 668 l 1
 72 0 l 1
 -55 0 l 1
EndSplineSet
EndChar

StartChar: ordfeminine
Encoding: 170 170 87
Width: 395
GlyphClass: 1
Flags: W
HStem: 396 68<137.933 251.017> 625 67<188.631 292.768>
VStem: 86 107<465.084 515.56> 272 86<403 435> 294 94<582.275 621.5>
LayerCount: 2
Fore
SplineSet
193 491 m 0xe0
 191.350894232 469.561625019 211.463729314 464 222 464 c 0
 231.94851948 464 264.561372681 467.353277765 277 510 c 2
 282 528 l 1
 256 525 l 2
 199.979185997 517.771507871 193 504.158471157 193 491 c 0xe0
270 435 m 1
 262.310606061 426.212121212 235.875 396 174 396 c 0
 101.866361724 396 86 447.620201085 86 477 c 0
 86 528.591414577 111.993307106 571.379598426 289 582 c 0
 291.46024067 585.690361004 294 593.768260455 294 601 c 0
 294 605.212807469 291.978580182 625 254 625 c 0
 248.844557619 625 217.693905049 623.952445113 207 599 c 1
 127 631 l 1
 159.504092844 678.982232293 208.359262085 692 266 692 c 0
 319.018099068 692 388 676.526667789 388 596 c 0xe8
 388 552.811365358 371.288938776 529.24491837 358 403 c 1
 272 403 l 1xf0
 270 435 l 1
EndSplineSet
EndChar

StartChar: guillemotleft
Encoding: 171 171 88
Width: 665
GlyphClass: 1
Flags: W
VStem: 229 171<289 460> 469 171<289 460>
DStem2: 36 250 203 244 0.673864 0.738856<108.102 285.215> 276 250 443 244 0.673864 0.738856<108.102 285.215>
LayerCount: 2
Fore
SplineSet
139 40 m 1
 36 250 l 1
 229 460 l 1
 400 460 l 1
 203 244 l 1
 303 40 l 1
 139 40 l 1
379 40 m 1
 276 250 l 1
 469 460 l 1
 640 460 l 1
 443 244 l 1
 543 40 l 1
 379 40 l 1
EndSplineSet
EndChar

StartChar: logicalnot
Encoding: 172 172 89
Width: 696
GlyphClass: 1
Flags: W
HStem: 295 127<73 457>
VStem: 457 128<56 295>
LayerCount: 2
Fore
SplineSet
457 56 m 1
 457 295 l 1
 73 295 l 1
 73 422 l 1
 585 422 l 1
 585 56 l 1
 457 56 l 1
EndSplineSet
EndChar

StartChar: registered
Encoding: 174 174 90
Width: 814
GlyphClass: 1
Flags: W
HStem: -12 69<302.546 512.602> 300 75<347 379> 453 76<347 462.641> 610 69<302.334 512.816>
VStem: 62 70<228.458 438.696> 250 97<161 300 375 453> 467 101<382.016 445.952> 480 108<161 269> 684 70<228.394 438.754>
DStem2: 481 310 379 300 0.583299 -0.812258<0 120.443>
LayerCount: 2
Fore
SplineSet
467 414 m 0xfe80
 467 426.12254902 467 453 399 453 c 2
 347 453 l 1
 347 375 l 1
 399 375 l 2
 420.136752137 375 467 375 467 414 c 0xfe80
568 415 m 0
 568 369.917420149 547.471793938 327.896252214 481 310 c 1
 588 161 l 1
 480 161 l 1xfd80
 379 300 l 1
 347 300 l 1
 347 161 l 1
 250 161 l 1
 250 529 l 1
 401 529 l 2
 552.878308529 529 568 463.879534125 568 415 c 0
132 334 m 0
 132 181.91322534 254.432389039 57 407 57 c 0
 560.462425479 57 684 180.540587852 684 334 c 0
 684 487.02095146 559.769797487 610 407 610 c 0
 255.113312197 610 132 485.6477619 132 334 c 0
754 334 m 0
 754 142.10209531 598.626024498 -12 407 -12 c 0
 219.202155373 -12 62 140.883871515 62 334 c 0
 62 523.7242623 217.285216121 679 407 679 c 0
 600.567548008 679 754 522.479877863 754 334 c 0
EndSplineSet
EndChar

StartChar: macron
Encoding: 175 175 91
Width: 405
GlyphClass: 1
Flags: W
HStem: 570 98<125 403>
VStem: 104 320
LayerCount: 2
Fore
SplineSet
104 570 m 1
 125 668 l 1
 424 668 l 1
 403 570 l 1
 104 570 l 1
EndSplineSet
EndChar

StartChar: degree
Encoding: 176 176 92
Width: 411
GlyphClass: 1
Flags: W
HStem: 354 90<193.589 297.36> 590 89<193.91 297.025>
VStem: 83 89<466.585 567.515> 318 89<466.241 567.875>
LayerCount: 2
Fore
SplineSet
172 517 m 0
 172 476.590603533 204.590203676 444 245 444 c 0
 287.94748501 444 318 477.869999469 318 517 c 0
 318 556.12815948 287.949260267 590 245 590 c 0
 204.590603533 590 172 557.409796324 172 517 c 0
407 517 m 0
 407 425.268032414 334.875487476 354 245 354 c 0
 157.570946774 354 83 425.078710752 83 517 c 0
 83 609.706263412 159.229537958 679 245 679 c 0
 333.139297377 679 407 609.609185875 407 517 c 0
EndSplineSet
EndChar

StartChar: plusminus
Encoding: 177 177 93
Width: 701
GlyphClass: 1
Flags: W
HStem: 0 128<56 568> 283 108<56 248 376 568> 475 20G<248 376>
VStem: 248 128<180 283 391 495>
LayerCount: 2
Fore
SplineSet
56 0 m 1
 56 128 l 1
 568 128 l 1
 568 0 l 1
 56 0 l 1
248 180 m 1
 248 283 l 1
 56 283 l 1
 56 391 l 1
 248 391 l 1
 248 495 l 1
 376 495 l 1
 376 391 l 1
 568 391 l 1
 568 283 l 1
 376 283 l 1
 376 180 l 1
 248 180 l 1
EndSplineSet
EndChar

StartChar: uni00B2
Encoding: 178 178 94
Width: 407
GlyphClass: 1
Flags: W
HStem: 403 88<240 370> 667 21G<165.091 221.333> 711 77<229.015 317.532>
VStem: 321 106<626.978 705.216>
LayerCount: 2
Fore
SplineSet
427 689 m 0
 427 602.495942319 314.552529299 523.414143173 240 491 c 1
 388 491 l 1
 370 403 l 1
 70 403 l 1
 87 484 l 1
 221.684307463 558.076369105 321 615.861031021 321 675 c 0
 321 707.764341701 285.582446297 711 277 711 c 0
 247 711 226.666666667 696.333333333 216 667 c 1
 132 700 l 1
 160.666666667 758.666666667 212.666666667 788 288 788 c 0
 347.233406441 788 427 772.498971335 427 689 c 0
EndSplineSet
EndChar

StartChar: uni00B3
Encoding: 179 179 95
Width: 425
GlyphClass: 1
Flags: W
HStem: 396 76<205.159 297.818> 491 20G<136.606 200.667> 552 84<236 300.314> 676 21G<166.697 225.848> 713 75<227.673 321.379>
VStem: 305 105<480.234 543.868> 324 104<646.024 708.738>
LayerCount: 2
Fore
SplineSet
410 521 m 0xfc
 410 435.805398513 332.219732456 396 253 396 c 0
 198.514361051 396 133.638738583 416.019585073 98 478 c 1
 196 511 l 1
 205.333333333 485 224.666666667 472 254 472 c 0
 289.279458392 472 305 496.482940199 305 514 c 0xfc
 305 529.972991007 298.986969409 552 233 552 c 2
 218 552 l 1
 236 636 l 1
 251 636 l 2
 277.833368983 636 324 641.582299215 324 680 c 0
 324 683.077036104 322.847103564 713 278 713 c 0
 264.698785742 713 234.695652174 713 217 676 c 1
 134 709 l 1
 174.850655479 778.268502768 239.579043803 788 286 788 c 0
 310.30386749 788 428 783.091065927 428 688 c 0xfa
 428 671.031994619 422.981966959 617.925438022 362 599 c 1
 370.423518277 594.788240861 410 572.272441388 410 521 c 0xfc
EndSplineSet
EndChar

StartChar: acute
Encoding: 180 180 96
Width: 320
GlyphClass: 1
Flags: W
HStem: 574 153
VStem: 105 234
LayerCount: 2
Fore
SplineSet
282 727 m 0
 317.072489723 727 339 698.981977512 339 671 c 0
 339 638.556098951 328.596602501 632.036501443 241 581.5 c 2
 228 574 l 1
 105 574 l 1
 119.5 588 l 2
 129.166666667 597.333333333 141 609 155 623 c 2
 232.5 700.5 l 2
 242.166666667 710.166666667 247.333333333 715 248 715 c 0
 258 723 269.333333333 727 282 727 c 0
EndSplineSet
EndChar

StartChar: uni03BC
Encoding: 278 956 97
Width: 577
GlyphClass: 1
Flags: W
HStem: -161 21G<-55 105.179> -5 111<187.771 285.61> 475 20G<80.7317 240 399.758 560>
VStem: -55 156<-161 -5> 85 155<340 495> 404 156<339 495>
DStem2: -55 -161 101 -161 0.207912 0.978148<32.4342 237.774 336.12 670.772> 264.678 -161 420.778 -161 0.207912 0.978148<292.7 670.632>
LayerCount: 2
Fore
SplineSet
217 -5 m 0xec
 201.28759972 -5 157.331722975 -1.20370355266 143 40 c 1
 101 -161 l 1
 -55 -161 l 1xf4
 85 495 l 1
 240 495 l 1
 184 231 l 2
 176 193.666666667 175.333333333 163.5 182 140.5 c 0
 188.666666667 117.5 209.333333333 106 244 106 c 0
 303.688910344 106 331.675584044 152.876009356 348 231 c 2
 404 495 l 1
 560 495 l 1
 455 0 l 1
 314 0 l 1
 310 43 l 1
 289.111224586 6.04293580624 243.41538419 -5 217 -5 c 0xec
EndSplineSet
EndChar

StartChar: paragraph
Encoding: 182 182 98
Width: 530
GlyphClass: 1
Flags: W
HStem: -161 21G<62 162.258 252 351.258> 600 68<320 413 509 557>
VStem: 62 96<-161 -65> 252 95<-161 -66>
DStem2: 62 -161 158 -161 0.207912 0.978148<19.9595 470.058> 252 -161 347 -161 0.207912 0.978148<19.7516 777.844>
LayerCount: 2
Fore
SplineSet
51 438 m 0
 51 556.894600369 164.058742662 668 285 668 c 2
 572 668 l 1
 557 600 l 1
 509 600 l 1
 347 -161 l 1
 252 -161 l 1
 413 600 l 1
 320 600 l 1
 158 -161 l 1
 62 -161 l 1
 159 296 l 1
 138.855423785 301.755593204 51 332.883155928 51 438 c 0
EndSplineSet
EndChar

StartChar: periodcentered
Encoding: 183 183 99
Width: 305
GlyphClass: 1
Flags: W
HStem: 151 194<74.4911 196.013>
VStem: 38 195<187.987 309.088>
LayerCount: 2
Fore
SplineSet
233 248 m 0
 233 194.128370896 189.871346006 151 136 151 c 0
 82.5766204719 151 38 193.664475304 38 248 c 0
 38 304.865767283 83.8703900891 345 136 345 c 0
 188.596925637 345 233 304.411446625 233 248 c 0
EndSplineSet
EndChar

StartChar: cedilla
Encoding: 184 184 100
Width: 322
GlyphClass: 1
Flags: W
HStem: -195 54<-17.119 100.683>
VStem: 103 91<-134.895 -86.236>
DStem2: 22 -57 87 -47 0.639273 0.76898<49.2425 107.935>
LayerCount: 2
Fore
SplineSet
194 -103 m 0
 194 -186.748612416 98.6008338114 -195 61 -195 c 0
 58.0048275406 -195 1.34645614979 -194.775287454 -35 -178 c 1
 -9 -128 l 1
 10.3333333333 -136.666666667 30.3333333333 -141 51 -141 c 0
 57.6821965583 -141 103 -139.862292665 103 -109 c 0
 103 -94.1719795234 86.7476838191 -84 64 -84 c 0
 42.5424308424 -84 46.7353469354 -89 35 -89 c 0
 31.7587342528 -89 16 -87.3502626122 16 -71 c 0
 16 -66.3333333333 18 -61.6666666667 22 -57 c 2
 91 26 l 1
 127 1 l 1
 87 -47 l 1
 97 -45 106.333333333 -44 115 -44 c 0
 162.563570674 -44 194 -68.5281945625 194 -103 c 0
EndSplineSet
EndChar

StartChar: uni00B9
Encoding: 185 185 101
Width: 294
GlyphClass: 1
Flags: W
HStem: 647 88<140 204.285>
VStem: 153 104<403 507>
DStem2: 153 403 257 403 0.207912 0.978148<21.6228 249.479>
LayerCount: 2
Fore
SplineSet
140 735 m 1
 215.569029406 735 234.857259672 749.265478564 255 779 c 1
 337 779 l 1
 257 403 l 1
 153 403 l 1
 205 647 l 1
 121 647 l 1
 140 735 l 1
EndSplineSet
EndChar

StartChar: ordmasculine
Encoding: 186 186 102
Width: 412
GlyphClass: 1
Flags: W
HStem: 396 77<212.212 288.272> 612 77<221.7 297.687>
VStem: 102 103<478.324 595.348> 305 103<489.565 606.937>
LayerCount: 2
Fore
SplineSet
205 528 m 0
 205 510.619554611 209.452182408 473 248 473 c 0
 258.06356086 473 305 477.272966187 305 557 c 0
 305 571.336124006 301.597978723 612 263 612 c 0
 251.288393295 612 205 607.003199493 205 528 c 0
408 565 m 0
 408 431.126385587 308.490350913 396 240 396 c 0
 206.788286472 396 102 405.177258467 102 521 c 0
 102 623.856216241 170.017304173 689 271 689 c 0
 308.17337722 689 408 678.439302467 408 565 c 0
EndSplineSet
EndChar

StartChar: guillemotright
Encoding: 187 187 103
Width: 666
GlyphClass: 1
Flags: W
VStem: -8 171<40 211> 232 171<40 211>
DStem2: -8 40 163 40 0.673864 0.738856<115.231 292.344> 232 40 403 40 0.673864 0.738856<115.231 292.344>
LayerCount: 2
Fore
SplineSet
-8 40 m 1
 189 256 l 1
 89 460 l 1
 253 460 l 1
 356 250 l 1
 163 40 l 1
 -8 40 l 1
232 40 m 1
 429 256 l 1
 329 460 l 1
 493 460 l 1
 596 250 l 1
 403 40 l 1
 232 40 l 1
EndSplineSet
EndChar

StartChar: onequarter
Encoding: 188 188 104
Width: 930
GlyphClass: 1
Flags: W
HStem: 0 21G<129 270.033 646 753.267> 75 86<602 662 784 822> 536 87<116 180.084> 647 20G<221.016 313 582.967 724>
VStem: 129 127<0 127> 129 104<292 396> 597 127<540 667>
DStem2: 66.9335 0 170.933 0 0.207912 0.978148<320.146 548.003> 129 0 256 0 0.574368 0.818597<72.9447 814.809> 487 152 602 161 0.714902 0.699224<88.5068 225.693>
LayerCount: 2
Fore
SplineSet
602 161 m 1xf2
 680 161 l 1
 700 257 l 1
 602 161 l 1xf2
646 0 m 1
 662 75 l 1
 470 75 l 1
 487 152 l 1
 715 375 l 1
 829 375 l 1
 784 161 l 1
 841 161 l 1
 822 75 l 1
 765 75 l 1
 749 0 l 1
 646 0 l 1
129 0 m 1xfa
 597 667 l 1
 724 667 l 1
 256 0 l 1
 129 0 l 1xfa
116 623 m 1
 191.007215989 623 211.031734044 638.52303597 231 668 c 1
 313 668 l 1
 233 292 l 1
 129 292 l 1xf6
 181 536 l 1
 97 536 l 1
 116 623 l 1
EndSplineSet
Ligature2: "'frac' Diagonal Fractions lookup 10 subtable" one slash four
EndChar

StartChar: onehalf
Encoding: 189 189 105
Width: 919
GlyphClass: 1
Flags: W
HStem: 0 88<666 796> 308 76<654.358 744.069> 536 87<116 180.084> 647 20G<221.016 313 582.967 724>
VStem: 129 127<0 127> 129 104<292 396> 597 127<540 667> 747 107<222.518 302.082>
DStem2: 66.9335 0 170.933 0 0.207912 0.978148<320.146 548.003> 129 0 256 0 0.574368 0.818597<72.9447 814.809>
LayerCount: 2
Fore
SplineSet
854 286 m 0xf3
 854 198.210021283 739.245623297 119.845923173 666 88 c 1
 815 88 l 1
 796 0 l 1
 496 0 l 1
 513 81 l 1
 678.732845468 170.240762945 747 219.769687741 747 272 c 0
 747 304.592077279 710.544298244 308 702 308 c 0
 672 308 652 293.333333333 642 264 c 1
 558 297 l 1
 585.333333333 355 637.333333333 384 714 384 c 0
 767.891021414 384 854 370.740965423 854 286 c 0xf3
129 0 m 1xfb
 597 667 l 1
 724 667 l 1
 256 0 l 1
 129 0 l 1xfb
116 623 m 1
 191.007215989 623 211.031734044 638.52303597 231 668 c 1
 313 668 l 1
 233 292 l 1
 129 292 l 1xf7
 181 536 l 1
 97 536 l 1
 116 623 l 1
EndSplineSet
Ligature2: "'frac' Diagonal Fractions lookup 10 subtable" one slash two
EndChar

StartChar: threequarters
Encoding: 190 190 106
Width: 958
GlyphClass: 1
Flags: W
HStem: 0 21G<198 339.033 674 782.267> 75 86<630 690 812 851> 287 76<182.159 274.818> 443 84<213 277.314> 604 75<204.673 298.379> 647 20G<651.967 793>
VStem: 198 127<0 127> 282 105<371.234 434.868> 301 104<537.024 599.738> 666 127<540 667>
DStem2: 198 0 325 0 0.574368 0.818597<72.9447 814.809> 515 152 630 161 0.71643 0.697659<88.6684 226.57>
LayerCount: 2
Fore
SplineSet
630 161 m 1xf040
 709 161 l 1
 729 257 l 1
 630 161 l 1xf040
674 0 m 1
 690 75 l 1
 499 75 l 1
 515 152 l 1
 744 375 l 1
 858 375 l 1
 812 161 l 1
 869 161 l 1
 851 75 l 1
 794 75 l 1
 778 0 l 1
 674 0 l 1
198 0 m 1xf640
 666 667 l 1
 793 667 l 1
 325 0 l 1
 198 0 l 1xf640
387 412 m 0xf940
 387 326.805398513 309.219732456 287 230 287 c 0
 175.514361051 287 110.638738583 307.019585073 75 369 c 1
 173 402 l 1
 182.333333333 376 201.666666667 363 231 363 c 0
 266.279458392 363 282 387.482940199 282 405 c 0xf940
 282 420.972991007 275.986969409 443 210 443 c 2
 195 443 l 1
 213 527 l 1
 228 527 l 2
 254.833368983 527 301 532.582299215 301 571 c 0
 301 574.077036104 299.847103564 604 255 604 c 0
 241.698785742 604 211.695652174 604 194 567 c 1
 111 600 l 1
 151.850655479 669.268502768 216.579043803 679 263 679 c 0
 287.30386749 679 405 674.091065927 405 579 c 0xf8c0
 405 562.031994619 399.981966959 508.925438022 339 490 c 1
 347.423518277 485.788240861 387 463.272441388 387 412 c 0xf940
EndSplineSet
Ligature2: "'frac' Diagonal Fractions lookup 10 subtable" three slash four
EndChar

StartChar: less
Encoding: 60 60 107
Width: 640
GlyphClass: 1
Flags: W
HStem: 490 20G<480.27 527>
LayerCount: 2
Fore
SplineSet
527 -12 m 1
 34 200 l 1
 34 299 l 1
 527 510 l 1
 527 368 l 1
 203 250 l 1
 527 130 l 1
 527 -12 l 1
EndSplineSet
EndChar

StartChar: equal
Encoding: 61 61 108
Width: 685
GlyphClass: 1
Flags: W
HStem: 96 129<60 572> 283 127<60 572>
LayerCount: 2
Fore
SplineSet
60 96 m 1
 60 225 l 1
 572 225 l 1
 572 96 l 1
 60 96 l 1
60 283 m 1
 60 410 l 1
 572 410 l 1
 572 283 l 1
 60 283 l 1
EndSplineSet
EndChar

StartChar: greater
Encoding: 62 62 109
Width: 638
GlyphClass: 1
Flags: W
HStem: 490 20G<78 124.73>
LayerCount: 2
Fore
SplineSet
78 -12 m 1
 78 130 l 1
 403 250 l 1
 78 368 l 1
 78 510 l 1
 571 299 l 1
 571 200 l 1
 78 -12 l 1
EndSplineSet
EndChar

StartChar: question
Encoding: 63 63 110
Width: 634
GlyphClass: 1
Flags: W
HStem: -12 195<177.525 297.72> 552 128<265.812 437.036>
VStem: 140 195<24.2613 146.786> 448 175<463.244 535.615>
LayerCount: 2
Fore
SplineSet
335 86 m 0
 335 33.3170454137 293.376381702 -12 237 -12 c 0
 182.667005775 -12 140 32.5740372853 140 86 c 0
 140 142.408903267 184.400460541 183 237 183 c 0
 291.634961624 183 335 141.696905778 335 86 c 0
368 680 m 0
 413.432041441 680 623 672.236599447 623 529 c 0
 623 471.100242271 603.449984964 401.699993706 468 345 c 0
 397.632159242 316.131142253 378.037147666 297.61589977 363 276 c 0
 352.948717949 258.41025641 350.333333333 253.833333333 346 243 c 1
 185 243 l 1
 200.039473684 358.302631579 299.74767847 401.034719344 379 435 c 0
 397.436727154 442.901454495 446.343065693 463.861313869 448 497 c 0
 450.307948313 530.465250537 424.990704099 552 356 552 c 0
 326.0500679 552 249.227492219 545.948553643 223 486 c 1
 85 541 l 1
 103.687854813 574.029696879 163.644736842 680 368 680 c 0
EndSplineSet
EndChar

StartChar: at
Encoding: 64 64 111
Width: 753
GlyphClass: 1
Flags: W
HStem: -12 68<271.675 491.604> 153 97<287.996 374.148> 153 78<507.768 606.493> 428 90<334.522 429> 610 70<284.297 491.748>
VStem: 41 69<208.687 429.955> 181 101<254.798 373.918> 648 72<276.732 460.234>
LayerCount: 2
Fore
SplineSet
282 298 m 0xdf
 282 289.225274558 284.277396412 250 325 250 c 0
 339.50132631 250 395.052213602 261.033044278 411 339 c 0
 411.099287292 339.463340698 428.786899637 424.147598548 429 425 c 1
 420.333333333 427 410.666666667 428 400 428 c 0
 324.42078528 428 282 359.496005577 282 298 c 0xdf
386 56 m 0
 424.303195406 56 471.41244935 62.9947270211 522 94 c 1
 522 16 l 1
 479.333333333 -2.66666666667 434 -12 386 -12 c 0
 185.852290235 -12 41 119.253930233 41 323 c 0
 41 512.458215451 194.417554205 680 386 680 c 0
 540.251601954 680 720 561.881221676 720 368 c 0
 720 257.278391098 658.960440226 153 541 153 c 0xbf
 499.40940982 153 445.592643508 170.985012072 430 224 c 1
 411.427691611 200.121317786 366.256161151 153 299 153 c 0xdf
 255.461459423 153 181 179.749461977 181 276 c 0
 181 418.506800208 285.333334068 518 428 518 c 0
 453.85916942 518 496.685758508 514.724160517 545 498 c 1
 509 330 l 2
 501 286 501 286 501 280 c 0
 501 262.010911158 507.332594605 231 551 231 c 0xbf
 622.353292537 231 648 304.811567495 648 363 c 0
 648 513.629399228 519.614704835 610 386 610 c 0
 235.453654868 610 110 478.893899366 110 323 c 0
 110 151.823566515 231.951150038 56 386 56 c 0
EndSplineSet
EndChar

StartChar: colon
Encoding: 58 58 112
Width: 247
GlyphClass: 1
Flags: W
HStem: -12 195<11.5923 131.474> 316 195<80.2606 202.785>
VStem: -26 195<25.7924 147.088> 44 195<353.526 473.721>
LayerCount: 2
Fore
SplineSet
169 86 m 0xe0
 169 32.5766204719 126.335524696 -12 72 -12 c 0
 18.1036977235 -12 -26 32.1059275816 -26 86 c 0
 -26 142.865767283 19.8703900891 183 72 183 c 0
 124.596925637 183 169 142.411446625 169 86 c 0xe0
239 413 m 0xd0
 239 360.403074363 198.411446625 316 142 316 c 0
 88.5766204719 316 44 358.664475304 44 413 c 0
 44 469.37483354 89.3154563163 511 142 511 c 0
 197.694825514 511 239 467.637087912 239 413 c 0xd0
EndSplineSet
EndChar

StartChar: bracketleft
Encoding: 91 91 114
Width: 340
GlyphClass: 1
Flags: W
HStem: -161 115<99 202> 552 116<226 353>
DStem2: -57 -161 74.556 -161 0.207912 0.978148<144.921 756.258>
LayerCount: 2
Fore
SplineSet
-57 -161 m 1
 119 668 l 1
 378 668 l 1
 353 552 l 1
 226 552 l 1
 99 -46 l 1
 227 -46 l 1
 202 -161 l 1
 -57 -161 l 1
EndSplineSet
EndChar

StartChar: backslash
Encoding: 92 92 115
Width: 584
GlyphClass: 1
Flags: W
HStem: 0 21G<340.186 499> 648 20G<87 247.754>
DStem2: 240 668 87 668 0.363926 -0.931428<0 661.498>
LayerCount: 2
Fore
SplineSet
348 0 m 1
 87 668 l 1
 240 668 l 1
 499 0 l 1
 348 0 l 1
EndSplineSet
EndChar

StartChar: bracketright
Encoding: 93 93 116
Width: 342
GlyphClass: 1
Flags: W
HStem: -161 115<-46 82> 552 116<105 209>
DStem2: 57.556 -161 188 -161 0.207912 0.978148<117.569 728.906>
LayerCount: 2
Fore
SplineSet
-71 -161 m 1
 -46 -46 l 1
 82 -46 l 1
 209 552 l 1
 81 552 l 1
 105 668 l 1
 364 668 l 1
 188 -161 l 1
 -71 -161 l 1
EndSplineSet
EndChar

StartChar: asciicircum
Encoding: 94 94 117
Width: 589
GlyphClass: 1
Flags: W
HStem: 648 20G<223.607 357.393>
DStem2: 49 312 192 312 0.461117 0.887339<65.9398 283.734> 347 668 291 506 0.461117 -0.887339<117.926 335.26>
LayerCount: 2
Fore
SplineSet
49 312 m 1
 234 668 l 1
 347 668 l 1
 532 312 l 1
 389 312 l 1
 291 506 l 1
 192 312 l 1
 49 312 l 1
EndSplineSet
EndChar

StartChar: underscore
Encoding: 95 95 118
Width: 457
GlyphClass: 1
Flags: W
HStem: -128 128<-30 380>
LayerCount: 2
Fore
SplineSet
-30 -128 m 1
 -30 0 l 1
 380 0 l 1
 380 -128 l 1
 -30 -128 l 1
EndSplineSet
EndChar

StartChar: grave
Encoding: 96 96 119
Width: 315
GlyphClass: 1
Flags: W
HStem: 574 153<206 224.721>
VStem: 127 187
LayerCount: 2
Fore
SplineSet
127 670 m 0
 127 698.743530578 149.875734736 727 183 727 c 0
 206.388937686 727 217.086956522 727 279.5 628 c 0
 289.166666667 612.666666667 297.333333333 599.833333333 304 589.5 c 2
 314 574 l 1
 206 574 l 1
 193 585 l 2
 133.808920684 635.084759421 127 647.126821674 127 670 c 0
EndSplineSet
EndChar

StartChar: exclam
Encoding: 33 33 120
Width: 298
GlyphClass: 1
Flags: W
HStem: -12 196<37.1049 156.706> 648 20G<115.698 318>
VStem: -1 195<25.7924 147.26>
LayerCount: 2
Fore
SplineSet
194 86 m 0
 194 32.5766204719 151.335524696 -12 97 -12 c 0
 43.1036977235 -12 -1 32.1059275816 -1 86 c 0
 -1 142.37483354 44.3154563163 184 97 184 c 0
 150.14483005 184 194 141.910478683 194 86 c 0
71 243 m 1
 83 496 l 1
 120 668 l 1
 318 668 l 1
 281 496 l 1
 186 243 l 1
 71 243 l 1
EndSplineSet
EndChar

StartChar: quotedbl
Encoding: 34 34 121
Width: 444
GlyphClass: 1
Flags: W
HStem: 434 234<116 230 305 418>
VStem: 116 114<434 551> 305 113<434 543.2>
LayerCount: 2
Fore
SplineSet
116 434 m 1
 102 668 l 1
 244 668 l 1
 230 434 l 1
 116 434 l 1
305 434 m 1
 290 668 l 1
 432 668 l 1
 418 434 l 1
 305 434 l 1
EndSplineSet
EndChar

StartChar: numbersign
Encoding: 35 35 122
Width: 750
GlyphClass: 1
Flags: W
HStem: 0 21G<118 261.835 395 538.835> 127 140<28 136 297 413 575 683> 401 140<68 176 336 453 614 722> 648 20G<212.008 355 489.008 633>
DStem2: 118 0 259 0 0.143702 0.989621<20.262 128.269 289.952 405.173 566.712 675.006> 395 0 536 0 0.143702 0.989621<20.262 128.269 290.095 405.173 566.856 675.006>
LayerCount: 2
Fore
SplineSet
297 267 m 1
 434 267 l 1
 453 401 l 1
 316 401 l 1
 297 267 l 1
118 0 m 1
 136 127 l 1
 8 127 l 1
 28 266 l 1
 156 266 l 1
 176 401 l 1
 48 401 l 1
 68 541 l 1
 196 541 l 1
 215 668 l 1
 355 668 l 1
 336 541 l 1
 473 541 l 1
 492 668 l 1
 633 668 l 1
 614 541 l 1
 743 541 l 1
 722 402 l 1
 594 402 l 1
 575 267 l 1
 703 267 l 1
 683 127 l 1
 554 127 l 1
 536 0 l 1
 395 0 l 1
 413 127 l 1
 277 127 l 1
 259 0 l 1
 118 0 l 1
EndSplineSet
EndChar

StartChar: dollar
Encoding: 36 36 123
Width: 643
GlyphClass: 1
Flags: W
HStem: -12 126<307 398.633> 552 128<248.173 324>
VStem: 61 163<450.257 529.715> 188 76<-86 -10> 425 164<140.587 221.401>
DStem2: 188 -86 264 -86 0.207912 0.978148<15.8013 88.2098 221.349 365.505 518.375 652.334 788.713 851.805>
LayerCount: 2
Fore
SplineSet
326 114 m 2xc8
 328.943324819 114.14357682 425 119.286777472 425 179 c 0
 425 194.187799043 425 225.894736842 337 256 c 1
 307 115 l 1
 310.333333333 114.333333333 313.666666667 114 317 114 c 2
 326 114 l 2xc8
324 552 m 1
 302.087283754 551.552801709 224 546.225244056 224 493 c 0xe8
 224 479.313620072 224 448.870967742 296 421 c 1
 324 552 l 1
589 205 m 0
 589 59.5540616996 452.038829535 -12 305 -12 c 2
 292.5 -12 l 2
 288.166666667 -12 284 -11.6666666667 280 -11 c 1
 264 -86 l 1
 188 -86 l 1xd8
 207 -1 l 1
 147.268689383 13.1032261179 50.3196528798 51.8182968353 10 157 c 1
 165 210 l 1
 169.201404306 189.693212519 183.874673018 152.495143872 235 130 c 1
 266 280 l 1
 137.35674761 321.72213591 61 368.7058937 61 476 c 0
 61 626.544268478 210.238841749 680 341 680 c 2
 352 680 l 1
 366 747 l 1
 441 747 l 1
 425 671 l 1
 493.603962307 654.784518 563.720036318 616.975415922 607 536 c 1
 452 484 l 1
 445.929568994 500.476884159 431.460080467 523.490492435 397 538 c 1
 367 398 l 1
 549.283506568 350.325852128 589 288.414261873 589 205 c 0
EndSplineSet
EndChar

StartChar: percent
Encoding: 37 37 124
Width: 1043
GlyphClass: 1
Flags: W
HStem: -12 119<730.653 838.154> 0 21G<226 366.012> 263 119<741.751 848.88> 286 119<195.117 303.213> 561 119<206.86 313.348> 648 20G<679.018 820>
VStem: 56 119<424.881 527.994> 226 126<0 126> 334 119<437.193 541.011> 592 119<126.83 230.808> 693 127<541 668> 869 119<138.811 242.84>
DStem2: 226 0 352 0 0.573791 0.819001<72.2977 815.054>
LayerCount: 2
Fore
SplineSet
711 177 m 0xa250
 711 137.554157416 739.470996319 107 782 107 c 0
 825.958054831 107 869 143.025053208 869 192 c 0
 869 230.860850608 841.103400879 263 798 263 c 0
 753.562819771 263 711 225.570385569 711 177 c 0xa250
988 205 m 0
 988 85.3232706675 885.283974589 -12 769 -12 c 0
 666.285746683 -12 592 65.2364652324 592 165 c 0
 592 284.676729333 694.716025411 382 811 382 c 0
 913.714253317 382 988 304.763534768 988 205 c 0
175 474 m 0
 175 432.492007116 206.903169186 405 246 405 c 0
 291.636595943 405 334 442.004637525 334 492 c 0
 334 530.800070747 303.589757426 561 263 561 c 0x1a90
 216.202593389 561 175 521.59128865 175 474 c 0
226 0 m 1x4730
 693 668 l 1
 820 668 l 1
 352 0 l 1
 226 0 l 1x4730
453 503 m 0x1a90
 453 383.323270667 350.283974589 286 234 286 c 0
 130.898154503 286 56 364.684685896 56 461 c 0
 56 583.870639304 161.323953103 680 275 680 c 0
 376.539236894 680 453 604.76901513 453 503 c 0x1a90
EndSplineSet
EndChar

StartChar: ampersand
Encoding: 38 38 125
Width: 683
GlyphClass: 1
Flags: W
HStem: -10 126<184.853 318.639> 0 21G<428.792 608> 592 114<292.312 395.606>
VStem: -7 164<143.722 249.003> 139 139<470.69 575.588> 408 126<482.396 578.018>
DStem2: 383 348 247 290 0.557161 -0.830405<0 124.249 256.597 321.853>
LayerCount: 2
Fore
SplineSet
157 196 m 0xb4
 157 157.822723639 188.379686561 116 239 116 c 0
 273.349251891 116 301.809235143 124.411516046 343 147 c 1
 247 290 l 1
 225.650352573 283.328235179 157 257.122990237 157 196 c 0xb4
350 592 m 0
 340.789414499 592 278 589.842221389 278 531 c 0x2c
 278 513.401156865 285.292273362 480.964344769 326 437 c 1
 354.67485859 451.018819755 408 483.832369799 408 534 c 0
 408 564.953470495 384.928039404 592 350 592 c 0
407 53 m 1
 350.624192582 19.9521128926 277.802674996 -10 199 -10 c 0
 64.0743704685 -10 -7 81.3080920758 -7 169 c 0xb4
 -7 207.249781407 8.1815019026 321.988745636 181 389 c 1
 153 431 139 475 139 521 c 0
 139 629.597233672 227.359080243 706 353 706 c 0
 458.245172263 706 534 633.78412922 534 544 c 0
 534 507.441389396 519.617897623 413.714938097 383 348 c 1
 451 244 l 1
 500.997651564 292.331063178 531.156028552 346.372734875 549 389 c 1
 676 389 l 1
 654.759768704 332.865103003 605.859992844 227.588565003 515 146 c 1
 608 0 l 1
 442 0 l 1x6c
 407 53 l 1
EndSplineSet
EndChar

StartChar: quotesingle
Encoding: 39 39 126
Width: 258
GlyphClass: 1
Flags: W
HStem: 434 234<103 217>
VStem: 103 114<434 551>
LayerCount: 2
Fore
SplineSet
103 434 m 1
 89 668 l 1
 231 668 l 1
 217 434 l 1
 103 434 l 1
EndSplineSet
EndChar

StartChar: parenleft
Encoding: 40 40 127
Width: 377
GlyphClass: 1
Flags: W
HStem: -161 21G<77.0529 238> 649 20G<137.436 387>
VStem: 14 145<-1.03524 312.015> 236 151<518 669>
LayerCount: 2
Fore
SplineSet
387 669 m 1
 172.936619152 409.767281909 159 246.75345002 159 155 c 0
 159 57.6666666667 185.333333333 -47.6666666667 238 -161 c 1
 89 -161 l 1
 65.105843317 -104.021626371 14 26.0738369764 14 171 c 0
 14 284.275051693 38.8720623945 447.977766927 236 669 c 1
 387 669 l 1
EndSplineSet
EndChar

StartChar: parenright
Encoding: 41 41 128
Width: 378
GlyphClass: 1
Flags: W
HStem: -161 21G<-42 211.593> 649 20G<107 267.947>
VStem: -42 151<-161 -10> 186 145<196.803 509.035>
LayerCount: 2
Fore
SplineSet
331 337 m 0
 331 240.222483978 314.186175121 65.6235367012 109 -161 c 1
 -42 -161 l 1
 172.063380848 98.2327180911 186 261.24654998 186 353 c 0
 186 450.333333333 159.666666667 555.666666667 107 669 c 1
 256 669 l 1
 279.894156683 612.021626371 331 481.926163024 331 337 c 0
EndSplineSet
EndChar

StartChar: asterisk
Encoding: 42 42 129
Width: 443
GlyphClass: 1
Flags: W
HStem: 336 332
VStem: 76 326
LayerCount: 2
Fore
SplineSet
263 336 m 1
 222 428 l 1
 148 361 l 1
 89 426 l 1
 164 494 l 1
 76 544 l 1
 120 619 l 1
 207 569 l 1
 228 668 l 1
 314 650 l 1
 293 551 l 1
 392 562 l 1
 402 475 l 1
 302 464 l 1
 343 372 l 1
 263 336 l 1
EndSplineSet
EndChar

StartChar: plus
Encoding: 43 43 130
Width: 645
GlyphClass: 1
Flags: W
HStem: 0 21G<231 359> 184 128<39 231 359 551> 476 20G<231 359>
VStem: 231 128<0 184 312 496>
LayerCount: 2
Fore
SplineSet
231 0 m 1
 231 184 l 1
 39 184 l 1
 39 312 l 1
 231 312 l 1
 231 496 l 1
 359 496 l 1
 359 312 l 1
 551 312 l 1
 551 184 l 1
 359 184 l 1
 359 0 l 1
 231 0 l 1
EndSplineSet
EndChar

StartChar: comma
Encoding: 44 44 131
Width: 282
GlyphClass: 1
Flags: W
HStem: -145 328<52.4478 59>
VStem: -40 99<-145 -46> -9 196<25.9534 147.13>
DStem2: -40 -145 59 -145 0.536538 0.843876<53.1173 168.655>
LayerCount: 2
Fore
SplineSet
90 183 m 0xa0
 145.385846643 183 187 141.598184137 187 88 c 0xa0
 187 66.0155201586 181.926375299 49.7361879909 162 17 c 2
 59 -145 l 1
 -40 -145 l 1xc0
 51 -3 l 1
 13.7067785112 12.1935346806 -9 48.5706943589 -9 85 c 0
 -9 150.116396705 42.7463251738 183 90 183 c 0xa0
EndSplineSet
EndChar

StartChar: hyphen
Encoding: 45 45 132
Width: 376
GlyphClass: 1
Flags: W
HStem: 184 129<38 336>
LayerCount: 2
Fore
SplineSet
10 184 m 1
 38 313 l 1
 364 313 l 1
 336 184 l 1
 10 184 l 1
EndSplineSet
EndChar

StartChar: period
Encoding: 46 46 133
Width: 247
GlyphClass: 1
Flags: W
HStem: -12 195<21.5923 141.474>
VStem: -16 195<25.7924 147.088>
LayerCount: 2
Fore
SplineSet
179 86 m 0
 179 32.5766204719 136.335524696 -12 82 -12 c 0
 28.1036977235 -12 -16 32.1059275816 -16 86 c 0
 -16 142.865767283 29.8703900891 183 82 183 c 0
 134.596925637 183 179 142.411446625 179 86 c 0
EndSplineSet
EndChar

StartChar: slash
Encoding: 47 47 134
Width: 442
GlyphClass: 1
Flags: W
HStem: 0 21G<-55 110.006> 648 20G<335.934 499>
VStem: -55 153<0 153> 348 151<517 668>
DStem2: -55 0 98 0 0.516568 0.856246<79.0349 780.149>
LayerCount: 2
Fore
SplineSet
-55 0 m 1
 348 668 l 1
 499 668 l 1
 98 0 l 1
 -55 0 l 1
EndSplineSet
EndChar

StartChar: braceleft
Encoding: 123 123 135
Width: 373
GlyphClass: 1
Flags: W
HStem: -162 120<170.598 234> 548 119<288.362 384>
DStem2: -11.6467 -162 134.803 -162 0.207912 0.978148<163.602 341.592 496.354 753.724>
LayerCount: 2
Fore
SplineSet
180 -162 m 2
 149.276413398 -162 -9.9966397216 -161.920908625 23 1 c 2
 44 97 l 2
 63.4490203832 180.100359819 35.5414050867 192 -6 192 c 1
 20 315 l 1
 60.0939850493 315 92.0093151389 323.044505664 110 409 c 2
 131 505 l 2
 163.430601176 649.690374478 223.730450955 667 355 667 c 2
 410 667 l 1
 384 548 l 1
 351 548 l 2
 295.134248968 548 282.843416442 530.269276729 277 503 c 2
 251 380 l 2
 241.666666667 338 225.666666667 308.333333333 203 291 c 0
 180.333333333 273.666666667 156.333333333 261.666666667 131 255 c 1
 130 252 l 1
 174.159818612 239.785582086 215.698098808 211.991358217 197 127 c 2
 172 13 l 2
 162.490722375 -29.1125151956 175.071735237 -42 220 -42 c 2
 260 -42 l 1
 234 -162 l 1
 180 -162 l 2
EndSplineSet
EndChar

StartChar: bar
Encoding: 124 124 136
Width: 299
GlyphClass: 1
Flags: W
HStem: -161 21G<59 205> 648 20G<59 205>
VStem: 59 146<-161 668>
LayerCount: 2
Fore
SplineSet
59 -161 m 1
 59 668 l 1
 205 668 l 1
 205 -161 l 1
 59 -161 l 1
EndSplineSet
EndChar

StartChar: braceright
Encoding: 125 125 137
Width: 373
GlyphClass: 1
Flags: W
HStem: -162 120<-45 50.3353> 548 119<106 169.146>
DStem2: -70 -162 175.353 -162 0.207912 0.978148<100.718 732.678 733.988 816.036> 29.1407 -162 175.353 -162 0.207912 0.978148<124.452 383.631 536.237 715.661>
LayerCount: 2
Fore
SplineSet
-70 -162 m 1
 -45 -42 l 1
 -11 -42 l 2
 46.4197100291 -42 58.4315875075 -23.0578562164 64 2 c 2
 90 126 l 2
 99.3333333333 168.666666667 115.333333333 198.666666667 138 216 c 0
 160.666666667 233.333333333 184.666666667 245.333333333 210 252 c 1
 211 255 l 1
 158.086518906 271.104102942 128.933871188 303.669355942 144 379 c 2
 170 498 l 2
 177.627452598 534.866020891 166.613169561 548 120 548 c 2
 81 548 l 1
 106 667 l 1
 161 667 l 2
 247.64570706 667 343.346724368 638.516360151 316 505 c 2
 296 409 l 2
 279.330837045 328.988017814 301.699825485 315 346 315 c 1
 320 192 l 1
 284.658683985 192 247.64671868 186.089878138 229 97 c 2
 210 1 l 2
 179.529315667 -146.274974276 113.504584944 -162 -16 -162 c 2
 -70 -162 l 1
EndSplineSet
EndChar

StartChar: asciitilde
Encoding: 126 126 138
Width: 533
GlyphClass: 1
Flags: W
HStem: 167 123<283.53 376.573> 227 123<125.825 225.842>
LayerCount: 2
Fore
SplineSet
494 333 m 1x80
 447.886022142 171.601077496 366.443305579 167 324 167 c 0x80
 250.127965952 167 224.399811825 227 164 227 c 0
 118.705882353 227 109.771496477 170.043290043 106 146 c 1
 9 184 l 1
 55.3551633883 346.243071859 139.216161011 350 180 350 c 0x40
 259.902667587 350 287.152887968 290 339 290 c 0
 384.571428571 290 393.372990994 351.610936956 396 370 c 1
 494 333 l 1x80
EndSplineSet
EndChar

StartChar: exclamdown
Encoding: 161 161 139
Width: 297
GlyphClass: 1
Flags: W
HStem: -162 21G<-55 147.277> 324 194<104.477 226.785>
VStem: 69 194<360.173 481.26>
LayerCount: 2
Fore
SplineSet
-55 -162 m 1
 -18 11 l 1
 77 264 l 1
 192 264 l 1
 180 11 l 1
 143 -162 l 1
 -55 -162 l 1
263 420 m 0
 263 366.911725821 221.917104406 324 166 324 c 0
 112.627751571 324 69 365.662096527 69 420 c 0
 69 475.912285476 112.856986641 518 166 518 c 0
 221.694825514 518 263 474.637087912 263 420 c 0
EndSplineSet
EndChar

StartChar: cent
Encoding: 162 162 140
Width: 531
GlyphClass: 1
Flags: W
VStem: 2 154<129.294 299.371> 155 74<-87 -13>
DStem2: 155 -87 229 -87 0.207912 0.978148<15.3855 80.8082 215.627 480.521 622.394 672.729>
LayerCount: 2
Fore
SplineSet
255 383 m 1x80
 168.052234221 345.322634829 156 232.198126003 156 198 c 0
 156 166.802897598 164.047092147 130.082956351 198 114 c 1
 255 383 l 1x80
270 109 m 1
 310.685803 117.1371606 331.121349757 142.034271556 341 155 c 1
 464 107 l 1
 422.413757286 48.4012034485 354.720147955 -4.56134590137 245 -12 c 1
 229 -87 l 1
 155 -87 l 1x40
 172 -8 l 1
 125.801821532 -0.112506115187 2 35.8687019135 2 195 c 0
 2 317.114406892 78.4696207161 489.154594511 282 508 c 1
 295 571 l 1
 368 571 l 1
 354 507 l 1
 383.766245 503.068609151 469.93856 491.68736 511 381 c 1
 378 335 l 1
 374.708366008 347.617930302 364.922300727 380.017266505 329 388 c 1
 270 109 l 1
EndSplineSet
EndChar

StartChar: sterling
Encoding: 163 163 141
Width: 617
GlyphClass: 1
Flags: W
HStem: -12 125<265.262 496.858> 24 110<165.815 280.382> 295 73<58 133 315 443> 556 123<298.096 445.479>
VStem: 113 158<380.939 527.717> 158 159<216.996 294.75>
LayerCount: 2
Fore
SplineSet
175 24 m 0x74
 156.62962963 24 106.5 24 33 -12 c 1
 2 104 l 1
 57.3333333333 128 97.1666666667 156.166666667 121.5 188.5 c 0
 145.833333333 220.833333333 158 250.333333333 158 277 c 0xb4
 158 283.666666667 157 289.666666667 155 295 c 1
 43 295 l 1
 58 368 l 1
 133 368 l 1
 113.384083466 438.056844765 113 458.535197781 113 478 c 0
 113 634.198568475 278.595029155 679 388 679 c 0
 506 679 587.333333333 631.666666667 632 537 c 1
 485 487 l 1
 459.263387891 531.454148188 429.053791224 556 374 556 c 0
 325.769545353 556 271 540.663778808 271 471 c 0xb8
 271 443.666666667 280 409.333333333 298 368 c 1
 458 368 l 1
 443 295 l 1
 315 295 l 1
 316.333333333 289.666666667 317 284.333333333 317 279 c 0
 317 272.871279318 314.477369159 190.509275769 181 117 c 1
 194.652046784 124.122807018 213.583333333 134 269 134 c 0x74
 334.022048945 134 351.700173277 113 407 113 c 0
 441.960861897 113 478.49416719 123.37187528 517 144 c 1
 535 23 l 1
 464.035636816 -8.74721510848 404.960839118 -12 367 -12 c 0xb4
 287.688898042 -12 249.727768624 24 175 24 c 0x74
EndSplineSet
EndChar

StartChar: currency
Encoding: 164 164 142
Width: 678
GlyphClass: 1
Flags: W
HStem: 102 119<275.697 398.303> 419 120<274.409 400.023>
VStem: 118 120<258.962 382.712> 436 119<259.113 381.761>
DStem2: 144 565 92 513 0.707107 -0.707107<0 99.0205 520.392 619.426> 92 127 144 75 0.707107 0.707107<0 99.0336 520.742 619.426>
LayerCount: 2
Fore
SplineSet
238 321 m 0
 238 266.249832013 281.318007396 221 337 221 c 0
 392.682275873 221 436 266.250121117 436 321 c 0
 436 376.683525777 391.699332307 419 337 419 c 0
 282.305168548 419 238 376.687932765 238 321 c 0
555 321 m 0
 555 284.87011116 546.601077022 238.906793663 515 194 c 1
 582 127 l 1
 530 75 l 1
 463 142 l 1
 426.333333333 115.333333333 384.333333333 102 337 102 c 0
 289.666666667 102 247.666666667 115.333333333 211 142 c 1
 144 75 l 1
 92 127 l 1
 159 194 l 1
 137.985522542 223.862678493 118 266.57986877 118 321 c 0
 118 355.607455288 126.70642254 400.109126767 159 446 c 1
 92 513 l 1
 144 565 l 1
 211 498 l 1
 240.540248038 519.881665214 282.712464052 539 337 539 c 0
 360.439028094 539 411.421861014 536.206028878 463 498 c 1
 530 565 l 1
 582 513 l 1
 515 446 l 1
 541.666666667 409.333333333 555 367.666666667 555 321 c 0
EndSplineSet
EndChar

StartChar: yen
Encoding: 165 165 143
Width: 700
GlyphClass: 1
Flags: W
HStem: 0 21G<191 358.267> 75 73<99 207 385 499> 212 74<128 225 442 528> 647 20G<82 259.209 542.188 762>
VStem: 558 204<463 667>
DStem2: 339 390 442 286 0.643145 0.765744<0 352.96>
LayerCount: 2
Fore
SplineSet
191 0 m 1
 207 75 l 1
 83 75 l 1
 99 148 l 1
 222 148 l 1
 236 212 l 1
 112 212 l 1
 128 286 l 1
 225 286 l 1
 82 667 l 1
 253 667 l 1
 339 390 l 1
 558 667 l 1
 762 667 l 1
 442 286 l 1
 544 286 l 1
 528 212 l 1
 398 212 l 1
 385 148 l 1
 515 148 l 1
 499 75 l 1
 370 75 l 1
 354 0 l 1
 191 0 l 1
EndSplineSet
EndChar

StartChar: brokenbar
Encoding: 166 166 144
Width: 281
GlyphClass: 1
Flags: W
HStem: -161 21G<59 187> 648 20G<59 187>
VStem: 59 128<-161 150 358 668>
LayerCount: 2
Fore
SplineSet
59 -161 m 1
 59 150 l 1
 187 150 l 1
 187 -161 l 1
 59 -161 l 1
59 358 m 1
 59 668 l 1
 187 668 l 1
 187 358 l 1
 59 358 l 1
EndSplineSet
EndChar

StartChar: section
Encoding: 167 167 145
Width: 563
GlyphClass: 1
Flags: W
HStem: -174 120<95.7299 212.394> 563 116<306.149 457.491>
VStem: 15 156<228.603 335.797> 147 152<486.651 552.29> 231 157<-35.5569 47.069> 365 161<198.194 296.488>
DStem2: 328.5 480.5 233 352 0.805038 -0.593223<-16.2863 176.197>
LayerCount: 2
Fore
SplineSet
233 352 m 0xe4
 220.631455666 349.526291133 171 337.336169445 171 301 c 0
 171 280.447513852 173.96160276 272.9199115 259.5 210.5 c 0
 271.833333333 201.5 282.333333333 193.666666667 291 187 c 2
 304 177 l 1
 344.666666667 193.666666667 365 212 365 232 c 0
 365 253.251190588 342.608508601 272.060521566 297 305 c 0
 281.950471528 315.869103896 233.642169044 351.532967968 233 352 c 0xe4
388 40 m 0xc8
 388 -48.3123553034 306.348909545 -174 138 -174 c 0
 103.683694472 -174 -28.2445326575 -166.255219243 -59 -49 c 1
 81 -2 l 1
 86.5616599319 -52.0549393873 143.224608661 -54 152 -54 c 0
 178.111156153 -54 231 -40.5812726563 231 5 c 0
 231 16.4303969932 231 38.1090909091 166.5 81.5 c 0
 55.2701540657 156.327350901 15 196.205678185 15 261 c 0xe8
 15 289.826774691 15 375 159 429 c 1
 151 448.333333333 147 468.666666667 147 490 c 0
 147 565.446389036 204.374742721 679 371 679 c 0
 451.371108614 679 536.029983485 657.731637653 571 578 c 1
 432 532 l 1
 422.795015055 561.455951823 376.586726378 563 367 563 c 0
 366.77722726 563 299 562.96710446 299 523 c 0
 299 508.333333333 308.833333333 494.166666667 328.5 480.5 c 0
 330.049638947 479.423132257 447.586956797 394.651113213 478.5 366 c 0
 489.591041999 355.72049766 526 321.975609756 526 271 c 0xd4
 526 237.666666667 515.5 205.666666667 494.5 175 c 0
 473.5 144.333333333 433.666666667 118.333333333 375 97 c 1
 383.666666667 81.6666666667 388 62.6666666667 388 40 c 0xc8
EndSplineSet
EndChar

StartChar: dieresis
Encoding: 168 168 146
Width: 455
GlyphClass: 1
Flags: W
HStem: 578 141<148.848 248.643 342.848 442.325>
VStem: 128 141<598.357 698.153> 322 140<598.182 698.153>
LayerCount: 2
Fore
SplineSet
462 648 m 0
 462 609.471850676 432.532626043 578 393 578 c 0
 354.405028413 578 322 608.484045263 322 648 c 0
 322 687.073399182 353.927716604 719 393 719 c 0
 432.987946754 719 462 686.062670114 462 648 c 0
269 648 m 0
 269 608.950736421 238.048669951 578 199 578 c 0
 160.405028413 578 128 608.484045263 128 648 c 0
 128 687.073399182 159.927716604 719 199 719 c 0
 238.516888295 719 269 686.594010882 269 648 c 0
EndSplineSet
EndChar

StartChar: copyright
Encoding: 169 169 147
Width: 814
GlyphClass: 1
Flags: W
HStem: -12 69<302.546 512.602> 145 85<365.571 471.988> 437 85<366.09 467.487> 610 69<302.334 512.816>
VStem: 62 70<228.458 438.696> 227 112<256.631 409.238> 684 70<228.394 438.754>
LayerCount: 2
Fore
SplineSet
572 231 m 1
 554.289421562 200.639008392 508.40613301 145 410 145 c 0
 351.333333333 145 306.166666667 162.333333333 274.5 197 c 0
 242.833333333 231.666666667 227 277.333333333 227 334 c 0
 227 449.352477933 304.379950482 522 410 522 c 0
 457.007401775 522 534.90810621 508.754814835 573 428 c 1
 481 394 l 1
 471.662003198 417.863769604 452.723965599 437 416 437 c 0
 399.304967205 437 339 430.332526234 339 334 c 0
 339 295.333333333 347.166666667 268.333333333 363.5 253 c 0
 379.833333333 237.666666667 397.333333333 230 416 230 c 0
 447.333333333 230 469.333333333 241.333333333 482 264 c 1
 572 231 l 1
132 334 m 0
 132 181.91322534 254.432389039 57 407 57 c 0
 560.462425479 57 684 180.540587852 684 334 c 0
 684 487.02095146 559.769797487 610 407 610 c 0
 255.113312197 610 132 485.6477619 132 334 c 0
754 334 m 0
 754 142.10209531 598.626024498 -12 407 -12 c 0
 219.202155373 -12 62 140.883871515 62 334 c 0
 62 523.7242623 217.285216121 679 407 679 c 0
 600.567548008 679 754 522.479877863 754 334 c 0
EndSplineSet
EndChar

StartChar: questiondown
Encoding: 191 191 148
Width: 634
GlyphClass: 1
Flags: W
HStem: -172 128<167.975 335.985> 325 194<304.379 424.952>
VStem: -21 175<-27.6155 46.3185> 268 194<361.382 481.952>
LayerCount: 2
Fore
SplineSet
234 -172 m 0
 188.567958559 -172 -21 -164.236599447 -21 -21 c 0
 -21 40.9466109866 1.38136013971 106.16344006 134 163 c 0
 219.849758549 200.421689624 238.489170409 221.222926021 256 265 c 1
 417 265 l 1
 409.913755133 210.672122689 377.866534187 143.504287346 276 97 c 0
 190.117326226 59.2116235397 155.652351738 44.0470347648 154 11 c 0
 152.995512782 -17.1256421169 171.523427023 -44 246 -44 c 0
 297.907311529 -44 358.813055235 -27.6909409595 379 22 c 1
 517 -33 l 1
 498.312145187 -66.0296968786 438.355263158 -172 234 -172 c 0
462 421 m 0
 462 367.376023704 419.410454922 325 364 325 c 0
 310.149872288 325 268 367.155916514 268 421 c 0
 268 476.415362653 310.380854334 519 364 519 c 0
 419.183830022 519 462 476.182838615 462 421 c 0
EndSplineSet
EndChar

StartChar: germandbls
Encoding: 223 223 149
Width: 631
GlyphClass: 1
Flags: W
HStem: -13 125<253.032 385.782> 0 21G<-23 138.245> 298 117<302 394.441> 566 113<285.935 433.206>
VStem: -23 157<0 157> 424 162<147.409 269.111>
DStem2: -25.7632 -13 131.237 -13 0.207912 0.978148<45.9326 591.987>
LayerCount: 2
Fore
SplineSet
586 232 m 0x7c
 586 48.3295477138 447.869478361 -13 303 -13 c 0
 285.666666667 -13 269 -12.3333333333 253 -11 c 1
 241 123 l 1
 268.333333333 115.666666667 292 112 312 112 c 0xbc
 343.601965176 112 424 121.126106168 424 214 c 0
 424 270 385 298 307 298 c 2
 277 298 l 1
 302 415 l 1
 328 415 l 2
 440.991531579 415 474.6751738 500.043228958 434 545 c 0
 421.333333333 559 398.333333333 566 365 566 c 0
 278.101542423 566 244.49266893 522.846991312 224 424 c 2
 134 0 l 1
 -23 0 l 1
 70 435 l 2
 105.512985392 596.584083533 184.010655769 679 376 679 c 0
 471.760730345 679 602 644.961359114 602 520 c 0
 602 470.706066242 587.158689987 414.335891154 516 368 c 1
 550.710105461 350.64494727 586 308.072540894 586 232 c 0x7c
EndSplineSet
EndChar

StartChar: AE
Encoding: 198 198 150
Width: 1016
GlyphClass: 1
Flags: W
HStem: 0 139<602 929> 119 128<354 437> 275 138<660 849> 529 139<685 1042>
DStem2: -65 0 136 0 0.679101 0.734045<136.499 295.156 465.852 630.421>
AnchorPoint: "Anchor-0" 763 668 basechar 0
LayerCount: 2
Fore
SplineSet
354 247 m 1x70
 464 247 l 1
 501 421 l 1
 354 247 l 1x70
-65 0 m 1xb0
 553 668 l 1
 1071 668 l 1
 1042 529 l 1
 685 529 l 1
 660 413 l 1
 879 413 l 1
 849 275 l 1
 631 275 l 1
 602 139 l 1
 959 139 l 1
 929 0 l 1
 411 0 l 1xb0
 437 119 l 1
 241 119 l 1x70
 136 0 l 1
 -65 0 l 1xb0
EndSplineSet
EndChar

StartChar: florin
Encoding: 279 402 151
Width: 390
GlyphClass: 1
Flags: W
HStem: -173 140<-60.7166 18.7078> 381 115<53 111 287 371> 608 121<309.865 419>
DStem2: -7.06199 -173 145.629 -173 0.207912 0.978148<145.783 566.44 715.52 828.625>
LayerCount: 2
Fore
SplineSet
-59 -31 m 1
 -54.8761392871 -31.6873101188 -45.5438056061 -33 -34 -33 c 0
 0.761297600824 -33 24.7474876132 -25.3693458786 38 39 c 2
 111 381 l 1
 29 381 l 1
 53 496 l 1
 135 496 l 1
 153 578 l 2
 176.866751908 686.318335581 233.118045617 729 376 729 c 2
 445 729 l 1
 419 608 l 1
 377 608 l 2
 322.608659796 608 309.576105436 599.355158703 302 564 c 2
 287 496 l 1
 395 496 l 1
 371 381 l 1
 263 381 l 1
 179 -16 l 2
 164.384996756 -88.1615785183 119.635824761 -173 -10 -173 c 0
 -23.605516529 -173 -53.2179984276 -171.948706252 -87 -164 c 1
 -59 -31 l 1
EndSplineSet
EndChar

StartChar: integral
Encoding: 280 8747 152
Width: 344
GlyphClass: 1
Flags: W
HStem: -174 144<-12.1227 55.3199> 536 144<255.384 324.818>
VStem: -45 112<-103.638 -42.1535> 85 135<151.885 563.12> 93 135<-56.0732 355.022> 246 111<547.733 609.75>
LayerCount: 2
Fore
SplineSet
228 110 m 0xec
 228 44.9843550447 228 -174 54 -174 c 0
 4.97024249427 -174 -45 -139.347521429 -45 -93 c 0
 -45 -48.4832062678 -14.1268177491 -30 10 -30 c 0
 43.0262496775 -30 67 -55.7507728159 67 -86 c 0
 67 -92.6666666667 66 -99 64 -105 c 1
 79.1966495626 -97.8486354999 93 -80.6759403073 93 2 c 0xec
 93 15.5542654864 85 342.966567847 85 396 c 0
 85 515.536714829 107.519065634 614.784859949 171.5 655.5 c 0
 197.166666667 671.833333333 225 680 255 680 c 0
 326.85445797 680 358.103769324 631.320618368 357 596 c 0
 357 556.771262894 330.019522917 536 302 536 c 0
 280.124243132 536 246 549.202436072 246 589 c 0
 246 597.666666667 247 605 249 611 c 1
 229.666666667 601.666666667 220 566 220 504 c 0xf4
 220 491.06881398 228 165.222852687 228 110 c 0xec
EndSplineSet
EndChar

StartChar: approxequal
Encoding: 281 8776 153
Width: 556
GlyphClass: 1
Flags: W
HStem: 59 123<283.072 374.746> 118 125<147.436 248.167> 257 123<282.791 373.774> 317 124<146.625 247.885>
VStem: 382 104<187.07 208.558 385.059 406.49>
LayerCount: 2
Fore
SplineSet
486 206 m 1x88
 471.560114664 63.6639873986 393.167410344 59 354 59 c 0x88
 276.234061271 59 247.118575264 118 180 118 c 0
 141.605263158 118 140.499396767 75.9770771457 140 57 c 1
 36 95 l 1
 40.6666666667 140.333333333 53 176.333333333 73 203 c 0
 93 229.666666667 125.333333333 243 170 243 c 0x48
 255.691972689 243 286.854475398 182 342 182 c 0
 380.368421053 182 381.58231656 228.128029264 382 244 c 1
 486 206 l 1x88
486 404 m 1
 470.983307699 258.123560507 387.453112793 257 354 257 c 0x28
 275.399432935 257 246.378344843 317 180 317 c 0
 141.605263158 317 140.499396767 274.977077146 140 256 c 1
 36 294 l 1
 51.0309717919 440.01515455 136.39040343 441 170 441 c 0x18
 255.691972689 441 286.854475398 380 342 380 c 0x28
 380.351351351 380 381.597508714 426.10782241 382 441 c 1x18
 486 404 l 1
EndSplineSet
EndChar

StartChar: notequal
Encoding: 282 8800 154
Width: 661
GlyphClass: 1
Flags: W
HStem: 0 21G<64 231.167> 96 129<58 131 374 570> 283 127<58 262 504 570> 475 20G<397.118 564>
LayerCount: 2
Fore
SplineSet
64 0 m 1
 131 96 l 1
 58 96 l 1
 58 225 l 1
 221 225 l 1
 262 283 l 1
 58 283 l 1
 58 410 l 1
 352 410 l 1
 411 495 l 1
 564 495 l 1
 504 410 l 1
 570 410 l 1
 570 283 l 1
 414 283 l 1
 374 225 l 1
 570 225 l 1
 570 96 l 1
 285 96 l 1
 217 0 l 1
 64 0 l 1
EndSplineSet
EndChar

StartChar: lessequal
Encoding: 283 8804 155
Width: 676
GlyphClass: 1
Flags: W
HStem: 0 128<53 565> 490 20G<482.419 565>
LayerCount: 2
Fore
SplineSet
53 0 m 1
 53 128 l 1
 565 128 l 1
 565 0 l 1
 53 0 l 1
565 136 m 1
 53 260 l 1
 53 386 l 1
 565 510 l 1
 565 381 l 1
 228 324 l 1
 565 265 l 1
 565 136 l 1
EndSplineSet
EndChar

StartChar: greaterequal
Encoding: 284 8805 156
Width: 702
GlyphClass: 1
Flags: W
HStem: 0 128<79 591> 490 20G<79 161.581>
LayerCount: 2
Fore
SplineSet
79 0 m 1
 79 128 l 1
 591 128 l 1
 591 0 l 1
 79 0 l 1
79 136 m 1
 79 265 l 1
 416 324 l 1
 79 381 l 1
 79 510 l 1
 591 386 l 1
 591 260 l 1
 79 136 l 1
EndSplineSet
EndChar

StartChar: lozenge
Encoding: 285 9674 157
Width: 607
GlyphClass: 1
Flags: W
DStem2: 38 313 176 313 0.546521 0.837445<75.4199 302.012> 176 313 38 313 0.545572 -0.838064<0 226.591> 301 716 301 502 0.545061 -0.838396<179.417 405.461> 301 124 301 -91 0.544112 0.839013<0 226.043>
LayerCount: 2
Fore
SplineSet
301 124 m 1
 425 313 l 1
 301 502 l 1
 176 313 l 1
 301 124 l 1
301 -91 m 1
 38 313 l 1
 301 716 l 1
 563 313 l 1
 301 -91 l 1
EndSplineSet
EndChar

StartChar: summation
Encoding: 286 8721 158
Width: 793
GlyphClass: 1
Flags: W
HStem: -162 128<283 648> 540 128<283 648>
DStem2: 283 540 113 540 0.641239 -0.767341<0 262.423> 113 -34 283 -34 0.638606 0.769534<108.563 372.975>
LayerCount: 2
Fore
SplineSet
113 -162 m 1
 113 -34 l 1
 350 254 l 1
 113 540 l 1
 113 668 l 1
 648 668 l 1
 648 540 l 1
 283 540 l 1
 522 254 l 1
 283 -34 l 1
 648 -34 l 1
 648 -162 l 1
 113 -162 l 1
EndSplineSet
EndChar

StartChar: minus
Encoding: 287 8722 159
Width: 645
GlyphClass: 1
Flags: W
HStem: 184 128<39 551>
LayerCount: 2
Fore
SplineSet
39 184 m 1
 39 312 l 1
 551 312 l 1
 551 184 l 1
 39 184 l 1
EndSplineSet
EndChar

StartChar: uni2215
Encoding: 288 8725 160
Width: 482
GlyphClass: 1
Flags: W
HStem: 0 21G<-55 85.982> 648 20G<398.988 539>
VStem: -55 127<0 127> 413 126<542 668>
DStem2: -55 0 72 0 0.573791 0.819001<72.8715 815.627>
LayerCount: 2
Fore
SplineSet
-55 0 m 1
 413 668 l 1
 539 668 l 1
 72 0 l 1
 -55 0 l 1
EndSplineSet
EndChar

StartChar: uni2219
Encoding: 289 8729 161
Width: 281
GlyphClass: 1
Flags: W
HStem: 157 194<64.5923 185.21>
VStem: 27 195<194.792 315.924>
LayerCount: 2
Fore
SplineSet
222 255 m 0
 222 201.576620472 179.335524696 157 125 157 c 0
 71.1036977235 157 27 201.105927582 27 255 c 0
 27 312.377958172 73.4686650307 351 125 351 c 0
 177.007642179 351 222 311.932480523 222 255 c 0
EndSplineSet
EndChar

StartChar: radical
Encoding: 290 8730 162
Width: 615
GlyphClass: 1
Flags: W
HStem: -162 21G<262.373 432.277> 93 132<19 161> 648 20G<496.679 646>
VStem: 502 144<524 668>
DStem2: 332 29 427 -162 0.255124 0.966908<0 661.226>
LayerCount: 2
Fore
SplineSet
271 -162 m 1
 161 93 l 1
 19 93 l 1
 19 225 l 1
 252 225 l 1
 332 29 l 1
 502 668 l 1
 646 668 l 1
 427 -162 l 1
 271 -162 l 1
EndSplineSet
EndChar

StartChar: infinity
Encoding: 291 8734 163
Width: 757
GlyphClass: 1
Flags: W
HStem: 97 107<160.519 266.08 459.834 565.192> 306 106<158.307 266.047 458.825 565.257>
VStem: 29 120<216.065 294.062> 576 120<214.713 293.767>
LayerCount: 2
Fore
SplineSet
429 256 m 1
 440.31205954 242.026279391 471.095238095 204 517 204 c 0
 553.554545898 204 576 227.903561078 576 256 c 0
 576 289.735957293 546.142948278 306 515 306 c 0
 493.818755525 306 463.347433534 296.408745335 429 256 c 1
149 256 m 0
 149 227.906229787 171.442590646 204 208 204 c 0
 220.335775336 204 253.904761905 204 296 256 c 1
 285.795657727 268.005108557 253.5 306 210 306 c 0
 181.448007922 306 149 290.63388392 149 256 c 0
362 176 m 1
 338.911595 151.422020484 287.787878788 97 201 97 c 0
 103.850478554 97 29 162.273260129 29 255 c 0
 29 351.104565788 112.323928491 412 205 412 c 0
 227.684077618 412 290.606060606 412 362 336 c 1
 381.149714253 355.748142823 435.696969697 412 520 412 c 0
 617.057143233 412 696 347.883129414 696 255 c 0
 696 165.939268005 625.714914288 97 524 97 c 0
 497.838767421 97 436.212121212 97 362 176 c 1
EndSplineSet
EndChar

StartChar: uni03A9
Encoding: 292 937 164
Width: 744
GlyphClass: 1
Flags: W
HStem: 0 115<53 190 502 639> 564 116<264.152 426.129>
VStem: 53 121<310.1 475.422> 371 268<0 115> 517 122<308.798 475.038>
LayerCount: 2
Fore
SplineSet
174 392 m 0xe8
 174 306.757515174 238.132315861 235.126978167 321 223 c 1
 321 0 l 1
 53 0 l 1
 53 115 l 1
 190 115 l 1
 190 139 l 1
 160.543506022 157.832840412 53 236.804456219 53 386 c 0
 53 551.943365455 186.951521367 680 346 680 c 0
 505.040829833 680 639 551.950926427 639 386 c 0xe8
 639 349.572221994 629.656664956 219.300160214 502 139 c 1
 502 115 l 1
 639 115 l 1
 639 0 l 1
 371 0 l 1
 371 223 l 1xf0
 457.638157469 235.376879638 517 309.258152307 517 392 c 0
 517 490.005920849 439.357159174 564 346 564 c 0
 253.598806342 564 174 491.744734139 174 392 c 0xe8
EndSplineSet
EndChar

StartChar: estimated
Encoding: 293 8494 165
Width: 610
GlyphClass: 1
Flags: W
HStem: -12 70<205.024 379.955> 249 66<167 415> 440 70<202.839 379.856>
VStem: 30 137<147.397 249 315 351.151>
LayerCount: 2
Fore
SplineSet
292 440 m 0
 261.542653947 440 211.293258592 432.978067561 167 394 c 1
 167 315 l 1
 415 315 l 1
 415 394 l 1
 380.333333333 424.666666667 339.333333333 440 292 440 c 0
507 103 m 1
 486.904405639 73.1436883783 418.505754273 -12 292 -12 c 0
 146.065194208 -12 30 104.830043805 30 249 c 0
 30 394.468813905 149.017428948 510 292 510 c 0
 429.779964733 510 552 399.589444673 552 249 c 1
 167 249 l 1
 167 104 l 1
 190.141379182 83.6355863195 231.662001371 58 292 58 c 0
 317.785505022 58 387.30466866 64.3749768118 439 128 c 1
 507 103 l 1
EndSplineSet
EndChar

StartChar: partialdiff
Encoding: 294 8706 166
Width: 594
GlyphClass: 1
Flags: W
HStem: -12 119<213.389 337.783> 315 120<214.342 339.711> 560 120<152 306.864>
VStem: 21 151<148.819 274.286> 379 157<164.191 496.442>
LayerCount: 2
Fore
SplineSet
172 211 m 0
 172 153.097782371 218.091787424 107 276 107 c 0
 334.380545407 107 379 153.60270308 379 211 c 0
 379 270.960731045 333.111576753 315 276 315 c 0
 219.379431952 315 172 271.456104353 172 211 c 0
536 315 m 0
 536 182.807377095 497.275435082 -12 269 -12 c 0
 132.717725447 -12 21 67.445337677 21 212 c 0
 21 337.991634876 121.667554528 435 245 435 c 0
 291.666666667 435 329.5 426.166666667 358.5 408.5 c 0
 387.5 390.833333333 408.666666667 373.333333333 422 356 c 1
 417.005171708 430.29807085 395.223164334 573.955427462 152 560 c 1
 152 680 l 1
 282.444395094 680 536 677.884744346 536 315 c 0
EndSplineSet
EndChar

StartChar: uni0394
Encoding: 295 916 167
Width: 715
GlyphClass: 1
Flags: W
HStem: 0 115<159 415> 660 20G<277.706 296.324>
DStem2: -29 0 159 115 0.421425 0.906863<183.517 512.239> 287 680 287 418 0.422521 -0.906353<237.465 566.172>
LayerCount: 2
Fore
SplineSet
159 115 m 1
 415 115 l 1
 287 418 l 1
 159 115 l 1
-29 0 m 1
 287 680 l 1
 604 0 l 1
 -29 0 l 1
EndSplineSet
EndChar

StartChar: product
Encoding: 296 8719 168
Width: 790
GlyphClass: 1
Flags: W
HStem: -161 21G<113 241 517 645> 552 116<241 517>
VStem: 113 128<-161 552> 517 128<-161 552>
LayerCount: 2
Fore
SplineSet
113 -161 m 1
 113 668 l 1
 645 668 l 1
 645 -161 l 1
 517 -161 l 1
 517 552 l 1
 241 552 l 1
 241 -161 l 1
 113 -161 l 1
EndSplineSet
EndChar

StartChar: pi
Encoding: 297 960 169
Width: 638
GlyphClass: 1
Flags: W
HStem: 1 104<477.199 536> 380 116<53 117 248 398 529 617>
VStem: 36 131<0 131> 338 139<42.5 200.875>
DStem2: 36 0 167 0 0.207912 0.978148<27.2364 388.537> 316.918 0 447.691 0 0.207912 0.978148<160.718 388.554>
LayerCount: 2
Fore
SplineSet
458 1 m 2
 430.96519411 1 338 1 338 84 c 0
 338 96 339.333333333 107.333333333 342 118 c 2
 398 380 l 1
 248 380 l 1
 167 0 l 1
 36 0 l 1
 117 380 l 1
 28 380 l 1
 53 496 l 1
 642 496 l 1
 617 380 l 1
 529 380 l 1
 480 152 l 2
 478 143.333333333 477 136 477 130 c 0
 477 110.217132467 494.022148269 105 526 105 c 2
 559 105 l 1
 536 1 l 1
 458 1 l 2
EndSplineSet
EndChar

StartChar: hungarumlaut
Encoding: 298 733 170
Width: 502
GlyphClass: 1
Flags: W
HStem: 572 154
LayerCount: 2
Fore
SplineSet
474 726 m 0
 510.119254782 726 530 695.281841255 530 668 c 0
 530 638.964285714 516.408774088 630.712469982 493 616.5 c 0
 433.181818182 580.181818182 433.181818182 580.181818182 432 579.5 c 2
 419 572 l 1
 297 572 l 1
 423.5 698.5 l 2
 433.166666667 708.166666667 438.333333333 713 439 713 c 0
 448.333333333 721.666666667 460 726 474 726 c 0
267 726 m 0
 303.119254782 726 323 695.281841255 323 668 c 0
 323 638.964285714 309.408774088 630.712469982 286 616.5 c 0
 226.181818182 580.181818182 226.181818182 580.181818182 225 579.5 c 2
 212 572 l 1
 89 572 l 1
 103.5 586 l 2
 113.166666667 595.333333333 125 607 139 621 c 2
 216.5 698.5 l 2
 226.166666667 708.166666667 231.333333333 713 232 713 c 0
 241.333333333 721.666666667 253 726 267 726 c 0
EndSplineSet
EndChar

StartChar: tilde
Encoding: 299 732 171
Width: 461
GlyphClass: 1
Flags: W
HStem: 568 80<309.164 413.547> 607 82<185.836 295.196>
LayerCount: 2
Fore
SplineSet
453 690 m 0x80
 474.554458662 690 492 672.55227806 492 651 c 0
 492 635.056301631 483.863418292 616.953523239 445.5 588 c 0
 427.833333333 574.666666667 402.666666667 568 370 568 c 0x80
 291.804365397 568 284.6422158 607 229 607 c 0
 208.333333333 607 191.333333333 596 178 574 c 1
 89 574 l 1
 103.535165377 620.835532882 149.840220993 689 225 689 c 0x40
 314.565264884 689 316.595981729 648 364 648 c 0
 416.524217375 648 411.772078922 690 453 690 c 0x80
EndSplineSet
EndChar

StartChar: endash
Encoding: 300 8211 172
Width: 536
GlyphClass: 1
Flags: W
HStem: 185 128<38 464>
LayerCount: 2
Fore
SplineSet
38 185 m 1
 38 313 l 1
 464 313 l 1
 464 185 l 1
 38 185 l 1
EndSplineSet
EndChar

StartChar: emdash
Encoding: 301 8212 173
Width: 870
GlyphClass: 1
Flags: W
HStem: 185 128<38 798>
LayerCount: 2
Fore
SplineSet
38 185 m 1
 38 313 l 1
 798 313 l 1
 798 185 l 1
 38 185 l 1
EndSplineSet
EndChar

StartChar: trademark
Encoding: 302 8482 174
Width: 1013
GlyphClass: 1
Flags: W
HStem: 301 367<234 343 487 594 859 966> 575 93<113 234 343 463>
VStem: 234 109<301 575> 487 107<301 558> 859 107<301 558>
DStem2: 726 432 775 301 0.310675 0.950516<0 161.085>
LayerCount: 2
Fore
SplineSet
234 301 m 1xb8
 234 575 l 1
 113 575 l 1
 113 668 l 1
 463 668 l 1
 463 575 l 1
 343 575 l 1x78
 343 301 l 1
 234 301 l 1xb8
487 301 m 1xb8
 487 668 l 1xb8
 660 668 l 1
 726 432 l 1
 793 668 l 1x78
 966 668 l 1
 966 301 l 1
 859 301 l 1
 859 558 l 1
 775 301 l 1
 678 301 l 1
 594 558 l 1
 594 301 l 1
 487 301 l 1xb8
EndSplineSet
EndChar

StartChar: Euro
Encoding: 303 8364 175
Width: 704
GlyphClass: 1
Flags: W
HStem: -12 130<302.754 459.639> 231 74<43 96.3701 250 314> 366 74<71 103 279 418> 553 127<360.528 517.911>
LayerCount: 2
Fore
SplineSet
647 140 m 1
 580.310097003 30.8710678238 481.339849117 -12 367 -12 c 0
 312.057200917 -12 113.80955758 -1.05481736354 94 231 c 1
 -13 231 l 1
 43 305 l 1
 94 305 l 1
 96 323 99 343.333333333 103 366 c 1
 15 366 l 1
 71 440 l 1
 123 440 l 1
 148.266456859 510.869330214 231.838805647 680 454 680 c 0
 538.621505322 680 657.342352393 655.105825202 700 525 c 1
 561 475 l 1
 552.785446866 495.080018773 529.090909091 553 443 553 c 0
 403.728116971 553 326.741967912 539.156394895 279 440 c 1
 474 440 l 1
 418 366 l 1
 254 366 l 1
 250.857142857 351.857142857 250.857142857 351.857142857 245 305 c 1
 370 305 l 1
 314 231 l 1
 250 231 l 1
 255.972132789 200.596414891 280.522705598 118 371 118 c 0
 430.017088688 118 481.452646312 139.768442915 518 194 c 1
 647 140 l 1
EndSplineSet
EndChar

StartChar: uni2113
Encoding: 304 8467 176
Width: 506
GlyphClass: 1
Flags: W
HStem: -12 122<193.117 326.703> 573 107<317.117 383.71>
VStem: 385 125<471.474 571.168>
DStem2: 18 218 69 157 0.851774 0.523909<0 11.4821 295.853 400.163> 33.3738 -12 188.166 -12 0.207912 0.978148<283.136 335.668 425.784 615.734>
LayerCount: 2
Fore
SplineSet
270 373 m 1
 330.252852249 409.929167508 385 482.922750407 385 540 c 0
 385 562 374.666666667 573 354 573 c 0
 331.101466671 573 309.757120943 562.907044245 296 501 c 2
 270 373 l 1
276 110 m 0
 286.463468431 110 314.307692308 110 362 141 c 1
 400 52 l 1
 382 38.6666666667 357.666666667 24.6666666667 327 10 c 0
 296.333333333 -4.66666666667 260.333333333 -12 219 -12 c 0
 167.234187896 -12 64 1.92428532507 64 113 c 0
 64 120.802085618 64.3360844957 129.016506974 69 157 c 1
 -5 112 l 1
 18 218 l 1
 92 265 l 1
 132 452 l 2
 148.234966154 529.42830012 188.376566038 680 356 680 c 0
 417.721250209 680 510 662.952262649 510 561 c 0
 510 449.821978697 432.507550495 382.724832317 247 264 c 1
 231 191 l 2
 221.577729378 147.65755514 222.241238281 110 276 110 c 0
EndSplineSet
EndChar

StartChar: Lslash
Encoding: 305 321 177
Width: 595
GlyphClass: 1
Flags: W
HStem: 0 140<219 510> 648 20G<166.75 331>
VStem: 171 160<508 668>
DStem2: 11 300 76 225 0.883116 0.469155<0 22.2159 308.235 426.159> 28.1748 0 189.242 0 0.207912 0.978148<176.615 230.027 355.952 362.747 488.257 683.098>
LayerCount: 2
Fore
SplineSet
28 0 m 1
 76 225 l 1
 -15 177 l 1
 11 300 l 1
 103 348 l 1
 171 668 l 1
 331 668 l 1
 283 445 l 1
 459 538 l 1
 433 414 l 1
 258 322 l 1
 219 140 l 1
 539 140 l 1
 510 0 l 1
 28 0 l 1
EndSplineSet
EndChar

StartChar: lslash
Encoding: 306 322 178
Width: 342
GlyphClass: 1
Flags: W
HStem: 0 124<199.344 269> 487 20G<338.462 371.738> 648 20G<141.799 301>
VStem: 29 168<79.6667 218.031> 146 155<513 668>
DStem2: 4.24208 0 160.426 0 0.207912 0.978148<197 233.155 356.917 360.715 484.269 682.876>
LayerCount: 2
Fore
SplineSet
197 160 m 0xf0
 197 129.604358639 220.116815312 124 252 124 c 2
 294 124 l 1
 269 0 l 1
 172 0 l 2
 128.666666667 0 94 7.16666666667 68 21.5 c 0
 42 35.8333333333 29 61.3333333333 29 98 c 0xf0
 29 110.560522822 30.995356285 123.474459568 34 140 c 2
 53 228 l 1
 -23 188 l 1
 3 309 l 1
 79 349 l 1
 146 668 l 1
 301 668 l 1xe8
 254 442 l 1
 376 507 l 1
 350 385 l 1
 229 321 l 1
 204 205 l 2
 198.574215183 181.488265792 197 169.104724563 197 160 c 0xf0
EndSplineSet
EndChar

StartChar: oslash
Encoding: 248 248 179
Width: 577
GlyphClass: 1
Flags: W
HStem: -12 118<189.818 311.969> 392 118<230.941 349.537>
VStem: 5 156<201.513 311.803> 382 156<184.68 304.677>
DStem2: 38 85 88 32 0.731777 0.681544<-85.1142 4.9641 168.386 402.353 563.278 650.931>
AnchorPoint: "Anchor-1" 317 496 basechar 0
LayerCount: 2
Fore
SplineSet
189 125 m 1
 211.051464704 106.957892515 235.023330478 106 248 106 c 0
 327.709180806 106 387.599757563 182.805333622 382 306 c 1
 189 125 l 1
161 200 m 1
 351 376 l 1
 336.333333333 386.666666667 318 392 296 392 c 0
 283.674320034 392 161 387.296053914 161 200 c 1
538 295 m 0
 538 125.171933219 429.006803317 -12 242 -12 c 0
 180 -12 128.666666667 2.66666666667 88 32 c 1
 26 -27 l 1
 -25 27 l 1
 38 85 l 1
 20.9802864182 111.593302472 5 150.724155339 5 204 c 0
 5 379.46404287 124.353981093 510 304 510 c 0
 345.187629564 510 402.002422207 502.665051862 451 470 c 1
 514 529 l 1
 565 475 l 1
 503 418 l 1
 535.193906855 370.656019331 538 322.271906231 538 295 c 0
EndSplineSet
EndChar

StartChar: Oslash
Encoding: 216 216 180
Width: 761
GlyphClass: 1
Flags: W
HStem: -12 130<269.483 433.791> 550 130<330.417 490.379>
VStem: 30 169<232.183 397.468> 562 168<265.707 450.308>
DStem2: 4 43 55 -11 0.731548 0.68179<0.492286 98.8167 275.949 678.327 848.569 943.891>
AnchorPoint: "Anchor-1" 456 668 basechar 0
LayerCount: 2
Fore
SplineSet
241 163 m 1
 264.570001939 136.948945225 298.668337453 118 348 118 c 0
 476.980369028 118 562 243.165401747 562 380 c 0
 562 404.988305619 558.216394769 427.90753674 551 451 c 1
 241 163 l 1
413 550 m 0
 280.408619991 550 199 418.313246576 199 286 c 0
 199 265.333333333 201.333333333 247 206 231 c 1
 510 514 l 1
 496.564031478 526.09237167 463.602397627 550 413 550 c 0
730 394 m 0
 730 178.668964926 581.381617459 -12 333 -12 c 0
 276.341576177 -12 191.518266142 -1.08069079976 124 54 c 1
 55 -11 l 1
 4 43 l 1
 75 109 l 1
 45 154.333333333 30 207.666666667 30 269 c 0
 30 456.977012107 161.028508485 680 425 680 c 0
 506.333333333 680 573.333333333 660.666666667 626 622 c 1
 695 686 l 1
 746 633 l 1
 678 569 l 1
 712.666666667 523 730 464.666666667 730 394 c 0
EndSplineSet
EndChar

StartChar: Thorn
Encoding: 222 222 181
Width: 623
GlyphClass: 1
Flags: W
HStem: 0 21G<-23 143.219> 128 141<196 400.181> 426 137<259 428.025> 648 20G<114.749 280>
VStem: 444 168<310.291 410.415>
DStem2: -23 0 139 0 0.207912 0.978148<33.6817 164.498 308.654 469.293 609.328 682.926>
LayerCount: 2
Fore
SplineSet
444 372 m 0
 444 417.326935704 397.36725862 426 332 426 c 2
 230 426 l 1
 196 269 l 1
 294 269 l 2
 334.906148867 269 444 269 444 372 c 0
612 389 m 0
 612 164.527106948 430.15572654 128 255 128 c 2
 166 128 l 1
 139 0 l 1
 -23 0 l 1
 119 668 l 1
 280 668 l 1
 259 563 l 1
 347 563 l 2
 589.550331978 563 612 460.683026776 612 389 c 0
EndSplineSet
EndChar

StartChar: ae
Encoding: 230 230 182
Width: 886
GlyphClass: 1
Flags: W
HStem: -12 118<499.236 656.298> 209 90<171.938 332 487 715.771> 398 112<545.147 688.654> 407 103<213.027 344.785>
VStem: -18 489<52.519 224.965> 716 134<299.125 370.574>
AnchorPoint: "Anchor-1" 451 496 basechar 0
LayerCount: 2
Fore
SplineSet
144 145 m 0xcc
 134.987355831 69.8946319286 280.912339362 62.9812735689 321.5 178.5 c 0
 325.833333333 190.833333333 329.333333333 201 332 209 c 1
 169.960376584 210.862524407 148.631301166 185.755450265 144 145 c 0xcc
716 313 m 2
 716 394.29630887 636.48849315 398 622 398 c 0xec
 614.212962751 398 514.18794094 396.099789073 487 299 c 1
 715 299 l 2
 715.666666667 301.666666667 716 304 716 306 c 2
 716 313 l 2
372 78 m 1
 336.733374968 38.6326046154 270.398074199 -13 165 -13 c 0
 135.672466934 -13 -18 -7.03437291599 -18 118 c 0
 -18 256.309689782 144.442717344 299 345 299 c 1
 352.652588231 337.262941157 354 346.178318719 354 353 c 0
 354 366.957270415 353.23402286 407 282 407 c 0
 264.976790347 407 206.603140177 402.863871807 181 348 c 1
 63 394 l 1
 124.613769877 488.042069812 217.347632589 510 303 510 c 0xdc
 330.875493302 510 405.436625572 504.813763062 442 452 c 1
 508.583418731 505.266734985 580.834767906 510 627 510 c 0
 698.333333333 510 753.333333333 490.666666667 792 452 c 0
 830.666666667 413.333333333 850 361.666666667 850 297 c 0
 850 265.635424181 844.473806559 234.179510171 839 209 c 1
 473 209 l 1
 471.45042466 199.702547959 471 193.621193245 471 188 c 0
 471 112.072275713 548.276999549 106 573 106 c 0
 580.178733641 106 642.059623442 107.059623442 678 143 c 1
 791 98 l 1
 766.747225397 67.3953082392 694.666201621 -12 549 -12 c 0
 496.083845263 -12 419.070806573 2.68670948268 372 78 c 1
EndSplineSet
EndChar

StartChar: eth
Encoding: 240 240 183
Width: 581
GlyphClass: 1
Flags: W
HStem: -12 113<176.453 309.553> 338 118<193.219 325.407> 604 122<233 314.046>
VStem: 2 139<137.083 284.712>
DStem2: 252 530 289 483 0.769758 0.638336<0 82.9649 233.556 317.422>
LayerCount: 2
Fore
SplineSet
141 205 m 0
 141 145.239736143 179.934580883 101 237 101 c 0
 278.333333333 101 308.666666667 114.166666667 328 140.5 c 0
 347.333333333 166.833333333 357 199.333333333 357 238 c 0
 357 259.357601463 350.896579147 338 261 338 c 0
 191.786537683 338 141 283.644613493 141 205 c 0
233 726 m 1
 310.975661327 723.484656086 374.169919478 705.745481486 424 673 c 1
 498 734 l 1
 535 686 l 1
 470 633 l 1
 593.818995916 498.174871114 546.168739486 248.313373331 493.5 150.5 c 0
 452.561779427 74.4718760785 373.922724779 -12 228 -12 c 0
 30.901318734 -12 2 136.743693216 2 201 c 0
 2 348.002907319 108.817293571 456 262 456 c 0
 307.483076721 456 378.484378591 434.350775325 409 384 c 1
 410.994359601 404.940775809 415.936041879 492.721693609 366 547 c 1
 289 483 l 1
 252 530 l 1
 315 584 l 1
 294.861795137 593.539149672 260.641337542 604 207 604 c 1
 233 726 l 1
EndSplineSet
EndChar

StartChar: thorn
Encoding: 254 254 184
Width: 589
GlyphClass: 1
Flags: W
HStem: -161 21G<-55 105.237> -12 119<209.544 327.554> 392 119<288.784 396.848> 648 20G<116.754 276>
VStem: -55 156<-161 -5> 121 155<513 668> 393 158<182.244 362.041>
DStem2: -55 -161 101 -161 0.207912 0.978148<32.4342 273.673 640.629 847.477>
LayerCount: 2
Fore
SplineSet
173 214 m 0
 173 126.028713081 233.983686044 107 261 107 c 0
 391.534625496 107 393 270.879151113 393 273 c 0
 393 309.077273657 390.494913384 392 306 392 c 0
 210.253672613 392 173 282.615760522 173 214 c 0
287 -12 m 0
 241.901441363 -12 173.333395381 14.6998324709 151 75 c 1
 101 -161 l 1
 -55 -161 l 1
 121 668 l 1
 276 668 l 1
 227 434 l 1
 245.83281344 461.57661968 291.388553743 511 376 511 c 0
 417.695171577 511 551 496.132826794 551 306 c 0
 551 148.686035114 457.968949915 -12 287 -12 c 0
EndSplineSet
EndChar

StartChar: multiply
Encoding: 215 215 185
Width: 618
GlyphClass: 1
Flags: W
DStem2: 58 112 149 22 0.706133 0.708079<0.531059 192.158 318.904 513.89> 284 337 194 248 0.706133 -0.708079<-195.692 -0.533004 126.746 317.667>
LayerCount: 2
Fore
SplineSet
149 22 m 1
 58 112 l 1
 194 248 l 1
 55 385 l 1
 146 476 l 1
 284 337 l 1
 421 476 l 1
 512 385 l 1
 373 248 l 1
 509 112 l 1
 418 22 l 1
 284 158 l 1
 149 22 l 1
EndSplineSet
EndChar

StartChar: divide
Encoding: 247 247 186
Width: 645
GlyphClass: 1
Flags: W
HStem: -12 159<241.952 350.048> 186 128<40 552> 351 159<242.146 349.853>
VStem: 217 158<13.8348 122.311 376.835 484.892>
LayerCount: 2
Fore
SplineSet
375 68 m 0
 375 22.8722291612 338.446493414 -12 296 -12 c 0
 253.553771232 -12 217 22.8719660753 217 68 c 0
 217 111.131800181 252.871749814 147 296 147 c 0
 339.131800181 147 375 111.128250186 375 68 c 0
40 186 m 1
 40 314 l 1
 552 314 l 1
 552 186 l 1
 40 186 l 1
375 431 m 0
 375 385.872229161 338.446493414 351 296 351 c 0
 253.553771232 351 217 385.871966075 217 431 c 0
 217 476.581833392 254.055777918 510 296 510 c 0
 337.943061055 510 375 476.582958017 375 431 c 0
EndSplineSet
EndChar

StartChar: OE
Encoding: 307 338 187
Width: 1095
GlyphClass: 1
Flags: W
HStem: -12 131<271.753 434.618> 0 140<681 1008> 275 138<739 928> 529 139<764 1120> 550 130<328.248 491.059>
VStem: 31 169<192.778 398.087>
LayerCount: 2
Fore
SplineSet
200 286 m 0xac
 200 210.617997934 238.089996082 119 348 119 c 0
 480.920093122 119 563 246.661799193 563 380 c 0
 563 519.522789078 466.55746978 550 413 550 c 0
 283.860503 550 200 420.936782545 200 286 c 0xac
528 59 m 1
 506.187288968 37.1872889675 444.11588885 -12 328 -12 c 0
 131.580501465 -12 31 114.266088148 31 269 c 0
 31 480.36082656 176.324044728 680 425 680 c 0xac
 466.432584301 680 580.310447929 672.644594997 642 596 c 1
 657 668 l 1
 1150 668 l 1
 1120 529 l 1
 764 529 l 1
 739 413 l 1
 957 413 l 1
 928 275 l 1
 710 275 l 1
 681 140 l 1
 1037 140 l 1
 1008 0 l 1
 515 0 l 1x74
 528 59 l 1
EndSplineSet
EndChar

StartChar: oe
Encoding: 308 339 188
Width: 937
GlyphClass: 1
Flags: W
HStem: -12 119<178.077 307.529 547.07 703.434> 210 90<540 767.999> 392 119<227.868 358.914 591.083 748.542>
VStem: -1 156<129.637 299.123> 768 134<300.07 374.656>
LayerCount: 2
Fore
SplineSet
155 198 m 0
 155 158.88486107 168.004233234 107 237 107 c 0
 379.106995041 107 382 299.569979424 382 302 c 0
 382 341.196154226 368.417438072 392 298 392 c 0
 176.626262628 392 155 242.189593819 155 198 c 0
768 321 m 0
 768 394.959595309 690.709491516 398 678 398 c 0
 630.189848331 398 560.103174751 371.47795467 540 300 c 1
 766 300 l 2
 766.659787306 303.298936532 768 311.208138079 768 321 c 0
413 56 m 1
 398.996514531 44.7972116246 322.92411175 -12 220 -12 c 0
 151.404857633 -12 -1 7.51970151655 -1 181 c 0
 -1 198.396759768 2.71319438364 408.785253881 181 484 c 0
 223.666666667 502 268 511 314 511 c 0
 348.078226326 511 438.065780488 503.38817317 483 427 c 1
 528.421391148 483.236008088 625.569309061 511 694 511 c 0
 763.637584334 511 902 488.200950468 902 307 c 0
 902 277.666666667 898 245.333333333 890 210 c 1
 522 210 l 1
 520.666666667 202 520 194.666666667 520 188 c 0
 520 109.680485078 603.335050289 106 619 106 c 0
 657.555794274 106 699.313280671 119.313280671 723 143 c 1
 834 99 l 1
 734.551787185 -8.56643426934 629.468367342 -12 588 -12 c 0
 569.383109956 -12 465.435560889 -9.02009550219 413 56 c 1
EndSplineSet
EndChar

StartChar: Aring
Encoding: 197 197 192
Width: 698
GlyphClass: 2
Flags: W
HStem: 0 21G<-65 132.092 455.311 623> 119 128<255 427> 794 85<393.158 471.432>
VStem: 300 85<707.838 785.397> 479 86<707.858 786.859>
DStem2: -65 0 121 0 0.508034 0.861337<94.4943 230.524 375.321 522.352> 327.8 665.966 395 501 0.508034 0.861337<-397.856 -107.951> 515.991 643.983 395 501 0.16392 -0.986474<121.217 377.026> 623 0 427 247 0.16392 -0.986474<-531.597 -275.787 -147.06 -109.6>
AnchorPoint: "Anchor-2" 577 10 basechar 0
AnchorPoint: "Anchor-1" 461 879 basechar 0
AnchorPoint: "Anchor-0" 296 0 basechar 0
LayerCount: 2
Fore
SplineSet
565 747 m 0
 565 727.119411293 559.889089583 680.199526612 515.990788875 643.983360643 c 1
 623 0 l 1
 458 0 l 1
 442 119 l 1
 187 119 l 1
 121 0 l 1
 -65 0 l 1
 327.800209866 665.965838047 l 1
 311.779140047 686.824805888 300 713.53795222 300 747 c 0
 300 823.064451508 362.850487985 879 432 879 c 0
 504.069094182 879 565 821.616398771 565 747 c 0
255 247 m 1
 427 247 l 1
 395 501 l 1
 255 247 l 1
385 747 m 0
 385 721.388899038 406.389916739 700 432 700 c 0
 460.102019455 700 479 722.634573622 479 747 c 0
 479 773.898218397 458.897956521 794 432 794 c 0
 407.635032169 794 385 775.102453394 385 747 c 0
EndSplineSet
EndChar

StartChar: Ccedilla
Encoding: 199 199 203
Width: 673
GlyphClass: 2
Flags: W
HStem: -195 54<183.881 301.683> -12 132<317.189 419.987> 550 130<320.72 483.414>
VStem: 32 168<184.597 400.409> 304 91<-134.895 -86.236>
AnchorPoint: "Anchor-1" 428 668 basechar 0
AnchorPoint: "Anchor-0" 270 -195 basechar 0
LayerCount: 2
Fore
SplineSet
395 -103 m 0
 395 -186.748612416 299.600833811 -195 262 -195 c 0
 259.004827541 -195 202.34645615 -194.775287454 166 -178 c 1
 192 -128 l 1
 211.333333333 -136.666666667 231.333333333 -141 252 -141 c 0
 258.682196558 -141 304 -139.862292665 304 -109 c 0
 304 -94.1719795234 287.747683819 -84 265 -84 c 0
 243.542430842 -84 247.735346935 -89 236 -89 c 0
 232.758734253 -89 217 -87.3502626122 217 -71 c 0
 217 -66.3333333333 219 -61.6666666667 223 -57 c 2
 263.840249994 -7.87332247132 l 1
 185.829990542 3.62497398846 32 53.1568296843 32 265 c 0
 32 498.899250302 178.828442581 680 417 680 c 0
 485.644417008 680 625.966615498 662.470331638 671 525 c 1
 525 476 l 1
 517.061182368 494.523907809 493.285714286 550 401 550 c 0
 270.692449846 550 200 409.309858459 200 283 c 0
 200 229 212.833333333 188.5 238.5 161.5 c 0
 264.166666667 134.5 297.333333333 120.666666667 338 120 c 0
 359.374517375 120 423.619047619 120 480 194 c 1
 616 141 l 1
 565.068316927 62.3880543867 476.147371965 -12 322 -12 c 0
 320.391606051 -12 318.787828874 -11.9911992789 317.188668469 -11.9735978367 c 2
 288 -47 l 1
 298 -45 307.333333333 -44 316 -44 c 0
 363.563570674 -44 395 -68.5281945625 395 -103 c 0
EndSplineSet
EndChar

StartChar: ccedilla
Encoding: 231 231 204
Width: 531
GlyphClass: 2
Flags: W
HStem: -195 54<84.881 202.683> -12 117<218.192 313.366> 392 118<231.859 361.117>
VStem: 2 154<131.008 298.537> 205 91<-134.895 -86.236>
AnchorPoint: "Anchor-1" 318 496 basechar 0
AnchorPoint: "Anchor-0" 212 0 basechar 0
LayerCount: 2
Fore
SplineSet
296 -103 m 0
 296 -186.748612416 200.600833811 -195 163 -195 c 0
 160.004827541 -195 103.34645615 -194.775287454 67 -178 c 1
 93 -128 l 1
 112.333333333 -136.666666667 132.333333333 -141 153 -141 c 0
 159.682196558 -141 205 -139.862292665 205 -109 c 0
 205 -94.1719795234 188.747683819 -84 166 -84 c 0
 144.542430842 -84 148.735346935 -89 137 -89 c 0
 133.758734253 -89 118 -87.3502626122 118 -71 c 0
 118 -66.3333333333 120 -61.6666666667 124 -57 c 2
 165.512203483 -7.06503059342 l 1
 132.436131056 -0.957745097503 2 33.3140418011 2 194 c 0
 2 373.771228351 132.21137986 510 316 510 c 0
 359.333333333 510 398.166666667 500.833333333 432.5 482.5 c 0
 466.833333333 464.166666667 493 430.666666667 511 382 c 1
 378 336 l 1
 374.753433208 350.84144819 365.75 392 299 392 c 0
 187.583043539 392 156 262.399144631 156 198 c 0
 156 164.666666667 164 140.833333333 180 126.5 c 0
 196 112.166666667 214.666666667 105 236 105 c 0
 295.190151284 105 321.244756412 129.091214606 341 154 c 1
 464 107 l 1
 424.277520515 51.5540390516 350.862274861 -12 223 -12 c 0
 221.389050719 -12 219.78639888 -11.9898488734 218.192044483 -11.9695466201 c 2
 189 -47 l 1
 199 -45 208.333333333 -44 217 -44 c 0
 264.563570674 -44 296 -68.5281945625 296 -103 c 0
EndSplineSet
EndChar

StartChar: Eth
Encoding: 208 208 249
Width: 738
GlyphClass: 1
Flags: W
HStem: 0 133<214 395.954> 275 137<36 82 273 359> 537 131<300 479.203>
VStem: 538 168<280.319 483.751>
DStem2: 24 0 185.73 0 0.207912 0.978148<169.597 281.049 454.767 582.649>
LayerCount: 2
Fore
SplineSet
538 402 m 0
 538 514.971741423 463.806545158 537 358 537 c 2
 300 537 l 1
 273 412 l 1
 389 412 l 1
 359 275 l 1
 244 275 l 1
 214 133 l 1
 277 133 l 2
 362.333333333 133 427.166666667 157.166666667 471.5 205.5 c 0
 515.833333333 253.833333333 538 319.333333333 538 402 c 0
706 393 m 0
 706 104.045846133 478.364367605 0 247 0 c 2
 24 0 l 1
 82 275 l 1
 6 275 l 1
 36 412 l 1
 112 412 l 1
 166 668 l 1
 360 668 l 2
 477.333333333 668 564.333333333 643.333333333 621 594 c 0
 677.666666667 544.666666667 706 477.666666667 706 393 c 0
EndSplineSet
EndChar

StartChar: one.tf
Encoding: 317 -1 251
Width: 640
GlyphClass: 1
Flags: W
HStem: 0 124<51 207 360 474> 447 123<147 271.899> 647 20G<332.794 475>
DStem2: 180.643 0 333.643 0 0.207912 0.978148<158.581 456.642>
LayerCount: 2
Fore
SplineSet
147 570 m 1
 256.720053745 570 308.588988069 589.542380911 357 667 c 1
 475 667 l 1
 360 124 l 1
 501 124 l 1
 474 0 l 1
 25 0 l 1
 51 124 l 1
 207 124 l 1
 274 447 l 1
 120 447 l 1
 147 570 l 1
EndSplineSet
Substitution2: "'pnum' Proportional Numbers lookup 13 subtable" one
Substitution2: "'aalt' Access All Alternates lookup 0 subtable" one
EndChar

StartChar: Aogonek
Encoding: 328 260 262
Width: 698
GlyphClass: 2
Flags: W
HStem: -173 76<496.356 594.769> 0 21G<-65 132.092> 119 128<255 427> 648 20G<317.204 515.323>
VStem: 388 128<-131.297 -44.8491>
DStem2: -65 0 121 0 0.508034 0.861337<94.4943 230.524 375.321 578.832> 512 668 395 501 0.16392 -0.986474<145.562 401.372> 623 0 442 119 0.16392 -0.986474<-480.395 -275.787 -147.06 -27.0468>
AnchorPoint: "Anchor-2" 577 10 basechar 0
AnchorPoint: "Anchor-1" 427 668 basechar 0
AnchorPoint: "Anchor-0" 296 0 basechar 0
LayerCount: 2
Fore
SplineSet
255 247 m 1
 427 247 l 1
 395 501 l 1
 255 247 l 1
516 -75 m 0
 516 -80.354005168 516 -97 559 -97 c 0
 572.719685283 -97 589.349595846 -93.9001154725 610 -88 c 1
 594 -164 l 1
 581.812012316 -166.812612543 543.424843052 -173 513 -173 c 0
 479.711344561 -173 388 -166.594121842 388 -96 c 0
 388 -55.8684305272 427.529193089 -13.5449491872 479 0 c 1
 458 0 l 1
 442 119 l 1
 187 119 l 1
 121 0 l 1
 -65 0 l 1
 329 668 l 1
 512 668 l 1
 623 0 l 1
 524.155835756 -45.8058322108 516 -57.6974455089 516 -75 c 0
EndSplineSet
EndChar

StartChar: aogonek
Encoding: 329 261 263
Width: 545
GlyphClass: 2
Flags: W
HStem: -173 76<319.356 417.769> -12 103<94.2762 233.345> 407 103<201.309 334.835>
VStem: -18 161<102.152 181.275> 211 128<-131.297 -44.8491> 344 150<316.564 394.756>
AnchorPoint: "Anchor-2" 446 0 basechar 0
AnchorPoint: "Anchor-1" 298 496 basechar 0
AnchorPoint: "Anchor-0" 219 0 basechar 0
LayerCount: 2
Fore
SplineSet
143 138 m 0
 143 104.377754515 178.082850486 91 208 91 c 0
 290.330041475 91 313.742953239 167.309633735 325 213 c 2
 328 225 l 1
 272 220.333333333 227.166666667 211.5 193.5 198.5 c 0
 159.833333333 185.5 143 165.333333333 143 138 c 0
339 -75 m 0
 339 -80.354005168 339 -97 382 -97 c 0
 395.719685283 -97 412.349595846 -93.9001154725 433 -88 c 1
 417 -164 l 1
 404.812012316 -166.812612543 366.424843052 -173 336 -173 c 0
 302.711344561 -173 211 -166.594121842 211 -96 c 0
 211 -55.8684305272 250.529193089 -13.5449491872 302 0 c 1
 297 0 l 1
 292 59 l 1
 255.500778473 14.986232864 214.611500982 -12 130 -12 c 0
 58.5523708199 -12 -18 32.2751089467 -18 118 c 0
 -18 230.175341021 81.1281055434 289.733912021 338 315 c 1
 342.711870119 332.669512946 344 343.776762038 344 354 c 0
 344 369.686105896 342.372839733 407 272 407 c 0
 252.448929636 407 195.282951681 402.177753603 170 348 c 1
 53 394 l 1
 103.134485812 471.840385867 180.064859285 510 293 510 c 0
 391.329454033 510 494 470.025933807 494 353 c 0
 494 290.939109811 441 132.301980336 441 0 c 1
 446 0 l 1
 347.155835756 -45.8058322108 339 -57.6974455089 339 -75 c 0
EndSplineSet
EndChar

StartChar: Eogonek
Encoding: 334 280 268
Width: 582
GlyphClass: 2
Flags: W
HStem: -173 76<336.356 434.769> 0 139<168 319 419.652 495> 274 139<226 414> 529 139<251 607>
VStem: 228 128<-131.297 -44.8491>
DStem2: -59.7723 -173 101.682 -173 0.207912 0.978148<352.539 490.618 632.61 751.273>
AnchorPoint: "Anchor-2" 463 -12 basechar 0
AnchorPoint: "Anchor-1" 384 668 basechar 0
AnchorPoint: "Anchor-0" 238 0 basechar 0
LayerCount: 2
Fore
SplineSet
356 -75 m 0
 356 -80.354005168 356 -97 399 -97 c 0
 412.719685283 -97 429.349595846 -93.9001154725 450 -88 c 1
 434 -164 l 1
 421.812012316 -166.812612543 383.424843052 -173 353 -173 c 0
 319.711344561 -173 228 -166.594121842 228 -96 c 0
 228 -55.8684305272 267.529193089 -13.5449491872 319 0 c 1
 -23 0 l 1
 119 668 l 1
 637 668 l 1
 607 529 l 1
 251 529 l 1
 226 413 l 1
 443 413 l 1
 414 274 l 1
 197 274 l 1
 168 139 l 1
 524 139 l 1
 495 0 l 1
 463 0 l 1
 364.155835756 -45.8058322108 356 -57.6974455089 356 -75 c 0
EndSplineSet
EndChar

StartChar: eogonek
Encoding: 335 281 269
Width: 567
GlyphClass: 2
Flags: W
HStem: -171 76<201.356 299.769> 209 90<168 395.778> 399 111<227.433 368.969>
VStem: 3 149<133.695 206.37> 93 128<-129.297 -43.1859> 396 134<299.125 372.731>
AnchorPoint: "Anchor-2" 333 2 basechar 0
AnchorPoint: "Anchor-1" 321 496 basechar 0
AnchorPoint: "Anchor-0" 230 0 basechar 0
LayerCount: 2
Fore
SplineSet
396 313 m 2xe4
 396 394.578927255 318.746901372 399 302 399 c 0
 283.41299853 399 193.582648758 390.366602706 168 299 c 1
 395 299 l 2
 395.666666667 301.666666667 396 304 396 306 c 2
 396 313 l 2xe4
221 -73 m 0xec
 221 -78.354005168 221 -95 264 -95 c 0
 277.719685283 -95 294.349595846 -91.9001154725 315 -86 c 1
 299 -162 l 1
 286.812012316 -164.812612543 248.424843052 -171 218 -171 c 0
 184.711344561 -171 93 -164.594121842 93 -94 c 0xec
 93 -54.4892899072 129.361569527 -20.2601765329 162.274320145 -5.60248128612 c 1
 107.211245841 5.85298183476 3 47.1912082526 3 196 c 0
 3 370.948205525 129.268685341 510 307 510 c 0
 378.333333333 510 433.333333333 490.833333333 472 452.5 c 0
 510.666666667 414.166666667 530 362.666666667 530 298 c 0
 530 266.80743665 526.234293776 237.937175106 519 209 c 1
 154 209 l 1
 152.45042466 199.702547959 152 193.621193245 152 188 c 0xf4
 152 112.072275713 229.276999549 106 254 106 c 0
 264.559123266 106 323.581228264 107.581228264 358 142 c 1
 472 98 l 1
 443.972246067 63.4541637573 397.73848744 22.3699683196 326.817404023 1.45140281614 c 1
 229.79060122 -43.605028854 221 -55.5088196015 221 -73 c 0xec
EndSplineSet
EndChar

StartChar: Iogonek
Encoding: 342 302 276
Width: 459
GlyphClass: 2
Flags: W
HStem: -173 76<115.356 213.769> 0 124<13 98 267 331> 544 124<129 195 355 447>
VStem: 7 128<-131.297 -44.8491>
DStem2: 41.8707 -173 203.871 -173 0.207912 0.978148<337.317 733.169>
AnchorPoint: "Anchor-2" 242 0 basechar 0
AnchorPoint: "Anchor-1" 301 668 basechar 0
AnchorPoint: "Anchor-0" 151 0 basechar 0
LayerCount: 2
Fore
SplineSet
135 -75 m 0
 135 -80.354005168 135 -97 178 -97 c 0
 191.719685283 -97 208.349595846 -93.9001154725 229 -88 c 1
 213 -164 l 1
 200.812012316 -166.812612543 162.424843052 -173 132 -173 c 0
 98.7113445614 -173 7 -166.594121842 7 -96 c 0
 7 -55.8684305272 46.5291930888 -13.5449491872 98 0 c 1
 -13 0 l 1
 13 124 l 1
 105 124 l 1
 195 544 l 1
 103 544 l 1
 129 668 l 1
 474 668 l 1
 447 544 l 1
 355 544 l 1
 267 124 l 1
 358 124 l 1
 331 0 l 1
 242 0 l 1
 143.155835756 -45.8058322108 135 -57.6974455089 135 -75 c 0
EndSplineSet
EndChar

StartChar: iogonek
Encoding: 343 303 277
Width: 338
GlyphClass: 2
Flags: W
HStem: -173 76<77.3557 175.769> 380 116<51 129> 578 179<208.913 324.151>
VStem: -31 128<-131.297 -44.8491> 177 179<609.56 726.206>
DStem2: 11.2277 -173 167.228 -173 0.207912 0.978148<194.908 565.402>
AnchorPoint: "Anchor-2" 204 0 basechar 0
AnchorPoint: "Anchor-1" 247 719 basechar 0
AnchorPoint: "Anchor-0" 110 0 basechar 0
LayerCount: 2
Fore
SplineSet
356 668 m 0
 356 619.422774819 318.362728092 578 266 578 c 0
 215.703033972 578 177 618.654687529 177 668 c 0
 177 717.812374433 216.185366607 757 266 757 c 0
 317.878235599 757 356 717.060158458 356 668 c 0
97 -75 m 0
 97 -80.354005168 97 -97 140 -97 c 0
 153.719685283 -97 170.349595846 -93.9001154725 191 -88 c 1
 175 -164 l 1
 162.812012316 -166.812612543 124.424843052 -173 94 -173 c 0
 60.7113445614 -173 -31 -166.594121842 -31 -96 c 0
 -31 -55.8684305272 8.52919308881 -13.5449491872 60 0 c 1
 48 0 l 1
 129 380 l 1
 26 380 l 1
 51 496 l 1
 309 496 l 1
 204 0 l 1
 105.155835756 -45.8058322108 97 -57.6974455089 97 -75 c 0
EndSplineSet
EndChar

StartChar: uni0326
Encoding: 348 806 282
Width: 0
GlyphClass: 4
Flags: W
HStem: -246 45<-38 6.8379>
VStem: 30 120<-178.343 -89.6406>
AnchorPoint: "Anchor-3" 38 -251 basemark 0
AnchorPoint: "Anchor-3" 91 0 mark 0
AnchorPoint: "Anchor-0" 91 0 mark 0
LayerCount: 2
Fore
SplineSet
86 -40 m 1
 107.499793253 -48.7342910089 150 -72.3989379571 150 -123 c 0
 150 -206.719072588 60.1247179092 -250.005090527 -38 -246 c 1
 -81 -201 l 1
 -42.5601112731 -201 30 -193.164084977 30 -134 c 0
 30 -115.498395688 21.331258333 -86.6056833333 -15 -80 c 1
 86 -40 l 1
EndSplineSet
EndChar

StartChar: Uogonek
Encoding: 357 370 291
Width: 679
GlyphClass: 2
Flags: W
HStem: -173 76<249.356 347.769> 648 20G<115.691 281 535.733 701>
VStem: 26 162<143.173 333.414> 120 161<507 668> 141 128<-131.297 -44.4975> 540 161<507 668>
DStem2: -59.8388 -173 101.924 -173 0.207912 0.978148<420.952 860.013> 360.924 -173 522.161 -173 0.207912 0.978148<343.072 859.854>
AnchorPoint: "Anchor-2" 376 0 basechar 0
AnchorPoint: "Anchor-1" 414 668 basechar 0
AnchorPoint: "Anchor-0" 287 0 basechar 0
LayerCount: 2
Fore
SplineSet
269 -75 m 0xcc
 269 -80.354005168 269 -97 312 -97 c 0
 325.719685283 -97 342.349595846 -93.9001154725 363 -88 c 1
 347 -164 l 1
 334.812012316 -166.812612543 296.424843052 -173 266 -173 c 0
 232.711344561 -173 141 -166.594121842 141 -96 c 0xcc
 141 -56.5664549613 177.018378627 -23.2487972311 207.621734727 -8.81831165528 c 1
 120.454653432 1.4937217565 26 45.3491450187 26 187 c 0xe4
 26 200.704334849 26.3000131643 232.733394767 39 292 c 2
 120 668 l 1
 281 668 l 1xd4
 198 279 l 2
 188.772776344 230.557075808 188 218.470368791 188 204 c 0xe4
 188 118.828890508 259.766238973 117 294 117 c 0
 373.364148099 117 429.605014815 144.764572594 457 279 c 2
 540 668 l 1
 701 668 l 1
 621 292 l 2
 573.428317633 68.4130928773 484.713137511 12.037364401 364.303897211 -5.47681325682 c 1
 283.25979248 -43.8305727898 269 -55.9523803881 269 -75 c 0xcc
EndSplineSet
EndChar

StartChar: uogonek
Encoding: 358 371 292
Width: 578
GlyphClass: 2
Flags: W
HStem: -173 76<329.356 427.769> -12 118<117.42 255.466> 476 20G<81.7246 241 401.725 561>
VStem: 17 162<117.065 275.922> 86 155<341 496> 221 128<-131.297 -44.9285> 406 155<341 496>
DStem2: -56.5347 -173 99.2769 -173 0.207912 0.978148<390.118 684.015> 263.489 -173 419.228 -173 0.207912 0.978148<316.564 684.01>
AnchorPoint: "Anchor-2" 456 0 basechar 0
AnchorPoint: "Anchor-1" 322 496 basechar 0
AnchorPoint: "Anchor-0" 236 0 basechar 0
LayerCount: 2
Fore
SplineSet
349 -75 m 0xf6
 349 -80.354005168 349 -97 392 -97 c 0
 405.719685283 -97 422.349595846 -93.9001154725 443 -88 c 1
 427 -164 l 1
 414.812012316 -166.812612543 376.424843052 -173 346 -173 c 0
 312.711344561 -173 221 -166.594121842 221 -96 c 0
 221 -57.7657489888 257.77402059 -12.1069443366 320.846421678 1.96580252606 c 1
 316 64 l 1
 300.087982252 38.2376855504 256.552608497 -12 159 -12 c 0
 75.8406295872 -12 17 26.116132657 17 134 c 0xf6
 17 160.951222824 20.7887411592 187.390891086 27 220 c 2
 86 496 l 1
 241 496 l 1xea
 186 235 l 2
 181.099111063 210.495555314 179 191.358130042 179 175 c 0
 179 139.461780486 189.910178393 106 231 106 c 0
 261.862187572 106 326.572908369 120.211269221 350 234 c 2
 406 496 l 1
 561 496 l 1
 456 0 l 1
 357.155835756 -45.8058322108 349 -57.6974455089 349 -75 c 0xf6
EndSplineSet
EndChar

StartChar: Hbar
Encoding: 367 294 301
Width: 740
GlyphClass: 1
Flags: W
HStem: 0 21G<3 168.307 440 605.234> 274 139<252 498> 496 98<71 108 290 546 727 760> 648 20G<140.676 305 577.676 743>
VStem: 3 161<0 161> 440 161<0 161>
DStem2: 3 0 164 0 0.207912 0.978148<33.4738 313.753 455.745 506.992 640.69 682.926> 440 0 601 0 0.207912 0.978148<33.4738 280.071 422.271 507.2 640.69 682.926>
LayerCount: 2
Fore
SplineSet
252 413 m 1
 528 413 l 1
 546 496 l 1
 269 496 l 1
 252 413 l 1
3 0 m 1
 108 496 l 1
 50 496 l 1
 71 594 l 1
 129 594 l 1
 145 668 l 1
 305 668 l 1
 290 594 l 1
 566 594 l 1
 582 668 l 1
 743 668 l 1
 727 594 l 1
 781 594 l 1
 760 496 l 1
 706 496 l 1
 601 0 l 1
 440 0 l 1
 498 274 l 1
 223 274 l 1
 164 0 l 1
 3 0 l 1
EndSplineSet
EndChar

StartChar: hbar
Encoding: 368 295 302
Width: 644
GlyphClass: 1
Flags: W
HStem: 0 21G<43 203.252 366 526.27> 392 118<356.856 491.882> 555 78<82 161 328 434>
VStem: 43 156<0 156> 366 156<0 156> 431 161<227.164 382.454>
DStem2: 43 0 199 0 0.207912 0.978148<32.4342 402.497 473.082 567.405 678.422 713.518> 366 0 522 0 0.207912 0.978148<32.4342 333.548>
LayerCount: 2
Fore
SplineSet
431 328 m 0xf4
 431 361.298319307 421.690822342 392 375 392 c 0
 311.666666667 392 271 346 253 254 c 2
 199 0 l 1
 43 0 l 1
 161 555 l 1
 65 555 l 1
 82 633 l 1
 177 633 l 1
 191 698 l 1
 342 698 l 1
 328 633 l 1
 451 633 l 1
 434 555 l 1
 312 555 l 1
 286 432 l 1
 301.988739945 454.079688495 353.042026206 510 460 510 c 0
 523.764553497 510 592 482.730512898 592 366 c 0xf4
 592 340.42532573 588.588743913 312.625970785 582 281 c 2
 522 0 l 1
 366 0 l 1xf8
 422 263 l 2
 428 289 431 310.666666667 431 328 c 0xf4
EndSplineSet
EndChar

StartChar: dcroat
Encoding: 384 273 318
Width: 638
GlyphClass: 1
Flags: W
HStem: -13 118<135.272 272.125> -1 21G<338.438 489.952> 392 118<221.481 347.606> 555 78<304 435 606 656>
VStem: 3 155<138.593 315.817> 379 110<-1 289>
LayerCount: 2
Fore
SplineSet
158 216 m 0xbc
 158 186.775752843 165.381426351 105 248 105 c 0
 340.354091341 105 379 216.482450977 379 289 c 0
 379 389.628357494 297.666907045 392 290 392 c 0
 186.495315564 392 158 282.51260912 158 216 c 0xbc
335 63 m 1
 305.051183263 24.3563655007 257.792808219 -13 187 -13 c 0xbc
 83.544196333 -13 3 58.0458289631 3 191 c 0
 3 345.425760189 93.6659834493 510 267 510 c 0
 331.288604355 510 384.56006038 475.939845277 406 421 c 1
 435 555 l 1
 287 555 l 1
 304 633 l 1
 451 633 l 1
 465 698 l 1
 620 698 l 1
 616 680.5 l 2
 613.333333333 668.833333333 610 653 606 633 c 1
 673 633 l 1
 656 555 l 1
 589 555 l 1
 527.354828042 271.432208995 490.904761905 103.761904762 489 -1 c 1
 340 -1 l 1x7c
 335 63 l 1
EndSplineSet
EndChar

StartChar: Scedilla
Encoding: 389 350 323
Width: 642
GlyphClass: 2
Flags: W
HStem: -195 54<160.881 278.683> -12 126<294.277 394.509> 551 129<243.858 410.977>
VStem: 61 163<451.479 529.608> 281 91<-134.895 -86.236> 424 164<141.456 218.592>
AnchorPoint: "Anchor-1" 370 668 basechar 0
AnchorPoint: "Anchor-0" 247 -195 basechar 0
LayerCount: 2
Fore
SplineSet
372 -103 m 0
 372 -186.748612416 276.600833811 -195 239 -195 c 0
 236.004827541 -195 179.34645615 -194.775287454 143 -178 c 1
 169 -128 l 1
 188.333333333 -136.666666667 208.333333333 -141 229 -141 c 0
 235.682196558 -141 281 -139.862292665 281 -109 c 0
 281 -94.1719795234 264.747683819 -84 242 -84 c 0
 220.542430842 -84 224.735346935 -89 213 -89 c 0
 209.758734253 -89 194 -87.3502626122 194 -71 c 0
 194 -66.3333333333 196 -61.6666666667 200 -57 c 2
 241.046030993 -7.62578880577 l 1
 143.694834658 6.12398213918 49.3031630678 56.8403263757 10 157 c 1
 165 209 l 1
 185.612403998 123.973833507 282.757010077 114 313 114 c 0
 355.991650147 114 424 129.378001055 424 179 c 0
 424 299.185365466 61 247.224337626 61 475 c 0
 61 627.966614986 214.221933384 680 341 680 c 0
 408.504165953 680 539.930852571 662.419070042 606 535 c 1
 451 483 l 1
 426.520417713 548.906567695 339.909543377 551 329 551 c 0
 307.142635791 551 224 547.361353792 224 492 c 0
 224 364.576310982 588 433.220316002 588 206 c 0
 588 43.6968830552 425.609967827 -12 306 -12 c 0
 302.061918981 -12 298.154186603 -11.9559455205 294.276802866 -11.8678365614 c 2
 265 -47 l 1
 275 -45 284.333333333 -44 293 -44 c 0
 340.563570674 -44 372 -68.5281945625 372 -103 c 0
EndSplineSet
Substitution2: "'locl' Localized Forms in Latin lookup 8 subtable" uni0218
Substitution2: "'aalt' Access All Alternates lookup 0 subtable" uni0218
EndChar

StartChar: scedilla
Encoding: 390 351 324
Width: 515
GlyphClass: 2
Flags: W
HStem: -195 54<87.881 205.683> -13 109<220.426 291.753> 399 111<179.572 322.905>
VStem: 30 144<331.198 390.045> 208 91<-134.895 -86.236> 306 148<110.763 166.501>
AnchorPoint: "Anchor-1" 274 496 basechar 0
AnchorPoint: "Anchor-0" 174 -195 basechar 0
LayerCount: 2
Fore
SplineSet
299 -103 m 0
 299 -186.748612416 203.600833811 -195 166 -195 c 0
 163.004827541 -195 106.34645615 -194.775287454 70 -178 c 1
 96 -128 l 1
 115.333333333 -136.666666667 135.333333333 -141 156 -141 c 0
 162.682196558 -141 208 -139.862292665 208 -109 c 0
 208 -94.1719795234 191.747683819 -84 169 -84 c 0
 147.542430842 -84 151.735346935 -89 140 -89 c 0
 136.758734253 -89 121 -87.3502626122 121 -71 c 0
 121 -66.3333333333 123 -61.6666666667 127 -57 c 2
 167.723301744 -8.0139993509 l 1
 95.0846967527 2.96341356962 28.5464822614 31.1977390248 -10 116 c 1
 120 160 l 1
 134.263827624 99.3787325969 207.791593734 96 224 96 c 0
 262.164857167 96 306 111.053028325 306 139 c 0
 306 213.974663297 30 174.552510616 30 357 c 0
 30 447.361047079 124.976979269 510 243 510 c 0
 291 510 335.166666667 502 375.5 486 c 0
 415.833333333 470 447.666666667 441.333333333 471 400 c 1
 339 355 l 1
 334.368397152 367.042167405 322.076923077 399 241 399 c 0
 174.050858703 399 174 362.765375725 174 362 c 0
 174 281.046416447 454 325.15993276 454 156 c 0
 454 56.2435865469 372.807777197 -13 229 -13 c 0
 226.177323065 -13 223.319471029 -12.9627557761 220.426443893 -12.8882673283 c 2
 192 -47 l 1
 202 -45 211.333333333 -44 220 -44 c 0
 267.563570674 -44 299 -68.5281945625 299 -103 c 0
EndSplineSet
Substitution2: "'locl' Localized Forms in Latin lookup 8 subtable" uni0219
Substitution2: "'aalt' Access All Alternates lookup 0 subtable" uni0219
EndChar

StartChar: uni0162
Encoding: 395 354 329
Width: 617
GlyphClass: 2
Flags: W
HStem: -195 54<125.881 243.683> 529 139<87 270 430 644>
VStem: 246 91<-134.895 -86.236>
DStem2: 116.551 -195 277.551 -195 0.207912 0.978148<232.83 740.083>
AnchorPoint: "Anchor-1" 398 668 basechar 0
AnchorPoint: "Anchor-0" 200 -251 basechar 0
LayerCount: 2
Fore
SplineSet
337 -103 m 0
 337 -186.748612416 241.600833811 -195 204 -195 c 0
 201.004827541 -195 144.34645615 -194.775287454 108 -178 c 1
 134 -128 l 1
 153.333333333 -136.666666667 173.333333333 -141 194 -141 c 0
 200.682196558 -141 246 -139.862292665 246 -109 c 0
 246 -94.1719795234 229.747683819 -84 207 -84 c 0
 185.542430842 -84 189.735346935 -89 178 -89 c 0
 174.758734253 -89 159 -87.3502626122 159 -71 c 0
 159 -66.3333333333 161 -61.6666666667 165 -57 c 2
 212.385542169 0 l 1
 158 0 l 1
 270 529 l 1
 57 529 l 1
 87 668 l 1
 673 668 l 1
 644 529 l 1
 430 529 l 1
 319 0 l 1
 269.166666667 0 l 1
 230 -47 l 1
 240 -45 249.333333333 -44 258 -44 c 0
 305.563570674 -44 337 -68.5281945625 337 -103 c 0
EndSplineSet
Substitution2: "'locl' Localized Forms in Latin lookup 8 subtable" uni021A
Substitution2: "'aalt' Access All Alternates lookup 0 subtable" uni021A
EndChar

StartChar: acutecomb.case
Encoding: 398 -1 332
Width: 0
GlyphClass: 4
Flags: W
HStem: 731 153
VStem: 123 234
AnchorPoint: "Anchor-4" 263 884 basemark 0
AnchorPoint: "Anchor-4" 196 668 mark 0
AnchorPoint: "Anchor-1" 196 668 mark 0
LayerCount: 2
Fore
SplineSet
301 884 m 0
 342.211573647 884 357 848.93677746 357 828 c 0
 357 801.067475206 353.847972815 789.417651942 258 737.5 c 2
 246 731 l 1
 123 731 l 1
 174.469628671 781.039916763 216.026494422 823.439373925 257 863 c 0
 264.541062802 870.541062802 278 884 301 884 c 0
EndSplineSet
EndChar

StartChar: caron.alt
Encoding: 401 -1 335
Width: 205
GlyphClass: 1
Flags: W
HStem: 496 192<136.756 158>
LayerCount: 2
Fore
SplineSet
182 688 m 0
 217.868704556 688 236 658.34698971 236 634 c 0
 236 619.47014692 233.488020831 610.171028643 221 593 c 2
 158 496 l 1
 75 496 l 1
 79.4210526316 508 79.4210526316 508 128 650 c 0
 130.662132639 657.606093254 143.696106822 688 182 688 c 0
EndSplineSet
EndChar

StartChar: uni2074
Encoding: 411 8308 345
Width: 433
GlyphClass: 1
Flags: W
HStem: 477 86<206 266 388 426>
DStem2: 91 554 206 563 0.714902 0.699224<88.5068 225.693>
LayerCount: 2
Fore
SplineSet
206 563 m 1
 284 563 l 1
 304 659 l 1
 206 563 l 1
250 402 m 1
 266 477 l 1
 74 477 l 1
 91 554 l 1
 319 777 l 1
 433 777 l 1
 388 563 l 1
 445 563 l 1
 426 477 l 1
 369 477 l 1
 353 402 l 1
 250 402 l 1
EndSplineSet
EndChar

StartChar: gravecomb.case
Encoding: 414 -1 348
Width: 0
GlyphClass: 4
Flags: W
HStem: 731 153<141.692 187.286>
VStem: 88 187
AnchorPoint: "Anchor-4" 203 884 basemark 0
AnchorPoint: "Anchor-4" 198 668 mark 0
AnchorPoint: "Anchor-1" 198 668 mark 0
LayerCount: 2
Fore
SplineSet
88 830 m 0
 88 862.569756896 115.069940395 884 143 884 c 0
 174.990981064 884 184.044146305 872.360775317 238 789.5 c 0
 242.472822649 782.63102236 274.584686865 731.553750847 275 731 c 1
 167 731 l 2
 163.984672759 733.412261793 121.111840431 767.860199461 101 793 c 0
 92.3333333333 803.666666667 88 816 88 830 c 0
EndSplineSet
EndChar

StartChar: uni030B
Encoding: 415 779 349
Width: 0
GlyphClass: 4
Flags: W
HStem: 572 154
AnchorPoint: "Anchor-4" 313 726 basemark 0
AnchorPoint: "Anchor-4" 224 496 mark 0
AnchorPoint: "Anchor-1" 224 496 mark 0
LayerCount: 2
Fore
SplineSet
454 726 m 0
 490.119254782 726 510 695.281841255 510 668 c 0
 510 638.964285714 496.408774088 630.712469982 473 616.5 c 0
 413.181818182 580.181818182 413.181818182 580.181818182 412 579.5 c 2
 399 572 l 1
 277 572 l 1
 403.5 698.5 l 2
 413.166666667 708.166666667 418.333333333 713 419 713 c 0
 428.333333333 721.666666667 440 726 454 726 c 0
247 726 m 0
 283.119254782 726 303 695.281841255 303 668 c 0
 303 638.964285714 289.408774088 630.712469982 266 616.5 c 0
 206.181818182 580.181818182 206.181818182 580.181818182 205 579.5 c 2
 192 572 l 1
 69 572 l 1
 83.5 586 l 2
 93.1666666667 595.333333333 105 607 119 621 c 2
 196.5 698.5 l 2
 206.166666667 708.166666667 211.333333333 713 212 713 c 0
 221.333333333 721.666666667 233 726 247 726 c 0
EndSplineSet
Substitution2: "'case' Case-Sensitive Forms lookup 15 subtable" uni030B.case
Substitution2: "Single Substitution lookup 7 subtable" uni030B.case
Substitution2: "Single Substitution lookup 6 subtable" uni030B.case
Substitution2: "Single Substitution lookup 4 subtable" uni030B.case
Substitution2: "Single Substitution lookup 3 subtable" uni030B.case
Substitution2: "'aalt' Access All Alternates lookup 0 subtable" uni030B.case
EndChar

StartChar: dotlessi
Encoding: 417 305 351
Width: 326
GlyphClass: 2
Flags: W
HStem: 0 21G<48 208.234> 380 116<51 129>
VStem: 48 156<0 156>
DStem2: 48 0 204 0 0.207912 0.978148<32.4342 388.537>
AnchorPoint: "Anchor-2" 211 0 basechar 0
AnchorPoint: "Anchor-1" 202 496 basechar 0
AnchorPoint: "Anchor-0" 110 0 basechar 0
LayerCount: 2
Fore
SplineSet
48 0 m 1
 129 380 l 1
 26 380 l 1
 51 496 l 1
 309 496 l 1
 204 0 l 1
 48 0 l 1
EndSplineSet
EndChar

StartChar: uni00B5
Encoding: 181 181 356
Width: 599
GlyphClass: 2
Flags: W
HStem: -161 21G<-53 107.242> -12 118<162.333 257.308> 0 124<412.191 529.283> 476 20G<81.7686 241 401.725 561>
VStem: 86 155<341 496> 406 155<341 496>
DStem2: -53 -161 103 -161 0.207912 0.978148<32.4342 186.722 364.772 671.543> 266.04 -161 421.132 -161 0.207912 0.978148<332.288 671.742>
AnchorPoint: "Anchor-2" 469 10 basechar 0
LayerCount: 2
Fore
SplineSet
466 0 m 0xbc
 358.382821544 0 333.180225832 37.8939272967 326 72 c 1
 310 51.3333333333 289.5 32.1666666667 264.5 14.5 c 0
 239.5 -3.16666666667 208.333333333 -12 171 -12 c 0
 153.666666667 -12 138 -9.66666666667 124 -5 c 1
 124 -63.8729439208 120.488781044 -80.3471196154 117 -95 c 2
 103 -161 l 1
 -53 -161 l 1
 86 496 l 1
 241 496 l 1
 186 235 l 2
 180 208.333333333 177 184 177 162 c 0
 177 154.21588322 179.09509625 106 231 106 c 0xdc
 261.862187572 106 326.572908369 120.211269221 350 234 c 2
 406 496 l 1
 561 496 l 1
 490 163 l 2
 484 137 496 124 526 124 c 0
 541.064811982 124 547.924545936 126.962272968 554 130 c 1
 528 6 l 1
 512.781572532 2.79612053296 497.17612629 0 466 0 c 0xbc
EndSplineSet
EndChar

StartChar: uni0328.case
Encoding: 423 -1 358
Width: 0
GlyphClass: 4
Flags: W
HStem: -174 76<53.8574 153.549> -20 20G<43.4194 188>
VStem: -52 240
AnchorPoint: "Anchor-2" 188 0 mark 0
LayerCount: 2
Fore
SplineSet
-52 -99 m 0
 -52 -28.1387405936 39.8387532885 -1.93547208419 47 0 c 2
 188 0 l 1
 155.507396717 -3.2492603283 87.8425648865 -30.4190992323 79 -68 c 0
 73.2998100954 -93.6508545708 99.5457238325 -98 118 -98 c 0
 140.592479499 -98 153.611765276 -91.5647057873 169 -89 c 1
 153 -164 l 1
 136.176166225 -169.607944592 96.5653033683 -174 72 -174 c 0
 35.7148392208 -174 -19.3706184474 -167.910379743 -41 -133.5 c 0
 -48.3333333333 -121.833333333 -52 -110.333333333 -52 -99 c 0
EndSplineSet
EndChar

StartChar: uni0163
Encoding: 427 355 363
Width: 391
GlyphClass: 2
Flags: W
HStem: -195 54<15.881 133.683> 0 124<219.564 289> 380 116<53 106 286 370>
VStem: 50 167<68.7277 218.477> 136 91<-134.895 -86.236>
DStem2: -16.332 -195 138.977 -195 0.207912 0.978148<396.175 587.869 738.758 833.228>
AnchorPoint: "Anchor-1" 249 496 basechar 0
AnchorPoint: "Anchor-0" 90 -251 basechar 0
LayerCount: 2
Fore
SplineSet
227 -103 m 0xe8
 227 -186.748612416 131.600833811 -195 94 -195 c 0
 91.0048275406 -195 34.3464561498 -194.775287454 -2 -178 c 1
 24 -128 l 1
 43.3333333333 -136.666666667 63.3333333333 -141 84 -141 c 0
 90.6821965583 -141 136 -139.862292665 136 -109 c 0xe8
 136 -94.1719795234 119.747683819 -84 97 -84 c 0
 75.5424308424 -84 79.7353469354 -89 68 -89 c 0
 64.7587342528 -89 49 -87.3502626122 49 -71 c 0
 49 -66.3333333333 51 -61.6666666667 55 -57 c 2
 111.920286273 11.469329865 l 1
 82.6049918519 21.4746162815 50 39.4554837662 50 98 c 0
 50 110 52.3333333333 127.333333333 57 150 c 2
 106 380 l 1
 28 380 l 1
 53 496 l 1
 131 496 l 1
 157 620 l 1
 312 620 l 1
 286 496 l 1
 394 496 l 1
 370 380 l 1
 261 380 l 1
 224 205 l 2
 218.574215183 181.488265792 217 169.104724563 217 160 c 0xf0
 217 126.680071406 248.133932684 124 272 124 c 2
 315 124 l 1
 289 0 l 1
 193 0 l 2
 181.031651895 0 169.724417742 0.546690383757 159.078297542 1.64007115127 c 1
 160 1 l 1
 120 -47 l 1
 130 -45 139.333333333 -44 148 -44 c 0
 195.563570674 -44 227 -68.5281945625 227 -103 c 0xe8
EndSplineSet
Substitution2: "'locl' Localized Forms in Latin lookup 8 subtable" uni021B
Substitution2: "'aalt' Access All Alternates lookup 0 subtable" uni021B
EndChar

StartChar: tildecomb
Encoding: 429 771 365
Width: 0
GlyphClass: 4
Flags: W
HStem: 568 80<309.164 413.547> 607 82<185.836 295.196>
AnchorPoint: "Anchor-4" 307 690 basemark 0
AnchorPoint: "Anchor-4" 266 496 mark 0
AnchorPoint: "Anchor-1" 266 496 mark 0
LayerCount: 2
Fore
SplineSet
453 690 m 0x80
 474.554458662 690 492 672.55227806 492 651 c 0
 492 635.056301631 483.863418292 616.953523239 445.5 588 c 0
 427.833333333 574.666666667 402.666666667 568 370 568 c 0x80
 291.804365397 568 284.6422158 607 229 607 c 0
 208.333333333 607 191.333333333 596 178 574 c 1
 89 574 l 1
 103.535165377 620.835532882 149.840220993 689 225 689 c 0x40
 314.565264884 689 316.595981729 648 364 648 c 0
 416.524217375 648 411.772078922 690 453 690 c 0x80
EndSplineSet
Substitution2: "'case' Case-Sensitive Forms lookup 15 subtable" tildecomb.case
Substitution2: "Single Substitution lookup 7 subtable" tildecomb.case
Substitution2: "Single Substitution lookup 6 subtable" tildecomb.case
Substitution2: "Single Substitution lookup 4 subtable" tildecomb.case
Substitution2: "Single Substitution lookup 3 subtable" tildecomb.case
Substitution2: "'aalt' Access All Alternates lookup 0 subtable" tildecomb.case
EndChar

StartChar: copyleft
Encoding: 431 127279 367
Width: 814
Flags: W
HStem: -12 69<303.397 513.456> 145 85<343.201 450.458> 437 85<347.759 449.745> 610 69<303.186 513.667>
VStem: 62 70<228.395 438.757> 477 112<255.806 409.452> 684 70<228.459 438.695>
LayerCount: 2
Fore
SplineSet
589 334 m 0
 589 291.678194107 576.688269778 145 406 145 c 0
 366.520663757 145 288.14396164 155.324637188 244 231 c 1
 334 264 l 1
 346.666666667 241.333333333 368.666666667 230 400 230 c 0
 418.666666667 230 436.166666667 237.666666667 452.5 253 c 0
 468.833333333 268.333333333 477 295.333333333 477 334 c 0
 477 371.333333333 469 397.833333333 453 413.5 c 0
 437 429.166666667 419.333333333 437 400 437 c 0
 373.277772684 437 347.830735684 426.789657859 335 394 c 1
 243 428 l 1
 259.666666667 463.333333333 283.166666667 487.833333333 313.5 501.5 c 0
 343.833333333 515.166666667 374.666666667 522 406 522 c 0
 511.634231403 522 589 449.338280701 589 334 c 0
132 334 m 0
 132 180.537574521 255.540587852 57 409 57 c 0
 561.56976808 57 684 181.915406792 684 334 c 0
 684 485.653367505 560.881113468 610 409 610 c 0
 256.239563986 610 132 487.030260191 132 334 c 0
754 334 m 0
 754 140.891088715 596.805109726 -12 409 -12 c 0
 217.365827716 -12 62 142.110206381 62 334 c 0
 62 522.483344215 215.435910851 679 409 679 c 0
 598.7242623 679 754 523.714783879 754 334 c 0
EndSplineSet
EndChar

StartChar: zero.alt1
Encoding: 432 -1 368
Width: 652
Flags: W
DStem2: 205.554 227.912 243.785 128.646 0.570426 0.821349<0 330.422>
LayerCount: 2
Fore
SplineSet
243.78515625 128.645507812 m 1
 284.281318265 88.3620114096 361.241564728 88.6651378724 405.900390625 149.513671875 c 0
 417.644635222 165.515437536 452.674319457 219.278800183 462.1015625 302.62109375 c 0
 470.379892559 375.806330502 472.771071219 396.945736045 466.334960938 449.091796875 c 1
 243.78515625 128.645507812 l 1
205.553710938 227.912109375 m 1
 425.053710938 543.379882812 l 1
 368.363818508 591.757892499 241.261717097 584.584776343 209.3984375 365.384765625 c 0
 207.202889504 350.284306135 198.130267749 281.74177708 205.553710938 227.912109375 c 1
298 -12 m 0
 41.8300938029 -12 25.7657168962 236.475608974 60.1201171875 400.01171875 c 0
 82.7404636177 507.681418754 153.279144326 681.534059014 372.956054688 680 c 0
 466.157226563 679.348958333 533.692708333 648.40234375 575.5625 587.16015625 c 0
 659.016270767 465.09647306 640.614641071 192.24659052 504.575195312 63.052734375 c 0
 451.888997396 13.017578125 383.030598959 -12 298 -12 c 0
EndSplineSet
Substitution2: "'zero' Slashed Zero lookup 0-1" zero
Substitution2: "'aalt' Access All Alternates lookup 0 subtable" zero
Substitution2: "'tnum' Tabular Numbers lookup 14 subtable" zero
EndChar

StartChar: f_i
Encoding: 433 64257 369
Width: 643
Flags: W
HStem: 0 21G<18 177.211 353 513.234> 380 116<43 99 278 434> 578 179<513.913 629.151> 608 119<309.137 409>
VStem: 18 155<0 155> 353 156<0 156> 482 179<609.56 726.206>
DStem2: 18 0 173 0 0.207912 0.978148<32.2263 388.537 539.218 650.635> 353 0 509 0 0.207912 0.978148<32.4342 388.537>
LayerCount: 2
Fore
SplineSet
661 668 m 0xea
 661 619.422774819 623.362728092 578 571 578 c 0
 520.703033972 578 482 618.654687529 482 668 c 0
 482 717.812374433 521.185366607 757 571 757 c 0
 622.878235599 757 661 717.060158458 661 668 c 0xea
353 0 m 1xdc
 434 380 l 1
 253 380 l 1
 173 0 l 1
 18 0 l 1
 99 380 l 1
 19 380 l 1
 43 496 l 1
 124 496 l 1
 135 547 l 2
 166.44945765 688.522559425 198.026674228 727 366 727 c 2
 434 727 l 1
 409 608 l 1
 368 608 l 2
 306.844780741 608 301.541819642 600.256629843 285 527 c 2
 278 496 l 1
 614 496 l 1
 509 0 l 1
 353 0 l 1xdc
EndSplineSet
LCarets2: 1 354
Ligature2: "'liga' Standard Ligatures lookup 0-1" f i
EndChar

StartChar: f_f
Encoding: 434 64256 370
Width: 714
Flags: W
HStem: 0 21G<18 177.211 353 512.211> 380 116<43 99 278 434 613 695> 608 119<304.141 409 639.141 744>
VStem: 18 155<0 155> 353 155<0 155>
DStem2: 18 0 173 0 0.207912 0.978148<32.2263 388.537 539.218 651.561> 353 0 508 0 0.207912 0.978148<32.2263 388.537 539.218 651.561>
LayerCount: 2
Fore
SplineSet
353 0 m 1
 434 380 l 1
 253 380 l 1
 173 0 l 1
 18 0 l 1
 99 380 l 1
 19 380 l 1
 43 496 l 1
 124 496 l 1
 135 547 l 2
 165.395060456 690.685740339 202.346799817 727 366 727 c 2
 434 727 l 1
 409 608 l 1
 368 608 l 2
 307.616796398 608 301.706747883 600.987026336 285 527 c 2
 278 496 l 1
 459 496 l 1
 470 547 l 2
 500.395060456 690.685740339 537.346799817 727 701 727 c 2
 769 727 l 1
 744 608 l 1
 703 608 l 2
 642.616796398 608 636.706747883 600.987026336 620 527 c 2
 613 496 l 1
 720 496 l 1
 695 380 l 1
 588 380 l 1
 508 0 l 1
 353 0 l 1
EndSplineSet
LCarets2: 1 352
Ligature2: "'liga' Standard Ligatures lookup 0-1" f f
EndChar

StartChar: f_f_i
Encoding: 435 64259 371
Width: 978
Flags: W
HStem: 0 21G<18 177.211 353 512.211 688 848.234> 380 116<43 99 278 434 613 769> 578 179<848.913 964.151> 608 119<305.499 409 638.526 744>
VStem: 18 155<0 155> 353 155<0 155> 688 156<0 156> 817 179<609.56 726.206>
DStem2: 18 0 173 0 0.207912 0.978148<32.2263 388.537 539.218 653.13> 353 0 508 0 0.207912 0.978148<32.2263 388.537 539.218 651.054> 688 0 844 0 0.207912 0.978148<32.4342 388.537>
LayerCount: 2
Fore
SplineSet
996 668 m 0xed
 996 619.422774819 958.362728092 578 906 578 c 0
 855.703033972 578 817 618.654687529 817 668 c 0
 817 717.812374433 856.185366607 757 906 757 c 0
 957.878235599 757 996 717.060158458 996 668 c 0xed
688 0 m 1xde
 769 380 l 1
 588 380 l 1
 508 0 l 1
 353 0 l 1
 434 380 l 1
 253 380 l 1
 173 0 l 1
 18 0 l 1
 99 380 l 1
 19 380 l 1
 43 496 l 1
 124 496 l 1
 135 547 l 2
 165.54066331 694.150468675 206.680305695 727 366 727 c 2
 434 727 l 1
 409 608 l 1
 368 608 l 2
 307.067718558 608 301.589464751 600.467629618 285 527 c 2
 278 496 l 1
 459 496 l 1
 470 547 l 2
 501.090584617 689.49851283 534.669245694 727 701 727 c 2
 769 727 l 1
 744 608 l 1
 703 608 l 2
 642.616796398 608 636.706747883 600.987026336 620 527 c 2
 613 496 l 1
 949 496 l 1
 844 0 l 1
 688 0 l 1xde
EndSplineSet
LCarets2: 2 352 690
Ligature2: "'liga' Standard Ligatures lookup 0-1" f f i
EndChar

StartChar: f_f_l
Encoding: 437 64260 373
Width: 1031
Flags: W
HStem: 0 124<888.249 958> 380 116<43 99 278 434 613 695> 608 119<304.141 409 640.499 744> 648 20G<830.758 991>
VStem: 18 155<0 155> 353 155<0 155> 835 156<512 668>
DStem2: 18 0 173 0 0.207912 0.978148<32.2263 388.537 539.218 651.561> 353 0 508 0 0.207912 0.978148<32.2263 388.537 539.218 653.13> 693.242 0 849.638 0 0.207912 0.978148<196.054 682.876>
LayerCount: 2
Fore
SplineSet
886 159 m 0xde
 886 128.104996948 912.845181059 124 941 124 c 2
 984 124 l 1
 958 0 l 1
 861 0 l 2
 817 0 782.166666667 7.33333333333 756.5 22 c 0
 730.833333333 36.6666666667 718 62.3333333333 718 99 c 0
 718 117.27756526 723 135.944656963 723 140 c 2
 835 668 l 1
 991 668 l 1
 893 204 l 2
 886 169 886 169 886 159 c 0xde
353 0 m 1
 434 380 l 1
 253 380 l 1
 173 0 l 1
 18 0 l 1
 99 380 l 1
 19 380 l 1
 43 496 l 1
 124 496 l 1
 135 547 l 2
 165.395060456 690.685740339 202.346799817 727 366 727 c 2
 434 727 l 1
 409 608 l 1
 368 608 l 2
 307.616796398 608 301.706747883 600.987026336 285 527 c 2
 278 496 l 1
 459 496 l 1
 470 547 l 2
 500.54066331 694.150468675 541.680305695 727 701 727 c 2
 769 727 l 1
 744 608 l 1
 703 608 l 2xee
 642.067718558 608 636.589464751 600.467629618 620 527 c 2
 613 496 l 1
 720 496 l 1
 695 380 l 1
 588 380 l 1
 508 0 l 1
 353 0 l 1
EndSplineSet
LCarets2: 2 353 692
Ligature2: "'liga' Standard Ligatures lookup 0-1" f f l
EndChar

StartChar: dong
Encoding: 438 8363 374
Width: 638
Flags: W
HStem: -121 78<-9 505> -13 118<135.272 272.125> -1 21G<338.438 489.952> 392 118<221.481 347.606> 555 78<304 435 606 656>
VStem: 3 155<138.593 315.817> 379 110<-1 289>
LayerCount: 2
Fore
SplineSet
-25 -121 m 1x9e
 -9 -43 l 1
 521 -43 l 1
 505 -121 l 1
 -25 -121 l 1x9e
EndSplineSet
Refer: 318 273 N 1 0 0 1 0 0 2
EndChar

StartChar: uni0237
Encoding: 474 567 410
Width: 263
HStem: -162 120<-148 -24.6767> 476 20G<88.7549 249>
VStem: 93 156<340 496>
DStem2: -46.7239 -162 108.677 -162 0.207912 0.978148<126.426 672.671>
AnchorPoint: "Anchor-1" 168 496 basechar 0
LayerCount: 2
Fore
SplineSet
-74 -162 m 0
 -100.739205539 -162 -132.569691825 -161.801317747 -174 -160 c 1
 -148 -42 l 1
 -87 -42 l 2
 -28.2179520306 -42 -18.211998833 -27.99942307 -4 39 c 2
 93 496 l 1
 249 496 l 1
 148 23 l 2
 114.016157214 -136.462646918 69.4231954111 -162 -74 -162 c 0
EndSplineSet
EndChar

StartChar: uni2010
Encoding: 489 8208 425
Width: 336
Flags: W
HStem: 184 129<38 296>
VStem: 10 314
LayerCount: 2
Fore
SplineSet
10 184 m 1
 38 313 l 1
 324 313 l 1
 296 184 l 1
 10 184 l 1
EndSplineSet
EndChar

StartChar: Ldot
Encoding: 496 319 432
Width: 543
HStem: 0 139<168 458> 250 194<329.348 449.974> 648 20G<114.749 279>
VStem: 119 160<508 668> 291 195<286.703 408.28>
DStem2: -23 0 138.455 0 0.207912 0.978148<175.674 682.926>
LayerCount: 2
Fore
SplineSet
486 347 m 0
 486 290.43735936 440.841400384 251.29603501 389 250 c 0
 336.890603267 251.302734918 291 291.506439022 291 347 c 0
 291 403.865767283 336.870390089 444 389 444 c 0
 440.820868052 444 486 404.979101093 486 347 c 0
EndSplineSet
Refer: 26 76 N 1 0 0 1 0 0 3
EndChar

StartChar: ldot
Encoding: 497 320 433
Width: 485
Flags: W
HStem: 0 124<174.249 244> 250 194<306.491 428.013> 648 20G<116.758 277>
VStem: 4 168<80.6667 216.375> 121 156<512 668> 270 195<286.987 408.088>
DStem2: -20.7579 0 135.638 0 0.207912 0.978148<196.022 682.876>
LayerCount: 2
Fore
SplineSet
465 347 m 0xe4
 465 293.128370896 421.871346006 250 368 250 c 0
 314.576620472 250 270 292.664475304 270 347 c 0
 270 403.865767283 315.870390089 444 368 444 c 0
 420.596925637 444 465 403.411446625 465 347 c 0xe4
EndSplineSet
Refer: 52 108 N 1 0 0 1 0 0 2
EndChar

